/* XPM */
static char *result[] = {
/* columns rows colors chars-per-pixel */
"38 64 43 1 ",
"  c #000000",
". c #0B0300",
"X c #070808",
"o c #0C0C0C",
"O c #130600",
"+ c #180700",
"@ c #1D0900",
"# c #141414",
"$ c #230A00",
"% c #2C0D00",
"& c #330F00",
"* c #361000",
"= c #3B1100",
"- c #431400",
"; c #4C1600",
": c #501700",
"> c #531800",
", c #5D1B00",
"< c #631D00",
"1 c #6A1F00",
"2 c #6E2000",
"3 c #732200",
"4 c #7B2400",
"5 c #842600",
"6 c #8C2900",
"7 c #932B00",
"8 c #9B2D00",
"9 c #A12F00",
"0 c #A53000",
"q c #AB3200",
"w c #B33400",
"e c #BB3700",
"r c #BF3800",
"t c #C23800",
"y c #CB3B00",
"u c #D43E00",
"i c #D93F00",
"p c #DE4000",
"a c #E44200",
"s c #EB4400",
"d c #F34700",
"f c #F74800",
"g c #FF4A00",
/* pixels */
"                                      ",
"                                      ",
"                                      ",
"                                      ",
"         .=39q8886644321<,>:&         ",
"        *qdggggggggggggggggd:.*.      ",
"       -pgggggggggggggggggg8 :s6.     ",
"       -wdggggggggggggggggy@@ygg6.    ",
"      O  -qsgggggggggggggd> 7gggd=    ",
"     %r4$  =8sggggggggggg6 >dgggg6    ",
"     =dga6%  *68877766654O@ygggggq.   ",
"     -fggga8*             6gggggg0    ",
"     :ggggggu+           .tgggggg8    ",
"     ,gggggguO           .ygggggg6    ",
"     2ggggggy.           Oygggggg5    ",
"     4gggggge.           Ougggggg3    ",
"     5ggggggw            +pgggggg1    ",
"     8gggggg0            $agggggg,    ",
"     0gggggg7            %agggggg>    ",
"    .wgggggg5            %sgggggf;    ",
"    .tgggggg3            *dgggggf-    ",
"    .ygggggg2            =fgggggd&    ",
"    Ougggggg,            -fgggggd%    ",
"    @agggggf;            ;gggggga$    ",
"    $sgggggf-            >gggggga@    ",
"    &dgggggd&            ,ggggggi+    ",
"    =fgggggs%            1gggggguO    ",
"    ;fgggggwO            -agggggy.    ",
"    ,gggga4+ XXXXXXXXXXX. *qgggge.    ",
"    ;agfq&  o############X .2aggq.    ",
"     =8,. X###############o  &wu&     ",
"      . Xo##################o O@      ",
"        o####################o        ",
"      O  Xo#################oX        ",
"    .,y7&  Xo####o#######oX  O-7;     ",
"    ;fgga7&      XX XXXXX .*4ydgw.    ",
"    <gggggs7O           .<esgggge.    ",
"    <gggggga$           Ouggggggw.    ",
"    1ggggggp@           Opggggggq     ",
"    2ggggggi+           @pgggggg0     ",
"    3gggggguO           $agggggg8     ",
"    3ggggggy.           $sgggggg6     ",
"    4ggggggy.           %sgggggg5     ",
"    5ggggggr.           &sgggggg4     ",
"    6ggggggw.           &dgggggg3     ",
"    5ggggggq            -fgggggg<     ",
"    6gggggg0            -fgggggg,     ",
"    7gggggg8            ;fgggggg>     ",
"    8gfgggg7            :fgggggf;     ",
"    8gggggg6            ,ggggggf-     ",
"    8gggggg5            <ggggggd*     ",
"    0gggggg4            1ggggggs&     ",
"    0gggggy=            1ggggggs%     ",
"    qggft,O @%%%%%%%%%%.%agggggp+     ",
"    wfe>. &7psassssssss2 3gggggt.     ",
"   .3:. &8aggggggggggggp%.egggg6      ",
"     .=8sggggggggggggggg0.-dgga*      ",
"     :agggggggggggggggggf, 6gu;       ",
"     .2pgggggggggggggggggi$$6%        ",
"       $,888808090000qqqqq:           ",
"                    .   . .           ",
"                                      ",
"                                      ",
"                                      "
};
