/* XPM */
static char *result[] = {
/* columns rows colors chars-per-pixel */
"38 64 171 2 ",
"   c black",
".  c #010000",
"X  c #000001",
"o  c #010101",
"O  c #020000",
"+  c #030100",
"@  c #000102",
"#  c #010102",
"$  c #000202",
"%  c #000203",
"&  c #010203",
"*  c #020202",
"=  c #020303",
"-  c gray1",
";  c #040100",
":  c #050100",
">  c #050200",
",  c #070200",
"<  c #020304",
"1  c #040404",
"2  c gray2",
"3  c #060606",
"4  c #060607",
"5  c #060707",
"6  c #070707",
"7  c #080200",
"8  c #090300",
"9  c #0A0300",
"0  c #0B0300",
"q  c #0D0400",
"w  c #0E0400",
"e  c #0F0400",
"r  c #070808",
"t  c gray3",
"y  c #090909",
"u  c gray4",
"i  c #0B0B0B",
"p  c #0C0C0C",
"a  c gray5",
"s  c #0E0E0E",
"d  c gray6",
"f  c #100500",
"g  c #110500",
"h  c #130500",
"j  c #140600",
"k  c #160600",
"l  c #180700",
"z  c #1B0800",
"x  c #1C0800",
"c  c #1D0900",
"v  c #1E0900",
"b  c #1F0900",
"n  c #101010",
"m  c #111111",
"M  c gray7",
"N  c #131313",
"B  c gray8",
"V  c #151515",
"C  c #200A00",
"Z  c #210A00",
"A  c #220A00",
"S  c #260B00",
"D  c #270B00",
"F  c #2A0C00",
"G  c #2B0D00",
"H  c #2C0D00",
"J  c #2D0D00",
"K  c #2E0D00",
"L  c #2E0E00",
"P  c #310E00",
"I  c #320F00",
"U  c #340F00",
"Y  c #351000",
"T  c #371000",
"R  c #381000",
"E  c #391100",
"W  c #3D1200",
"Q  c #3E1200",
"!  c #3F1200",
"~  c #401300",
"^  c #411300",
"/  c #441400",
"(  c #451400",
")  c #461400",
"_  c #4A1600",
"`  c #4C1600",
"'  c #4E1700",
"]  c #511800",
"[  c #521800",
"{  c #531800",
"}  c #551900",
"|  c #561900",
" . c #5B1A00",
".. c #5D1B00",
"X. c #5F1C00",
"o. c #611C00",
"O. c #631D00",
"+. c #661E00",
"@. c #6A1F00",
"#. c #6B1F00",
"$. c #702100",
"%. c #712100",
"&. c #762200",
"*. c #7A2400",
"=. c #802500",
"-. c #812600",
";. c #852700",
":. c #872800",
">. c #8C2900",
",. c #8D2900",
"<. c #8E2900",
"1. c #8F2A00",
"2. c #912A00",
"3. c #932B00",
"4. c #982C00",
"5. c #992D00",
"6. c #A32F00",
"7. c #A33000",
"8. c #AC3200",
"9. c #AE3300",
"0. c #B03300",
"q. c #B43500",
"w. c #B53500",
"e. c #B83600",
"r. c #BC3700",
"t. c #BF3800",
"y. c #C03800",
"u. c #C13800",
"i. c #C73A00",
"p. c #C83A00",
"a. c #C93A00",
"s. c #CE3C00",
"d. c #D13D00",
"f. c #D63E00",
"g. c #D83F00",
"h. c #D93F00",
"j. c #DC4000",
"k. c #DD4000",
"l. c #DE4100",
"z. c #DF4100",
"x. c #E04100",
"c. c #E14200",
"v. c #E24200",
"b. c #E34200",
"n. c #E74300",
"m. c #E84300",
"M. c #E94400",
"N. c #EB4400",
"B. c #EC4500",
"V. c #ED4500",
"C. c #EE4500",
"Z. c #EF4500",
"A. c #F04600",
"S. c #F14600",
"D. c #F24600",
"F. c #F34700",
"G. c #F44700",
"H. c #F54700",
"J. c #F64700",
"K. c #F64800",
"L. c #F84800",
"P. c #FA4800",
"I. c #FA4900",
"U. c #FB4900",
"Y. c #FC4900",
"T. c #FD4900",
"R. c #FD4A00",
"E. c #FE4A00",
"W. c #FF4A00",
"Q. c #FF4B00",
"!. c #FF4C00",
/* pixels */
"                                                                            ",
"                                                                            ",
"                                                                            ",
"                                                                            ",
"                  o 2 y a a a p p i i u u y y t t 6 6 3 1                   ",
"                1 s N B B B B B B B B B B B B B B B B N 5 , R 7             ",
"              2 m B B B B B B B B B B B B B B B B B B p   ] M.,.e           ",
"              2 s N B B B B B B B B B B B B B B B B n $ v s.Q.W.1.;         ",
"          o *     2 a N B B B B B B B B B B B B B N 3 + 3.Q.W.W.A.Q         ",
"          - d u -     2 p M B B B B B B B B B B B i   ] F.W.W.W.Q.2.        ",
"          1 N B m i 1     1 u p p p i i i i i i u @ b s.Q.W.W.W.Q.9.+       ",
"          2 N B B B M p 1                         . ,.Q.W.W.W.W.Q.7..       ",
"          3 B B B B B B n *                       8 y.Q.W.W.W.W.Q.4.        ",
"          6 B B B B B B m *                       q i.Q.W.W.W.W.Q.,.        ",
"          y B B B B B B n o                       g s.Q.W.W.W.W.Q.-.        ",
"          u B B B B B B d o                       k f.Q.W.W.W.W.Q.&.        ",
"          i B B B B B B s                         z j.Q.W.W.W.W.W.@.        ",
"          p B B B B B B a                         Z v.Q.W.W.W.W.W.X.        ",
"          a B B B B B B p                         D m.W.W.W.W.W.Y.}         ",
"          s B B B B B B i                         K B.W.W.W.W.W.I._         ",
"        o d B B B B B B y                         Y S.W.W.W.W.W.J.~         ",
"        o n B B B B B B t                         W G.W.W.W.W.W.D.T         ",
"        * m B B B B B B 6                         ( L.W.W.W.W.W.V.L         ",
"        * M B B B B B B 3                         ' U.W.W.W.W.W.n.S         ",
"        - M B B B B B N 2                         | T.W.W.W.W.Q.x.b         ",
"        1 N B B B B B N 1                         X.W.W.W.W.W.Q.h.l         ",
"        2 N B B B B B M -                         #.Q.W.W.W.W.Q.d.h         ",
"        3 B B B B B B s *                         ) c.Q.W.W.W.Q.p.w         ",
"        6 B B B B M u *   2 6 6 6 3 3 3 3 3 3 3 -   I 0.Y.Q.W.Q.y.8         ",
"        3 M B N a 1   - p N B B B B B B B B B B m t X q $.b.Q.!.8.;         ",
"          2 p 6   o t m B B B B B B B B B B B B B B a =   U q.d.R           ",
"                2 s B B B B B B B B B B B B B B B B B m t X f C             ",
"              o p N B B B B B B B B B B B B B B B B B B B p #               ",
"            o     2 a N B B B B B B B B B B B B B B B M a 4 X               ",
"        o t n i 1     2 a n n m m M M N N N B B N s r %   f ( <._           ",
"        3 N B B M p 1     o o * * - - 1 2 2 3 6 1 X 9 T =.a.H.!.e.7         ",
"        t B B B B B M i o                       : O.r.Z.Q.Q.W.Q.t.8         ",
"        t B B B B B B M -                       j f.!.W.W.W.W.Q.w.>         ",
"        t B B B B B B m *                       l h.Q.W.W.W.W.Q.8.+         ",
"        y B B B B B B m *                       c l.Q.W.W.W.W.Q.6..         ",
"        y B B B B B B m *                       Z v.Q.W.W.W.W.Q.5.          ",
"        y B B B B B B n o                       D n.W.W.W.W.W.Q.1.          ",
"        u B B B B B B d o                       H N.W.W.W.W.W.Q.;.          ",
"        u B B B B B B d o                       I Z.W.W.W.W.W.Q.*.          ",
"        u B B B B B B s                         T D.W.W.W.W.W.Q.%.          ",
"        i B B B B B B s                         ! H.W.W.W.W.W.W.+.          ",
"        i B B B B B B a                         / L.W.W.W.W.W.E...          ",
"        i B B B B B B p                         ` I.W.W.W.W.W.Y.{           ",
"        p B B B B B B p                         [ Y.W.W.W.W.W.P._           ",
"        p B B B B B B i                          .E.W.W.W.W.W.K.^           ",
"        p B B B B B B u                         o.W.W.W.W.W.W.F.E           ",
"        a B B B B B B u                         @.W.W.W.W.W.W.C.P           ",
"        a B B B B B n 2                         #.Q.W.W.W.W.W.M.F           ",
"        a B B B d t o   * - - - - - - - 1 1 - X J z.Q.W.W.W.Q.k.x           ",
"        s B d 6 o   1 i m M M M M M M M N N M y   %.R.W.W.W.Q.u.0           ",
"        y 3 o   1 p M B B B B B B B B B B B B M < g r.Q.W.W.Q.>.            ",
"            1 p M B B B B B B B B B B B B B B B a X / Z.W.Q.b.Y             ",
"          3 M B B B B B B B B B B B B B B B B B N 6 O 1.Q.g._               ",
"          o y m B B B B B B B B B B B B B B B B V m & A :.G                 ",
"              - t p a p p a a a a a a a a a a a a s 3                       ",
"                                                                            ",
"                                                                            ",
"                                                                            ",
"                                                                            "
};
