/* XPM */
static char *result[] = {
/* columns rows colors chars-per-pixel */
"38 64 253 2 ",
"   c black",
".  c #010000",
"X  c #000001",
"o  c #010101",
"O  c #020100",
"+  c #030100",
"@  c #000102",
"#  c #010202",
"$  c #010203",
"%  c #020202",
"&  c #020303",
"*  c gray1",
"=  c #040100",
"-  c #050100",
";  c #050200",
":  c #060200",
">  c #070200",
",  c #030304",
"<  c #020404",
"1  c #030404",
"2  c #040404",
"3  c #040505",
"4  c gray2",
"5  c #060606",
"6  c #070707",
"7  c #080200",
"8  c #080300",
"9  c #090300",
"0  c #0A0300",
"q  c #0C0300",
"w  c #0C0400",
"e  c #0D0400",
"r  c #0E0400",
"t  c #0F0400",
"y  c #0F0500",
"u  c #070808",
"i  c gray3",
"p  c #090808",
"a  c #090909",
"s  c gray4",
"d  c #0B0B0B",
"f  c #0C0C0C",
"g  c gray5",
"h  c #0E0E0E",
"j  c #0F0F0E",
"k  c gray6",
"l  c #100500",
"z  c #110500",
"x  c #130500",
"c  c #140600",
"v  c #150600",
"b  c #160600",
"n  c #170700",
"m  c #180700",
"M  c #1B0800",
"N  c #1C0800",
"B  c #1D0800",
"V  c #1D0900",
"C  c #1E0900",
"Z  c #1F0900",
"A  c #101010",
"S  c #111111",
"D  c gray7",
"F  c #131313",
"G  c gray8",
"H  c #151515",
"J  c #200A00",
"K  c #210A00",
"L  c #230A00",
"P  c #240A00",
"I  c #250B00",
"U  c #260B00",
"Y  c #270B00",
"T  c #290C00",
"R  c #2A0C00",
"E  c #2B0C00",
"W  c #2A0D00",
"Q  c #2B0D00",
"!  c #2C0D00",
"~  c #2D0D00",
"^  c #2E0D00",
"/  c #2E0E00",
"(  c #2F0E00",
")  c #300E00",
"_  c #310E00",
"`  c #320F00",
"'  c #330F00",
"]  c #340F00",
"[  c #351000",
"{  c #371000",
"}  c #381000",
"|  c #391100",
" . c #3A1100",
".. c #3B1100",
"X. c #3C1200",
"o. c #3D1200",
"O. c #3E1200",
"+. c #3F1200",
"@. c #401300",
"#. c #431400",
"$. c #441400",
"%. c #451400",
"&. c #461400",
"*. c #4A1600",
"=. c #4B1600",
"-. c #4D1600",
";. c #4E1700",
":. c #501700",
">. c #501800",
",. c #511800",
"<. c #521800",
"1. c #531800",
"2. c #541900",
"3. c #551900",
"4. c #561900",
"5. c #571900",
"6. c #571A00",
"7. c #581A00",
"8. c #5D1B00",
"9. c #5E1B00",
"0. c #5F1C00",
"q. c #601C00",
"w. c #611D00",
"e. c #621D00",
"r. c #631D00",
"t. c #641D00",
"y. c #661E00",
"u. c #671E00",
"i. c #691F00",
"p. c #6A1F00",
"a. c #6B1F00",
"s. c #6D2000",
"d. c #6E2000",
"f. c #6F2000",
"g. c #702100",
"h. c #712100",
"j. c #722100",
"k. c #742200",
"l. c #752200",
"z. c #762200",
"x. c #762300",
"c. c #792300",
"v. c #7A2400",
"b. c #7B2400",
"n. c #7C2400",
"m. c #812500",
"M. c #812600",
"N. c #822600",
"B. c #852700",
"V. c #862700",
"C. c #872800",
"Z. c #882800",
"A. c #892800",
"S. c #8A2800",
"D. c #8D2900",
"F. c #8F2A00",
"G. c #902A00",
"H. c #912A00",
"J. c #922B00",
"K. c #932B00",
"L. c #942B00",
"P. c #952B00",
"I. c #952C00",
"U. c #962C00",
"Y. c #972C00",
"T. c #982C00",
"R. c #992D00",
"E. c #9C2D00",
"W. c #9C2E00",
"Q. c #9D2E00",
"!. c #9E2E00",
"~. c #9F2F00",
"^. c #A02F00",
"/. c #A12F00",
"(. c #A22F00",
"). c #A32F00",
"_. c #A33000",
"`. c #A43000",
"'. c #A53000",
"]. c #A63000",
"[. c #A73100",
"{. c #A83100",
"}. c #A93100",
"|. c #AA3100",
" X c #AA3200",
".X c #AB3200",
"XX c #AC3200",
"oX c #AD3300",
"OX c #AE3200",
"+X c #AE3300",
"@X c #B03300",
"#X c #B13400",
"$X c #B23400",
"%X c #B43400",
"&X c #B43500",
"*X c #B53500",
"=X c #B83600",
"-X c #BA3600",
";X c #BD3700",
":X c #C03800",
">X c #C23800",
",X c #C53900",
"<X c #C63A00",
"1X c #C73A00",
"2X c #C83A00",
"3X c #C93B00",
"4X c #CA3B00",
"5X c #CC3B00",
"6X c #CE3C00",
"7X c #CF3C00",
"8X c #D13D00",
"9X c #D33D00",
"0X c #D63E00",
"qX c #D93F00",
"wX c #DB4000",
"eX c #DC4000",
"rX c #DD4000",
"tX c #DE4000",
"yX c #DE4100",
"uX c #DF4100",
"iX c #E04100",
"pX c #E14100",
"aX c #E14200",
"sX c #E24200",
"dX c #E34200",
"fX c #E44200",
"gX c #E74300",
"hX c #E84300",
"jX c #E94400",
"kX c #EA4400",
"lX c #EB4400",
"zX c #EC4400",
"xX c #EC4500",
"cX c #ED4500",
"vX c #EF4500",
"bX c #F04600",
"nX c #F14600",
"mX c #F24600",
"MX c #F34700",
"NX c #F44700",
"BX c #F54700",
"VX c #F64700",
"CX c #F84800",
"ZX c #FA4800",
"AX c #FA4900",
"SX c #FB4900",
"DX c #FC4900",
"FX c #FD4900",
"GX c #FD4A00",
"HX c #FE4A00",
"JX c #FF4A00",
"KX c #FF4B00",
"LX c #FF4C00",
/* pixels */
"                                                                            ",
"                                                                            ",
"                                                                            ",
"                        . O                                                 ",
"                  0  .j.^.{.^.E.I.F.A.N.n.l.d.p.r.8.5.<.`                   ",
"                ` #XnXKXKXKXKXKXKXKXKXKXKXKXKXJXJXHXHXmX3.= } 7             ",
"              %.yXKXJXJXJXJXJXJXJXJXJXJXJXJXJXJXJXJXKXY.O ,.jXD.t           ",
"              @.%XMXKXJXJXJXJXJXJXJXJXJXJXJXJXJXJXKX7XV N 6XKXJXF.=         ",
"          o %   7 %.[.vXKXJXJXJXJXJXJXJXJXJXJXJXJXmX:.  K.KXJXJXbXO.        ",
"          * k s &   - X.W.jXKXKXKXKXKXKXKXKXKXKXKXF.  ,.MXJXJXJXKXH.        ",
"          2 F G S d ,   O ] B.R.I.I.K.G.D.S.C.V.c.n B 6XKXJXJXJXKX+X+       ",
"          4 F G G G D f 2                           D.KXJXJXJXJXKX_..       ",
"          5 G G G G G G A %                       9 :XKXJXJXJXJXKXT.        ",
"          6 G G G G G G S %                       e 1XKXJXJXJXJXKXD.        ",
"          a G G G G G G A o                       z 6XKXJXJXJXJXKXM.        ",
"          s G G G G G G k o                       b 0XKXJXJXJXJXKXz.        ",
"          d G G G G G G h                         M eXKXJXJXJXJXJXp.        ",
"          f G G G G G G g                         K sXKXJXJXJXJXJX0.        ",
"          g G G G G G G f                         Y hXJXJXJXJXJXDX3.        ",
"          h G G G G G G d                         ^ xXJXJXJXJXJXAX*.        ",
"        o k G G G G G G a                         [ nXJXJXJXJXJXVX@.        ",
"        o A G G G G G G i                         o.NXJXJXJXJXJXmX{         ",
"        % S G G G G G G 6                         %.CXJXJXJXJXJXcX/         ",
"        % D G G G G G G 5                         ;.SXJXJXJXJXJXgXU         ",
"        * D G G G G G F 4                         4.FXJXJXJXJXKXiXZ         ",
"        2 F G G G G G F 2                         0.JXJXJXJXJXKXqXm         ",
"        4 F G G G G G D *                         a.KXJXJXJXJXKX8Xx         ",
"        5 G G G G G G j #                         &.aXKXJXJXJXKX2Xr         ",
"        6 G G G G D s @ = ..2.<.<.<.,.:.;.-.=.*.U   _ @XDXKXJXKX:X9         ",
"        5 D G F g 1   I I.vXGXDXDXDXDXSXSXAXAXAXeXy.: 0 g.dXKXLXXX=         ",
"          4 f 6 X r i.qXKXJXJXJXJXJXJXJXJXJXJXJXKXAX].T   ] &X8X}           ",
"              = #.=XDXKXJXJXJXJXJXJXJXJXJXJXJXJXJXJXKXwXw.; t J             ",
"              l L.BXKXJXJXJXJXJXJXJXJXJXJXJXJXJXJXJXJXKXFXW.v               ",
"            z . = #.|.mXKXKXKXKXKXJXJXJXJXJXJXJXJXKXHXpX(.3.r               ",
"        > q.4XJ.)   = $.`.<X6X0XrXfXkXbXNXCXSXGXxX*Xu.P O X 3 d 5           ",
"        ;.BXKXKXgXP.'   O w l b N L Q ' X.&.>.7.' 7 X < s A F H h o         ",
"        t.JXJXJXJXKXkXH.l                         u k F G G G G k o         ",
"        y.JXJXJXJXJXKXgXL                       % S G G G G G G h           ",
"        p.JXJXJXJXJXKXuXC                       % S G G G G G G h           ",
"        f.KXJXJXJXJXKXqXm                       % S G G G G G G g           ",
"        k.KXJXJXJXJXKX9Xc                       * D G G G G G G f           ",
"        x.KXJXJXJXJXKX5Xy                       * D G G G G G G d           ",
"        b.KXJXJXJXJXKX,Xq                       * D G G G G G G s           ",
"        m.KXJXJXJXJXKX;X8                       2 F G G G G G G s           ",
"        B.KXJXJXJXJXKX*X:                       2 F G G G G G G a           ",
"        Z.KXJXJXJXJXKXoX+                       4 F G G G G G G i           ",
"        D.KXJXJXJXJXKX`..                       4 F G G G G G G 6           ",
"        J.KXJXJXJXJXKXW.                        5 G G G G G G G 6           ",
"        I.KXJXJXJXJXKXK.                        5 G G G G G G G 5           ",
"        R.KXJXJXJXJXKXS.                        6 G G G G G G F 4           ",
"        !.KXJXJXJXJXKXM.                        i G G G G G G F 4           ",
"      . ).KXJXJXJXJXLXv.                        i G G G G G G F 2           ",
"      . ].KXJXJXKXDX3X+.                        p G G G G G G D *           ",
"      O  XKXKXZX>Xq.z   Z T T R E Q ! ~ ~ ~ W 7 , D G G G G G S %           ",
"      = $XSX-X6.e   ( H.tXjXjXkXkXlXlXzXxXxXlXs.  a G G G G G k o           ",
"      - h.1.9   ] U.hXKXKXJXJXJXJXJXJXJXJXJXKXiX^ X k G G G G d             ",
"        . = | E.kXKXJXJXJXJXJXJXJXJXJXJXJXJXJXKX[.7 4 F G G D 2             ",
"          ;.gXLXJXJXJXJXJXJXJXJXJXJXJXJXJXJXJXJXCX9.  d G S 5               ",
"          w f.rXHXKXKXKXKXKXKXKXKXKXKXKXKXKXKXKXLXqXU $ d *                 ",
"              L e.I.!.Q.!.~.^./.(._.'.].[.{.}.|..XOX<.                      ",
"                              . . . . . O O O O + + +                       ",
"                                                                            ",
"                                                                            ",
"                                                                            "
};
