/* XPM */
static char *result[] = {
/* columns rows colors chars-per-pixel */
"38 64 237 2 ",
"   c black",
".  c #010000",
"X  c #000001",
"o  c #010101",
"O  c #020100",
"+  c #030100",
"@  c #000102",
"#  c #010202",
"$  c #020202",
"%  c #020303",
"&  c gray1",
"*  c #040100",
"=  c #050100",
"-  c #050200",
";  c #060200",
":  c #070200",
">  c #030304",
",  c #030404",
"<  c #040404",
"1  c gray2",
"2  c #060606",
"3  c #060607",
"4  c #070707",
"5  c #080200",
"6  c #090300",
"7  c #0A0300",
"8  c #0B0300",
"9  c #0C0400",
"0  c #0D0400",
"q  c #0E0400",
"w  c #0F0400",
"e  c #070708",
"r  c gray3",
"t  c #090808",
"y  c #090909",
"u  c gray4",
"i  c #0B0B0B",
"p  c #0C0C0C",
"a  c gray5",
"s  c #0E0E0E",
"d  c #0F0F0E",
"f  c gray6",
"g  c #100500",
"h  c #110500",
"j  c #130500",
"k  c #140600",
"l  c #150600",
"z  c #160600",
"x  c #170700",
"c  c #180700",
"v  c #1B0800",
"b  c #1C0800",
"n  c #1D0800",
"m  c #1D0900",
"M  c #1F0900",
"N  c #101010",
"B  c #111111",
"V  c gray7",
"C  c #131313",
"Z  c gray8",
"A  c #200900",
"S  c #200A00",
"D  c #210A00",
"F  c #230A00",
"G  c #240A00",
"H  c #250B00",
"J  c #260B00",
"K  c #270B00",
"L  c #290C00",
"P  c #2A0C00",
"I  c #2B0C00",
"U  c #2A0D00",
"Y  c #2B0D00",
"T  c #2C0D00",
"R  c #2D0D00",
"E  c #2E0D00",
"W  c #2E0E00",
"Q  c #310E00",
"!  c #320F00",
"~  c #330F00",
"^  c #340F00",
"/  c #350F00",
"(  c #351000",
")  c #371000",
"_  c #381000",
"`  c #391100",
"'  c #3A1100",
"]  c #3B1100",
"[  c #3C1200",
"{  c #3D1200",
"}  c #3E1200",
"|  c #3F1200",
" . c #401300",
".. c #411300",
"X. c #431400",
"o. c #441400",
"O. c #451400",
"+. c #461400",
"@. c #4A1600",
"#. c #4B1600",
"$. c #4C1600",
"%. c #4D1600",
"&. c #4E1700",
"*. c #501700",
"=. c #511800",
"-. c #521800",
";. c #531800",
":. c #541900",
">. c #551900",
",. c #561900",
"<. c #571900",
"1. c #581A00",
"2. c #5B1A00",
"3. c #5D1B00",
"4. c #5E1B00",
"5. c #5F1C00",
"6. c #611C00",
"7. c #621D00",
"8. c #631D00",
"9. c #661E00",
"0. c #691F00",
"q. c #6A1F00",
"w. c #6B1F00",
"e. c #6C2000",
"r. c #6D2000",
"t. c #6E2000",
"y. c #6F2000",
"u. c #702100",
"i. c #712100",
"p. c #732100",
"a. c #752200",
"s. c #762200",
"d. c #792300",
"f. c #7A2400",
"g. c #7C2400",
"h. c #802500",
"j. c #812600",
"k. c #822600",
"l. c #852700",
"z. c #862700",
"x. c #872800",
"c. c #882800",
"v. c #892800",
"b. c #8A2800",
"n. c #8C2900",
"m. c #8D2900",
"M. c #8E2900",
"N. c #8F2A00",
"B. c #902A00",
"V. c #912A00",
"C. c #932B00",
"Z. c #942B00",
"A. c #952C00",
"S. c #962C00",
"D. c #972C00",
"F. c #982C00",
"G. c #992D00",
"H. c #9C2D00",
"J. c #9C2E00",
"K. c #9D2E00",
"L. c #9E2E00",
"P. c #9F2F00",
"I. c #A02F00",
"U. c #A12F00",
"Y. c #A22F00",
"T. c #A32F00",
"R. c #A33000",
"E. c #A43000",
"W. c #A53000",
"Q. c #A63000",
"!. c #A73100",
"~. c #A83100",
"^. c #A93100",
"/. c #AA3100",
"(. c #AB3200",
"). c #AC3200",
"_. c #AE3200",
"`. c #AE3300",
"'. c #B03300",
"]. c #B13400",
"[. c #B43400",
"{. c #B53500",
"}. c #B83600",
"|. c #BC3700",
" X c #BF3800",
".X c #C03800",
"XX c #C13800",
"oX c #C63A00",
"OX c #C73A00",
"+X c #C83A00",
"@X c #C93A00",
"#X c #CE3C00",
"$X c #CF3C00",
"%X c #D13D00",
"&X c #D63E00",
"*X c #D83F00",
"=X c #D93F00",
"-X c #DB4000",
";X c #DC4000",
":X c #DD4000",
">X c #DE4000",
",X c #DE4100",
"<X c #E04100",
"1X c #E14100",
"2X c #E14200",
"3X c #E24200",
"4X c #E34200",
"5X c #E44200",
"6X c #E74300",
"7X c #E84300",
"8X c #E94400",
"9X c #EA4400",
"0X c #EB4400",
"qX c #EC4400",
"wX c #EC4500",
"eX c #ED4500",
"rX c #EE4500",
"tX c #EF4500",
"yX c #F04600",
"uX c #F14600",
"iX c #F24600",
"pX c #F34700",
"aX c #F44700",
"sX c #F54700",
"dX c #F64700",
"fX c #F64800",
"gX c #F84800",
"hX c #F94900",
"jX c #FA4900",
"kX c #FB4900",
"lX c #FC4900",
"zX c #FD4900",
"xX c #FD4A00",
"cX c #FE4A00",
"vX c #FF4A00",
"bX c #FF4B00",
"nX c #FF4C00",
/* pixels */
"                                                                            ",
"                                                                            ",
"                                                                            ",
"                        . O                                                 ",
"                  7 ' p.I.~.I.H.A.N.v.k.g.a.t.q.8.3.<.-.!                   ",
"                ! ].uXbXbXbXbXbXbXbXbXbXbXbXbXvXvXcXcXiX>.* _ 5             ",
"              o.,XbXvXvXvXvXvXvXvXvXvXvXvXvXvXvXvXvXbXD.O =.8Xm.w           ",
"               .[.pXbXvXvXvXvXvXvXvXvXvXvXvXvXvXvXbX$Xm b #XbXvXN.*         ",
"          o $   5 O.!.tXbXvXvXvXvXvXvXvXvXvXvXvXvXiX*.  C.bXvXvXyX}         ",
"          & f u %   = [ J.8XbXbXbXbXbXbXbXbXbXbXbXN.  =.pXvXvXvXbXV.        ",
"          < C Z B i >   O ^ l.G.A.A.C.B.m.b.x.z.d.x n #XbXvXvXvXbX`.+       ",
"          1 C Z Z Z V p <                           m.bXvXvXvXvXbXR..       ",
"          2 Z Z Z Z Z Z N $                       6 .XbXvXvXvXvXbXF.        ",
"          4 Z Z Z Z Z Z B $                       0 OXbXvXvXvXvXbXm.        ",
"          t Z Z Z Z Z Z N o                       h #XbXvXvXvXvXbXj.        ",
"          u Z Z Z Z Z Z f o                       z &XbXvXvXvXvXbXs.        ",
"          i Z Z Z Z Z Z s                         v ;XbXvXvXvXvXvXq.        ",
"          p Z Z Z Z Z Z a                         D 3XbXvXvXvXvXvX5.        ",
"          a Z Z Z Z Z Z p                         K 7XvXvXvXvXvXlX>.        ",
"          s Z Z Z Z Z Z i                         E wXvXvXvXvXvXjX@.        ",
"        o f Z Z Z Z Z Z y                         ( uXvXvXvXvXvXdX .        ",
"        o N Z Z Z Z Z Z r                         { aXvXvXvXvXvXiX)         ",
"        $ B Z Z Z Z Z Z 4                         O.gXvXvXvXvXvXeXW         ",
"        $ V Z Z Z Z Z Z 2                         &.kXvXvXvXvXvX6XJ         ",
"        & V Z Z Z Z Z C 1                         ,.zXvXvXvXvXbX<XM         ",
"        < C Z Z Z Z Z C <                         5.vXvXvXvXvXbX=Xc         ",
"        1 C Z Z Z Z Z V &                         w.bXvXvXvXvXbX%Xj         ",
"        2 Z Z Z Z Z Z d #                         +.2XbXvXvXvXbX+Xq         ",
"        4 Z Z Z Z V u @ * ] :.-.-.-.=.*.&.%.#.@.J   Q '.lXbXvXbX.X6         ",
"        2 V Z C a ,   H A.tXxXlXlXlXlXkXkXjXjXjX;X9.; 7 u.4XbXnX).*         ",
"          1 p 4 X q 0.=XbXvXvXvXvXvXvXvXvXvXvXvXbXjXQ.L   ^ {.%X_           ",
"              * X.}.lXbXvXvXvXvXvXvXvXvXvXvXvXvXvXvXbX-X6.- w S             ",
"              g Z.sXbXvXvXvXvXvXvXvXvXvXvXvXvXvXvXvXvXbXzXJ.l               ",
"            o   : X./.iXbXbXbXbXbXvXvXvXvXvXvXvXvXbXcX1XY.:.7               ",
"        o r N i ,   ; O.E.oX#X&X:X5X9XyXaXgXkXxXwX{.9.D   0 o.M.@.          ",
"        2 C Z Z V p ,   + 9 g z b F Y ~ [ +.*.1.~ - ; ( h.@XsXnX}.5         ",
"        r Z Z Z Z Z V i o                       + 8.|.tXbXbXvXbX X6         ",
"        r Z Z Z Z Z Z V &                       k &XnXvXvXvXvXbX{.-         ",
"        r Z Z Z Z Z Z B $                       c =XbXvXvXvXvXbX).+         ",
"        y Z Z Z Z Z Z B $                       m ,XbXvXvXvXvXbXT..         ",
"        y Z Z Z Z Z Z B $                       D 3XbXvXvXvXvXbXG.          ",
"        y Z Z Z Z Z Z N o                       K 6XvXvXvXvXvXbXN.          ",
"        u Z Z Z Z Z Z f o                       T 0XvXvXvXvXvXbXl.          ",
"        u Z Z Z Z Z Z f o                       ! tXvXvXvXvXvXbXf.          ",
"        u Z Z Z Z Z Z s                         ) iXvXvXvXvXvXbXi.          ",
"        i Z Z Z Z Z Z s                         | sXvXvXvXvXvXvX9.          ",
"        i Z Z Z Z Z Z a                         o.gXvXvXvXvXvXcX3.          ",
"        i Z Z Z Z Z Z p                         $.jXvXvXvXvXvXlX;.          ",
"        p Z Z Z Z Z Z p                         -.lXvXvXvXvXvXhX@.          ",
"        p Z Z Z Z Z Z i                         2.cXvXvXvXvXvXfX..          ",
"        p Z Z Z Z Z Z u                         6.vXvXvXvXvXvXpX`           ",
"        a Z Z Z Z Z Z u                         q.vXvXvXvXvXvXrXQ           ",
"        a Z Z Z Z Z N 1                         e.bXvXvXvXvXvX8XP           ",
"        a Z Z Z f e @ . M L L P I Y T R R R U ; T <XbXvXvXvXbX:Xb           ",
"        s Z f 4 X . Q V.>X8X8X9X9X0X0XqXwXwX0Xr.  i.xXvXvXvXbXXX8           ",
"        y 3 X O / S.7XbXbXvXvXvXvXvXvXvXvXvXbX<XR q |.bXvXvXbXn.            ",
"          : ' H.9XbXvXvXvXvXvXvXvXvXvXvXvXvXvXbX!.= X.tXvXbX4X(             ",
"          &.6XnXvXvXvXvXvXvXvXvXvXvXvXvXvXvXvXvXgX4.  B.bX*X@.              ",
"          9 y.:XcXbXbXbXbXbXbXbXbXbXbXbXbXbXbXbXnX=XG A c.Y                 ",
"              F 7.A.L.K.L.P.I.U.Y.R.W.Q.!.~.^./.(._.-.                      ",
"                              . . . . . O O O O + + +                       ",
"                                                                            ",
"                                                                            ",
"                                                                            "
};
