/* XPM */
static char *result[] = {
/* columns rows colors chars-per-pixel */
"38 64 225 2 ",
"   c black",
".  c #010000",
"X  c #000001",
"o  c #010101",
"O  c #020000",
"+  c #020100",
"@  c #030100",
"#  c #000102",
"$  c #000202",
"%  c #010203",
"&  c #020202",
"*  c gray1",
"=  c #040100",
"-  c #050100",
";  c #050200",
":  c #060200",
">  c #070200",
",  c #020304",
"<  c #030404",
"1  c #040404",
"2  c #040505",
"3  c gray2",
"4  c #060606",
"5  c #060707",
"6  c #070707",
"7  c #080200",
"8  c #090300",
"9  c #0A0300",
"0  c #0B0300",
"q  c #0C0400",
"w  c #0D0400",
"e  c #0E0400",
"r  c #0F0400",
"t  c #0F0500",
"y  c gray3",
"u  c #090909",
"i  c gray4",
"p  c #0B0B0B",
"a  c #0C0C0C",
"s  c gray5",
"d  c #0E0E0E",
"f  c gray6",
"g  c #100500",
"h  c #110500",
"j  c #130500",
"k  c #140600",
"l  c #150600",
"z  c #160600",
"x  c #160700",
"c  c #180700",
"v  c #1B0800",
"b  c #1C0800",
"n  c #1D0900",
"m  c #1E0900",
"M  c #1F0900",
"N  c #101010",
"B  c #111111",
"V  c gray7",
"C  c #131313",
"Z  c gray8",
"A  c #151515",
"S  c #200A00",
"D  c #210A00",
"F  c #220A00",
"G  c #230A00",
"H  c #260B00",
"J  c #270B00",
"K  c #280C00",
"L  c #290C00",
"P  c #2A0C00",
"I  c #2B0D00",
"U  c #2C0D00",
"Y  c #2D0D00",
"T  c #2E0D00",
"R  c #2E0E00",
"E  c #310E00",
"W  c #320F00",
"Q  c #330F00",
"!  c #340F00",
"~  c #351000",
"^  c #371000",
"/  c #381000",
"(  c #391100",
")  c #3B1100",
"_  c #3C1200",
"`  c #3D1200",
"'  c #3E1200",
"]  c #3F1200",
"[  c #401300",
"{  c #411300",
"}  c #421300",
"|  c #431400",
" . c #441400",
".. c #451400",
"X. c #461400",
"o. c #471500",
"O. c #4A1600",
"+. c #4B1600",
"@. c #4C1600",
"#. c #4D1600",
"$. c #4D1700",
"%. c #4E1700",
"&. c #501700",
"*. c #501800",
"=. c #511800",
"-. c #521800",
";. c #531800",
":. c #541900",
">. c #551900",
",. c #561900",
"<. c #581A00",
"1. c #591A00",
"2. c #5B1A00",
"3. c #5B1B00",
"4. c #5D1B00",
"5. c #5E1B00",
"6. c #5E1C00",
"7. c #5F1C00",
"8. c #611C00",
"9. c #631D00",
"0. c #661E00",
"q. c #691F00",
"w. c #6A1F00",
"e. c #6B1F00",
"r. c #6B2000",
"t. c #6C2000",
"y. c #702100",
"u. c #712100",
"i. c #762200",
"p. c #772300",
"a. c #7A2400",
"s. c #7B2400",
"d. c #7C2400",
"f. c #802500",
"g. c #812600",
"h. c #852700",
"j. c #862700",
"k. c #882800",
"l. c #892800",
"z. c #8C2900",
"x. c #8D2900",
"c. c #8E2900",
"v. c #8F2A00",
"b. c #912A00",
"n. c #932B00",
"m. c #942B00",
"M. c #952B00",
"N. c #952C00",
"B. c #982C00",
"V. c #992D00",
"C. c #9C2E00",
"Z. c #9F2E00",
"A. c #A22F00",
"S. c #A32F00",
"D. c #A33000",
"F. c #A43000",
"G. c #A63000",
"H. c #AA3100",
"J. c #AA3200",
"K. c #AC3200",
"L. c #AE3300",
"P. c #B03300",
"I. c #B13300",
"U. c #B33400",
"Y. c #B53500",
"T. c #B83600",
"R. c #BC3700",
"E. c #BE3700",
"W. c #BF3800",
"Q. c #C03800",
"!. c #C13800",
"~. c #C63A00",
"^. c #C73A00",
"/. c #C83A00",
"(. c #C93A00",
"). c #C93B00",
"_. c #CC3B00",
"`. c #CE3C00",
"'. c #D13D00",
"]. c #D23D00",
"[. c #D53E00",
"{. c #D63E00",
"}. c #D83F00",
"|. c #D93F00",
" X c #DB4000",
".X c #DC4000",
"XX c #DD4000",
"oX c #DE4100",
"OX c #DF4100",
"+X c #E04100",
"@X c #E14100",
"#X c #E14200",
"$X c #E24200",
"%X c #E34200",
"&X c #E44200",
"*X c #E54300",
"=X c #E64300",
"-X c #E74300",
";X c #E84300",
":X c #E94400",
">X c #EA4400",
",X c #EB4400",
"<X c #EC4500",
"1X c #ED4500",
"2X c #EE4500",
"3X c #EF4500",
"4X c #F04600",
"5X c #F14600",
"6X c #F24600",
"7X c #F34700",
"8X c #F44700",
"9X c #F54700",
"0X c #F64700",
"qX c #F64800",
"wX c #F74800",
"eX c #F84800",
"rX c #FA4900",
"tX c #FB4900",
"yX c #FC4900",
"uX c #FD4900",
"iX c #FD4A00",
"pX c #FE4A00",
"aX c #FF4A00",
"sX c #FF4B00",
"dX c #FF4C00",
/* pixels */
"                                                                            ",
"                                                                            ",
"                                                                            ",
"                                                                            ",
"                  o 3 u s s s a a p p i i u u y y 6 6 4 1                   ",
"                1 d C Z Z Z Z Z Z Z Z Z Z Z Z Z Z Z Z C 5 > / 7             ",
"              3 B Z Z Z Z Z Z Z Z Z Z Z Z Z Z Z Z Z Z a   =.:Xx.r           ",
"              3 d C Z Z Z Z Z Z Z Z Z Z Z Z Z Z Z Z N $ m `.sXaXv.-         ",
"          7 k   X 3 s C Z Z Z Z Z Z Z Z Z Z Z Z Z C 4 @ n.sXaXaX4X'         ",
"          I Q.a.G     2 a V Z Z Z Z Z Z Z Z Z Z Z p   =.7XaXaXaXsXb.        ",
"          ^ 8XsXXXk.T .   1 i a a a p p p p p p i # M `.sXaXaXaXsXL.@       ",
"          | wXaXsXsX=XB./ @                       . x.sXaXaXaXaXsXD..       ",
"          *.tXaXaXaXaXdX].c                       8 Q.sXaXaXaXaXsXB.        ",
"          6.pXaXaXaXaXsX[.l                       w ^.sXaXaXaXaXsXx.        ",
"          t.sXaXaXaXaXsX).e                       h `.sXaXaXaXaXsXg.        ",
"          s.sXaXaXaXaXsXE.8                       z {.sXaXaXaXaXsXi.        ",
"          l.sXaXaXaXaXsXI.=                       v .XsXaXaXaXaXaXw.        ",
"          B.sXaXaXaXaXsXD..                       D $XsXaXaXaXaXaX7.        ",
"        . G.sXaXaXaXaXsXM.                        J -XaXaXaXaXaXyX>.        ",
"        ; U.sXaXaXaXaXsXj.                        T <XaXaXaXaXaXrXO.        ",
"        9 Q.sXaXaXaXaXsXp.                        ~ 5XaXaXaXaXaX0X[         ",
"        t _.sXaXaXaXaXaXq.                        ` 8XaXaXaXaXaX6X^         ",
"        x {.sXaXaXaXaXpX3.                        ..eXaXaXaXaXaX1XR         ",
"        m +XsXaXaXaXaXrX$.                        %.tXaXaXaXaXaX-XH         ",
"        K ;XaXaXaXaXaX0X[                         ,.uXaXaXaXaXsX+XM         ",
"        W 3XaXaXaXaXaX4X!                         7.aXaXaXaXaXsX|.c         ",
"        ' 9XaXaXaXaXaX<XP                         e.sXaXaXaXaXsX'.j         ",
"        O.rXaXaXaXsXaXT.k                         X.#XsXaXaXaXsX/.e         ",
"        1.aXaXaXsX*Xd.k @ ) :.-.-.-.=.&.%.#.+.O.H   E P.yXsXaXsXQ.8         ",
"        o.:XsXeXJ.Q   G N.3XiXyXyXyXyXtXtXrXrXrX.X0.: 9 y.%XsXdXK.=         ",
"        @ _ Z.5.: 0 q.|.sXaXaXaXaXaXaXaXaXaXaXaXsXrXG.L   ! Y.'./           ",
"            + + } T.yXsXaXaXaXaXaXaXaXaXaXaXaXaXaXaXsX X8.; r S             ",
"              g m.9XsXaXaXaXaXaXaXaXaXaXaXaXaXaXaXaXaXsXuXC.l               ",
"            o   > | H.6XsXsXsXsXsXaXaXaXaXaXaXaXaXsXpX@XA.:.9               ",
"        o y N p <   : ..F.~.`.{.XX&X>X4X8XeXtXiX<XY.0.D   w  .c.O.          ",
"        4 C Z Z V a <   @ q g z b G I Q _ ..&.<.Q ; : ~ f.(.9XdXT.7         ",
"        y Z Z Z Z Z V p o                       @ 9.R.3XsXsXaXsXW.8         ",
"        y Z Z Z Z Z Z V *                       k {.dXaXaXaXaXsXY.;         ",
"        y Z Z Z Z Z Z B &                       c |.sXaXaXaXaXsXK.@         ",
"        u Z Z Z Z Z Z B &                       n oXsXaXaXaXaXsXS..         ",
"        u Z Z Z Z Z Z B &                       D $XsXaXaXaXaXsXV.          ",
"        u Z Z Z Z Z Z N o                       J -XaXaXaXaXaXsXv.          ",
"        i Z Z Z Z Z Z f o                       U ,XaXaXaXaXaXsXh.          ",
"        i Z Z Z Z Z Z f o                       W 3XaXaXaXaXaXsXa.          ",
"        i Z Z Z Z Z Z d                         ^ 6XaXaXaXaXaXsXu.          ",
"        p Z Z Z Z Z Z d                         ] 9XaXaXaXaXaXaX0.          ",
"        p Z Z Z Z Z Z s                          .eXaXaXaXaXaXpX4.          ",
"        p Z Z Z Z Z Z a                         @.rXaXaXaXaXaXyX;.          ",
"        a Z Z Z Z Z Z a                         -.yXaXaXaXaXaXrXO.          ",
"        a Z Z Z Z Z Z p                         2.pXaXaXaXaXaXqX{           ",
"        a Z Z Z Z Z Z i                         8.aXaXaXaXaXaX7X(           ",
"        s Z Z Z Z Z Z i                         w.aXaXaXaXaXaX2XE           ",
"        s Z Z Z Z Z N 3                         r.sXaXaXaXaXaX:XP           ",
"        s Z Z Z f y o   & * * * * * * * 1 1 * X Y OXsXaXaXaXsXXXb           ",
"        d Z f 6 o   1 p B V V V V V V V C C V u   u.iXaXaXaXsX!.0           ",
"        u 4 o   1 a V Z Z Z Z Z Z Z Z Z Z Z Z V , h R.sXaXaXsXz.            ",
"            1 a V Z Z Z Z Z Z Z Z Z Z Z Z Z Z Z s X  .3XaXsX%X~             ",
"          4 V Z Z Z Z Z Z Z Z Z Z Z Z Z Z Z Z Z C 6 O v.sX}.O.              ",
"          o u B Z Z Z Z Z Z Z Z Z Z Z Z Z Z Z Z A B % F k.I                 ",
"              * y a s a s s s s s s s s s s s s s d 4                       ",
"                                                                            ",
"                                                                            ",
"                                                                            ",
"                                                                            "
};
