/* XPM */
static char *result[] = {
/* columns rows colors chars-per-pixel */
"38 64 235 2 ",
"   c black",
".  c #010000",
"X  c #000001",
"o  c #000101",
"O  c #010101",
"+  c #020100",
"@  c #030100",
"#  c #000102",
"$  c #000202",
"%  c #010202",
"&  c #020202",
"*  c gray1",
"=  c #040100",
"-  c #050100",
";  c #050200",
":  c #060200",
">  c #070200",
",  c #030404",
"<  c #040404",
"1  c gray2",
"2  c #060606",
"3  c #070707",
"4  c #080200",
"5  c #090200",
"6  c #090300",
"7  c #0A0300",
"8  c #0B0300",
"9  c #0C0400",
"0  c #0D0400",
"q  c #0E0400",
"w  c #0F0500",
"e  c #070708",
"r  c gray3",
"t  c #090909",
"y  c gray4",
"u  c #0B0B0B",
"i  c #0C0C0C",
"p  c gray5",
"a  c #0E0E0E",
"s  c gray6",
"d  c #100500",
"f  c #140600",
"g  c #150600",
"h  c #160600",
"j  c #160700",
"k  c #180700",
"l  c #190700",
"z  c #1C0800",
"x  c #1D0800",
"c  c #1E0900",
"v  c #1F0900",
"b  c #101010",
"n  c #111111",
"m  c gray7",
"M  c #131313",
"N  c gray8",
"B  c #200900",
"V  c #210A00",
"C  c #230A00",
"Z  c #240A00",
"A  c #260B00",
"S  c #270B00",
"D  c #280C00",
"F  c #290C00",
"G  c #2A0C00",
"H  c #2B0C00",
"J  c #2A0D00",
"K  c #2B0D00",
"L  c #2C0D00",
"P  c #2D0D00",
"I  c #310E00",
"U  c #320F00",
"Y  c #330F00",
"T  c #340F00",
"R  c #350F00",
"E  c #351000",
"W  c #371000",
"Q  c #381000",
"!  c #391100",
"~  c #3A1100",
"^  c #3B1100",
"/  c #3C1200",
"(  c #3E1200",
")  c #3F1200",
"_  c #401300",
"`  c #411300",
"'  c #421300",
"]  c #431400",
"[  c #441400",
"{  c #451400",
"}  c #471500",
"|  c #4A1600",
" . c #4B1600",
".. c #4C1600",
"X. c #4D1600",
"o. c #4D1700",
"O. c #4E1700",
"+. c #501700",
"@. c #511800",
"#. c #521800",
"$. c #531800",
"%. c #541900",
"&. c #551900",
"*. c #571900",
"=. c #581A00",
"-. c #591A00",
";. c #5A1A00",
":. c #5B1B00",
">. c #5D1B00",
",. c #5E1B00",
"<. c #611C00",
"1. c #621D00",
"2. c #631D00",
"3. c #661E00",
"4. c #691F00",
"5. c #6A1F00",
"6. c #6B2000",
"7. c #6C2000",
"8. c #6D2000",
"9. c #6E2000",
"0. c #6F2000",
"q. c #712100",
"w. c #722100",
"e. c #752200",
"r. c #772300",
"t. c #792300",
"y. c #7A2400",
"u. c #7B2400",
"i. c #7C2400",
"p. c #802500",
"a. c #822600",
"s. c #852700",
"d. c #862700",
"f. c #872800",
"g. c #882800",
"h. c #892800",
"j. c #8A2800",
"k. c #8C2900",
"l. c #8D2900",
"z. c #8E2900",
"x. c #8F2A00",
"c. c #902A00",
"v. c #912A00",
"b. c #932B00",
"n. c #942B00",
"m. c #952B00",
"M. c #952C00",
"N. c #962C00",
"B. c #972C00",
"V. c #982C00",
"C. c #992D00",
"Z. c #9C2D00",
"A. c #9C2E00",
"S. c #9D2E00",
"D. c #9E2E00",
"F. c #9F2E00",
"G. c #9F2F00",
"H. c #A02F00",
"J. c #A12F00",
"K. c #A22F00",
"L. c #A32F00",
"P. c #A33000",
"I. c #A43000",
"U. c #A63000",
"Y. c #A73100",
"T. c #A83100",
"R. c #A93100",
"E. c #AA3100",
"W. c #AA3200",
"Q. c #AB3200",
"!. c #AC3200",
"~. c #AE3200",
"^. c #B13400",
"/. c #B33400",
"(. c #B43400",
"). c #B53500",
"_. c #B83600",
"`. c #B93600",
"'. c #BC3700",
"]. c #BE3700",
"[. c #BF3800",
"{. c #C03800",
"}. c #C13800",
"|. c #C63A00",
" X c #C93A00",
".X c #CA3B00",
"XX c #CB3B00",
"oX c #CE3C00",
"OX c #CF3C00",
"+X c #D23D00",
"@X c #D53E00",
"#X c #D63E00",
"$X c #D83F00",
"%X c #D93F00",
"&X c #DB4000",
"*X c #DC4000",
"=X c #DD4000",
"-X c #DE4000",
";X c #DE4100",
":X c #DF4100",
">X c #E04100",
",X c #E14100",
"<X c #E24200",
"1X c #E34200",
"2X c #E44200",
"3X c #E54300",
"4X c #E64300",
"5X c #E74300",
"6X c #E84300",
"7X c #E94400",
"8X c #EA4400",
"9X c #EB4400",
"0X c #EC4400",
"qX c #EC4500",
"wX c #EE4500",
"eX c #EF4500",
"rX c #F04600",
"tX c #F14600",
"yX c #F24600",
"uX c #F34700",
"iX c #F44700",
"pX c #F54700",
"aX c #F64700",
"sX c #F64800",
"dX c #F74800",
"fX c #F84800",
"gX c #FA4900",
"hX c #FB4900",
"jX c #FC4900",
"kX c #FD4900",
"lX c #FD4A00",
"zX c #FE4A00",
"xX c #FF4A00",
"cX c #FF4B00",
"vX c #FF4C00",
/* pixels */
"                                                                            ",
"                                                                            ",
"                                                                            ",
"                        . +                                                 ",
"                  7 ~ w.H.T.H.Z.M.x.h.a.i.e.9.5.2.>.*.#.U                   ",
"                U ^.tXcXcXcXcXcXcXcXcXcXcXcXcXxXxXzXzXyX&.X < O             ",
"              [ ;XcXxXxXxXxXxXxXxXxXxXxXxXxXxXxXxXxXcXB.- 2 m u O           ",
"              _ (.uXcXxXxXxXxXxXxXxXxXxXxXxXxXxXxXcXOXv $ b N N u           ",
"          4 f   : { Y.eXcXxXxXxXxXxXxXxXxXxXxXxXxXyX+.  u N N N M 1         ",
"          G {.y.C   @ ^ A.7XcXcXcXcXcXcXcXcXcXcXcXx.@ 2 M N N N N u         ",
"          W iXcX=Xg.P     Y s.C.M.M.b.c.l.j.f.d.t.l % b N N N N N a         ",
"          ] dXxXcXcX4XV.Q                           u N N N N N N p         ",
"          +.hXxXxXxXxXvX+Xk                       O s N N N N N N i         ",
"          ,.zXxXxXxXxXcX@Xg                       O b N N N N N N u         ",
"          7.cXxXxXxXxXcX.Xq                       O b N N N N N N y         ",
"          u.cXxXxXxXxXcX].6                       & n N N N N N N t         ",
"          h.cXxXxXxXxXcX^.=                       & n N N N N N N r         ",
"          V.cXxXxXxXxXcXP..                       * m N N N N N N 3         ",
"        . U.cXxXxXxXxXcXm.                        * m N N N N N N 3         ",
"        - /.cXxXxXxXxXcXd.                        < M N N N N N N 2         ",
"        7 {.cXxXxXxXxXcXr.                        < M N N N N N M 1         ",
"        w XXcXxXxXxXxXxX4.                        1 M N N N N N M <         ",
"        j #XcXxXxXxXxXzX:.                        1 M N N N N N M <         ",
"        c >XcXxXxXxXxXgXo.                        2 N N N N N N m *         ",
"        D 6XxXxXxXxXxXaX_                         3 N N N N N N m &         ",
"        U eXxXxXxXxXxXrXT                         r N N N N N N n &         ",
"        ( pXxXxXxXxXxXqXG                         r N N N N N N b O         ",
"        | gXxXxXxXcXxX`.f                         1 m N N N N N b O         ",
"        -.xXxXxXcX3Xi.f @ ^ %.#.#.#.@.+.O.X. .| A   , a N N N N s O         ",
"        } 7XcXfXW.Y   C M.eXlXjXjXjXjXhXhXgXgXgX*X3.5 X t m N N a           ",
"        @ / F.,.: 8 4.%XcXxXxXxXxXxXxXxXxXxXxXxXcXgXU.G   , a b <           ",
"            + + ' _.jXcXxXxXxXxXxXxXxXxXxXxXxXxXxXxXcX&X1.4 o *             ",
"              d n.pXcXxXxXxXxXxXxXxXxXxXxXxXxXxXxXxXxXcXkXA.h               ",
"            O   > ] E.yXcXcXcXcXcXxXxXxXxXxXxXxXxXcXzX,XK.%.7               ",
"        O r b u ,   : { I.|.oX#X=X2X8XrXiXfXhXlXqX).3.V   0 [ z.|           ",
"        2 M N N m i ,   @ 9 d h z C K Y / { +.=.Y ; : E p. XpXvX_.4         ",
"        r N N N N N m u O                       @ 2.'.eXcXcXxXcX[.6         ",
"        r N N N N N N m *                       f #XvXxXxXxXxXcX).:         ",
"        r N N N N N N n &                       k %XcXxXxXxXxXcX!.@         ",
"        t N N N N N N n &                       x ;XcXxXxXxXxXcXL..         ",
"        t N N N N N N n &                       V <XcXxXxXxXxXcXC.          ",
"        t N N N N N N b O                       S 5XxXxXxXxXxXcXx.          ",
"        y N N N N N N s O                       L 9XxXxXxXxXxXcXs.          ",
"        y N N N N N N s O                       U eXxXxXxXxXxXcXy.          ",
"        y N N N N N N a                         W yXxXxXxXxXxXcXq.          ",
"        u N N N N N N a                         ) pXxXxXxXxXxXxX3.          ",
"        u N N N N N N p                         [ fXxXxXxXxXxXzX>.          ",
"        u N N N N N N i                         ..gXxXxXxXxXxXjX$.          ",
"        i N N N N N N i                         #.jXxXxXxXxXxXgX|           ",
"        i N N N N N N u                         ;.zXxXxXxXxXxXsX`           ",
"        i N N N N N N y                         <.xXxXxXxXxXxXuX!           ",
"        p N N N N N N y                         5.xXxXxXxXxXxXwXI           ",
"        p N N N N N b 1                         6.cXxXxXxXxXxX8XG           ",
"        p N N N s e # . v F F G H K L P P P J : L :XcXxXxXxXcX=Xz           ",
"        a N s 3 X . I v.-X7X7X8X8X9X9X0XqXqX9X8.  q.lXxXxXxXcX}.8           ",
"        t 2 X + R N.6XcXcXxXxXxXxXxXxXxXxXxXcX>XP q '.cXxXxXcXk.            ",
"          > ~ Z.8XcXxXxXxXxXxXxXxXxXxXxXxXxXxXcXY.- ] eXxXcX1XE             ",
"          O.5XvXxXxXxXxXxXxXxXxXxXxXxXxXxXxXxXxXfX,.  x.cX$X|               ",
"          9 0.=XzXcXcXcXcXcXcXcXcXcXcXcXcXcXcXcXvX%XZ B g.K                 ",
"              C 1.M.D.S.D.G.H.J.K.P.I.U.Y.T.R.E.Q.~.#.                      ",
"                              . . . . . + + + + @ @ @                       ",
"                                                                            ",
"                                                                            ",
"                                                                            "
};
