/* XPM */
static char *result[] = {
/* columns rows colors chars-per-pixel */
"38 64 256 2 ",
"   c black",
".  c #010000",
"X  c #000001",
"o  c #000101",
"O  c #010101",
"+  c #020100",
"@  c #030100",
"#  c #000202",
"$  c #010202",
"%  c #020202",
"&  c gray1",
"*  c #040100",
"=  c #050100",
"-  c #050200",
";  c #060200",
":  c #070200",
">  c #030404",
",  c #040404",
"<  c gray2",
"1  c #060606",
"2  c #070707",
"3  c #080200",
"4  c #080300",
"5  c #090300",
"6  c #0A0300",
"7  c #0B0300",
"8  c #0C0300",
"9  c #0C0400",
"0  c #0D0400",
"q  c #0E0400",
"w  c #0F0500",
"e  c gray3",
"r  c #090909",
"t  c gray4",
"y  c #0B0B0B",
"u  c #0C0C0C",
"i  c gray5",
"p  c #0E0E0E",
"a  c gray6",
"s  c #100500",
"d  c #110500",
"f  c #140600",
"g  c #150600",
"h  c #160600",
"j  c #160700",
"k  c #180700",
"l  c #190700",
"z  c #1C0800",
"x  c #1D0900",
"c  c #1E0900",
"v  c #1F0900",
"b  c #101010",
"n  c #111111",
"m  c gray7",
"M  c #131313",
"N  c gray8",
"B  c #200900",
"V  c #210A00",
"C  c #230A00",
"Z  c #240A00",
"A  c #260B00",
"S  c #270B00",
"D  c #280C00",
"F  c #290C00",
"G  c #2A0C00",
"H  c #2B0C00",
"J  c #2A0D00",
"K  c #2B0D00",
"L  c #2C0D00",
"P  c #2D0D00",
"I  c #2F0E00",
"U  c #300E00",
"Y  c #310E00",
"T  c #320F00",
"R  c #330F00",
"E  c #340F00",
"W  c #351000",
"Q  c #371000",
"!  c #381000",
"~  c #391100",
"^  c #3A1100",
"/  c #3B1100",
"(  c #3C1200",
")  c #3E1200",
"_  c #3F1200",
"`  c #401300",
"'  c #411300",
"]  c #421300",
"[  c #431400",
"{  c #441400",
"}  c #451400",
"|  c #461400",
" . c #471500",
".. c #4A1600",
"X. c #4B1600",
"o. c #4C1600",
"O. c #4D1600",
"+. c #4D1700",
"@. c #4E1700",
"#. c #501700",
"$. c #501800",
"%. c #511800",
"&. c #521800",
"*. c #531800",
"=. c #541900",
"-. c #551900",
";. c #571900",
":. c #581A00",
">. c #591A00",
",. c #5B1A00",
"<. c #5B1B00",
"1. c #5D1B00",
"2. c #5E1B00",
"3. c #601C00",
"4. c #611C00",
"5. c #621D00",
"6. c #631D00",
"7. c #641D00",
"8. c #661E00",
"9. c #691F00",
"0. c #6A1F00",
"q. c #6B2000",
"w. c #6C2000",
"e. c #6D2000",
"r. c #6E2000",
"t. c #6F2000",
"y. c #712100",
"u. c #722100",
"i. c #742200",
"p. c #752200",
"a. c #762300",
"s. c #782300",
"d. c #792300",
"f. c #7A2400",
"g. c #7B2400",
"h. c #7C2400",
"j. c #802500",
"k. c #812500",
"l. c #812600",
"z. c #822600",
"x. c #852700",
"c. c #862700",
"v. c #872800",
"b. c #882800",
"n. c #892800",
"m. c #8A2800",
"M. c #8C2900",
"N. c #8D2900",
"B. c #8E2900",
"V. c #8F2A00",
"C. c #902A00",
"Z. c #912A00",
"A. c #922B00",
"S. c #932B00",
"D. c #942B00",
"F. c #952B00",
"G. c #952C00",
"H. c #962C00",
"J. c #972C00",
"K. c #982C00",
"L. c #992D00",
"P. c #9C2D00",
"I. c #9C2E00",
"U. c #9D2E00",
"Y. c #9E2E00",
"T. c #9F2E00",
"R. c #9F2F00",
"E. c #A02F00",
"W. c #A12F00",
"Q. c #A22F00",
"!. c #A32F00",
"~. c #A33000",
"^. c #A43000",
"/. c #A53000",
"(. c #A63000",
"). c #A73100",
"_. c #A83100",
"`. c #A93100",
"'. c #AA3100",
"]. c #AA3200",
"[. c #AB3200",
"{. c #AC3200",
"}. c #AE3200",
"|. c #AE3300",
" X c #B13400",
".X c #B23400",
"XX c #B33400",
"oX c #B43400",
"OX c #B53500",
"+X c #B83600",
"@X c #B93600",
"#X c #BA3600",
"$X c #BC3700",
"%X c #BD3700",
"&X c #BE3700",
"*X c #BF3800",
"=X c #C03800",
"-X c #C13800",
";X c #C23800",
":X c #C53900",
">X c #C63A00",
",X c #C93A00",
"<X c #C93B00",
"1X c #CA3B00",
"2X c #CB3B00",
"3X c #CC3B00",
"4X c #CE3C00",
"5X c #CF3C00",
"6X c #D23D00",
"7X c #D33D00",
"8X c #D53E00",
"9X c #D63E00",
"0X c #D83F00",
"qX c #D93F00",
"wX c #DB4000",
"eX c #DC4000",
"rX c #DD4000",
"tX c #DE4000",
"yX c #DE4100",
"uX c #DF4100",
"iX c #E04100",
"pX c #E14100",
"aX c #E24200",
"sX c #E34200",
"dX c #E44200",
"fX c #E54300",
"gX c #E64300",
"hX c #E74300",
"jX c #E84300",
"kX c #E94400",
"lX c #EA4400",
"zX c #EB4400",
"xX c #EC4400",
"cX c #EC4500",
"vX c #EE4500",
"bX c #EF4500",
"nX c #F04600",
"mX c #F14600",
"MX c #F24600",
"NX c #F34700",
"BX c #F44700",
"VX c #F54700",
"CX c #F64700",
"ZX c #F64800",
"AX c #F74800",
"SX c #F84800",
"DX c #F94800",
"FX c #FA4900",
"GX c #FB4900",
"HX c #FC4900",
"JX c #FD4900",
"KX c #FD4A00",
"LX c #FE4A00",
"PX c #FF4A00",
"IX c #FF4B00",
"UX c #FF4C00",
/* pixels */
"                                                                            ",
"                                                                            ",
"                                                                            ",
"                        . +                                                 ",
"                  6 ^ u.E._.E.P.G.V.n.z.h.p.r.0.6.1.;.&.T                   ",
"                T  XmXIXIXIXIXIXIXIXIXIXIXIXIXPXPXLXLXMX-.X , O             ",
"              { yXIXPXPXPXPXPXPXPXPXPXPXPXPXPXPXPXPXIXJ.= 1 m y O           ",
"              ` oXNXIXPXPXPXPXPXPXPXPXPXPXPXPXPXPXIX5Xv # b N N y           ",
"          3 f   ; } ).bXIXPXPXPXPXPXPXPXPXPXPXPXPXMX#.  u N N N M <         ",
"          G =Xf.C   @ / I.kXIXIXIXIXIXIXIXIXIXIXIXV.@ 1 M N N N N y         ",
"          Q BXIXrXb.P     R x.L.G.G.S.C.N.m.v.c.d.l $ b N N N N N p         ",
"          [ AXPXIXIXgXK.!                           y N N N N N N i         ",
"          $.GXPXPXPXPXUX6Xk                       O a N N N N N N u         ",
"          2.LXPXPXPXPXIX8Xg                       O b N N N N N N y         ",
"          w.IXPXPXPXPXIX1Xq                       O b N N N N N N t         ",
"          g.IXPXPXPXPXIX&X5                       % n N N N N N N r         ",
"          n.IXPXPXPXPXIX X*                       % n N N N N N N e         ",
"          K.IXPXPXPXPXIX~..                       & m N N N N N N 2         ",
"        . (.IXPXPXPXPXIXF.                        & m N N N N N N 2         ",
"        = XXIXPXPXPXPXIXc.                        , M N N N N N N 1         ",
"        6 =XIXPXPXPXPXIXs.                        , M N N N N N M <         ",
"        w 2XIXPXPXPXPXPX9.                        < M N N N N N M ,         ",
"        j 9XIXPXPXPXPXLX<.                        < M N N N N N M ,         ",
"        c iXIXPXPXPXPXFX+.                        1 N N N N N N m &         ",
"        D jXPXPXPXPXPXCX`                         2 N N N N N N m %         ",
"        T bXPXPXPXPXPXnXE                         e N N N N N N n %         ",
"        ) VXPXPXPXPXPXcXG                         e N N N N N N b O         ",
"        ..FXPXPXPXIXPX@Xf                         < m N N N N N b O         ",
"        >.PXPXPXIXfXh.f @ / =.&.&.&.%.#.@.O.X...A   > p N N N N a O         ",
"         .kXIXSX].R   C G.bXKXHXHXHXHXGXGXFXFXFXeX8.5 X r m N N i           ",
"        @ ( T.2.; 7 9.qXIXPXPXPXPXPXPXPXPXPXPXPXIXFX(.G   > p b ,           ",
"            + + ] +XHXIXPXPXPXPXPXPXPXPXPXPXPXPXPXPXIXwX5.3 o &             ",
"              s D.VXIXPXPXPXPXPXPXPXPXPXPXPXPXPXPXPXPXIXJXI.h               ",
"            d . * [ '.MXIXIXIXIXIXPXPXPXPXPXPXPXPXIXLXpXQ.=.6               ",
"        : 4.1XA.U   * } ^.>X4X9XrXdXlXnXBXSXGXKXcXOX8.V   0 { B...          ",
"        @.VXIXIXhXF.R   + 9 s h z C K R ( | $.:.R - ; W j.,XVXUX+X3         ",
"        7.PXPXPXPXIXlXZ.s                       @ 6.$XbXIXIXPXIX*X5         ",
"        8.PXPXPXPXPXIXhXC                       f 9XUXPXPXPXPXIXOX;         ",
"        9.PXPXPXPXPXIXuXc                       k qXIXPXPXPXPXIX{.@         ",
"        t.IXPXPXPXPXIXqXk                       x yXIXPXPXPXPXIX!..         ",
"        i.IXPXPXPXPXIX7Xf                       V aXIXPXPXPXPXIXL.          ",
"        a.IXPXPXPXPXIX3Xw                       S hXPXPXPXPXPXIXV.          ",
"        g.IXPXPXPXPXIX:X8                       L zXPXPXPXPXPXIXx.          ",
"        k.IXPXPXPXPXIX%X4                       T bXPXPXPXPXPXIXf.          ",
"        x.IXPXPXPXPXIXOX;                       Q MXPXPXPXPXPXIXy.          ",
"        b.IXPXPXPXPXIX|.@                       ) VXPXPXPXPXPXPX8.          ",
"        N.IXPXPXPXPXIX/..                       { SXPXPXPXPXPXLX1.          ",
"        A.IXPXPXPXPXIXI.                        o.FXPXPXPXPXPXHX*.          ",
"        G.IXPXPXPXPXIXS.                        &.HXPXPXPXPXPXFX..          ",
"        L.IXPXPXPXPXIXm.                        ,.LXPXPXPXPXPXZX'           ",
"        Y.IXPXPXPXPXIXl.                        4.PXPXPXPXPXPXNX~           ",
"      . !.IXPXPXPXPXUXf.                        0.PXPXPXPXPXPXvXY           ",
"      . (.IXPXPXIXHX<X_                         q.IXPXPXPXPXPXlXG           ",
"      + ].IXIXDX;X3.d   v F F G H K L P P P J ; L uXIXPXPXPXIXrXz           ",
"      * .XGX#X;.0   I Z.tXkXkXlXlXzXzXxXcXcXzXe.  y.KXPXPXPXIX-X7           ",
"      = y.&.5   E H.jXIXIXPXPXPXPXPXPXPXPXPXIXiXP q $XIXPXPXIXM.            ",
"        . * ~ P.lXIXPXPXPXPXPXPXPXPXPXPXPXPXPXIX).= [ bXPXIXsXW             ",
"          @.hXUXPXPXPXPXPXPXPXPXPXPXPXPXPXPXPXPXSX2.  V.IX0X..              ",
"          9 t.rXLXIXIXIXIXIXIXIXIXIXIXIXIXIXIXIXUXqXZ B b.K                 ",
"              C 5.G.Y.U.Y.R.E.W.Q.~./.(.)._.`.'.[.}.&.                      ",
"                              . . . . . + + + + @ @ @                       ",
"                                                                            ",
"                                                                            ",
"                                                                            "
};
