/* XPM */
static char *result[] = {
/* columns rows colors chars-per-pixel */
"38 64 195 2 ",
"   c black",
".  c #010000",
"X  c #000001",
"o  c #010101",
"O  c #020000",
"+  c #020100",
"@  c #030100",
"#  c #010102",
"$  c #000203",
"%  c #010203",
"&  c #020202",
"*  c #020303",
"=  c gray1",
"-  c #040100",
";  c #050100",
":  c #050200",
">  c #020304",
",  c #030304",
"<  c #040404",
"1  c gray2",
"2  c #060606",
"3  c #060607",
"4  c #070707",
"5  c #080200",
"6  c #090300",
"7  c #0A0300",
"8  c #0B0300",
"9  c #0D0400",
"0  c #0E0400",
"q  c #0F0400",
"w  c #070808",
"e  c gray3",
"r  c #090909",
"t  c gray4",
"y  c #0B0B0B",
"u  c #0C0C0C",
"i  c gray5",
"p  c #0E0E0E",
"a  c gray6",
"s  c #100500",
"d  c #110500",
"f  c #130500",
"g  c #140600",
"h  c #160600",
"j  c #170700",
"k  c #180700",
"l  c #1B0800",
"z  c #1C0800",
"x  c #1D0800",
"c  c #1D0900",
"v  c #1F0900",
"b  c #101010",
"n  c #111111",
"m  c gray7",
"M  c #131313",
"N  c gray8",
"B  c #151515",
"V  c #200A00",
"C  c #210A00",
"Z  c #220A00",
"A  c #260B00",
"S  c #270B00",
"D  c #2A0C00",
"F  c #2B0D00",
"G  c #2C0D00",
"H  c #2D0D00",
"J  c #2E0D00",
"K  c #2E0E00",
"L  c #310E00",
"P  c #320F00",
"I  c #340F00",
"U  c #351000",
"Y  c #371000",
"T  c #381000",
"R  c #391100",
"E  c #3A1100",
"W  c #3C1100",
"Q  c #3D1200",
"!  c #3E1200",
"~  c #3F1200",
"^  c #401300",
"/  c #411300",
"(  c #441400",
")  c #451400",
"_  c #461400",
"`  c #4A1600",
"'  c #4C1600",
"]  c #4E1700",
"[  c #501700",
"{  c #511800",
"}  c #521800",
"|  c #531800",
" . c #551900",
".. c #561900",
"X. c #571900",
"o. c #5B1A00",
"O. c #5D1B00",
"+. c #5F1C00",
"@. c #611C00",
"#. c #631D00",
"$. c #661E00",
"%. c #6A1F00",
"&. c #6B1F00",
"*. c #6E2000",
"=. c #702100",
"-. c #712100",
";. c #722100",
":. c #752200",
">. c #762200",
",. c #792300",
"<. c #7A2400",
"1. c #7C2400",
"2. c #802500",
"3. c #812600",
"4. c #822600",
"5. c #852700",
"6. c #862700",
"7. c #872800",
"8. c #892800",
"9. c #8A2800",
"0. c #8C2900",
"q. c #8D2900",
"w. c #8E2900",
"e. c #8E2A00",
"r. c #8F2A00",
"t. c #902A00",
"y. c #912A00",
"u. c #932B00",
"i. c #952B00",
"p. c #952C00",
"a. c #972C00",
"s. c #982C00",
"d. c #992D00",
"f. c #9C2D00",
"g. c #9C2E00",
"h. c #A02F00",
"j. c #A32F00",
"k. c #A33000",
"l. c #A73100",
"z. c #A83100",
"x. c #AC3200",
"c. c #AE3300",
"v. c #B03300",
"b. c #B13400",
"n. c #B43400",
"m. c #B43500",
"M. c #B53500",
"N. c #B83600",
"B. c #BC3700",
"V. c #BF3800",
"C. c #C03800",
"Z. c #C13800",
"A. c #C73A00",
"S. c #C83A00",
"D. c #C93A00",
"F. c #CE3C00",
"G. c #CF3C00",
"H. c #D13D00",
"J. c #D63E00",
"K. c #D83F00",
"L. c #D93F00",
"P. c #DC4000",
"I. c #DD4000",
"U. c #DE4100",
"Y. c #DF4100",
"T. c #E04100",
"R. c #E14200",
"E. c #E24200",
"W. c #E34200",
"Q. c #E74300",
"!. c #E84300",
"~. c #E94400",
"^. c #EB4400",
"/. c #EC4500",
"(. c #ED4500",
"). c #EE4500",
"_. c #EF4500",
"`. c #F04600",
"'. c #F14600",
"]. c #F24600",
"[. c #F34700",
"{. c #F44700",
"}. c #F54700",
"|. c #F64700",
" X c #F64800",
".X c #F84800",
"XX c #FA4900",
"oX c #FB4900",
"OX c #FC4900",
"+X c #FD4900",
"@X c #FD4A00",
"#X c #FE4A00",
"$X c #FF4A00",
"%X c #FF4B00",
"&X c #FF4C00",
/* pixels */
"                                                                            ",
"                                                                            ",
"                                                                            ",
"                        . +                                                 ",
"                  7 E ;.h.z.h.f.i.e.8.4.1.:.*.%.#.O.X.} P                   ",
"                P b.'.%X%X%X%X%X%X%X%X%X%X%X%X$X$X#X#X]. .- T 5             ",
"              ( U.%X$X$X$X$X$X$X$X$X$X$X$X$X$X$X$X$X%Xa.+ { ~.q.q           ",
"              ^ n.[.%X$X$X$X$X$X$X$X$X$X$X$X$X$X$X%XG.c z F.%X$Xr.-         ",
"          o &   5 ) l._.%X$X$X$X$X$X$X$X$X$X$X$X$X].[   u.%X$X$X`.!         ",
"          = a t *   ; W g.~.%X%X%X%X%X%X%X%X%X%X%Xr.  { [.$X$X$X%Xy.        ",
"          < M N n y ,   + I 5.d.p.p.u.t.q.9.7.6.,.j x F.%X$X$X$X%Xc.@       ",
"          1 M N N N m u <                           q.%X$X$X$X$X%Xk..       ",
"          2 N N N N N N b &                       6 C.%X$X$X$X$X%Xs.        ",
"          4 N N N N N N n &                       9 A.%X$X$X$X$X%Xq.        ",
"          e N N N N N N b o                       d F.%X$X$X$X$X%X3.        ",
"          t N N N N N N a o                       h J.%X$X$X$X$X%X>.        ",
"          y N N N N N N p                         l P.%X$X$X$X$X$X&.        ",
"          u N N N N N N i                         C E.%X$X$X$X$X$X+.        ",
"          i N N N N N N u                         S !.$X$X$X$X$XOX .        ",
"          p N N N N N N y                         J /.$X$X$X$X$XXX`         ",
"        o a N N N N N N r                         U '.$X$X$X$X$X|.^         ",
"        o b N N N N N N e                         Q {.$X$X$X$X$X].Y         ",
"        & n N N N N N N 4                         ) .X$X$X$X$X$X(.K         ",
"        & m N N N N N N 2                         ] oX$X$X$X$X$XQ.A         ",
"        = m N N N N N M 1                         ..+X$X$X$X$X%XT.v         ",
"        < M N N N N N M <                         +.$X$X$X$X$X%XL.k         ",
"        1 M N N N N N m =                         &.%X$X$X$X$X%XH.f         ",
"        2 N N N N N N p &                         _ R.%X$X$X$X%XS.0         ",
"        4 N N N N m t &   1 4 4 4 2 2 2 2 2 2 2 =   P v.OX%X$X%XC.6         ",
"        2 m N M i <   = u M N N N N N N N N N N n e X 9 =.W.%X&Xx.-         ",
"          1 u 4   o e n N N N N N N N N N N N N N N i *   I m.H.T           ",
"                1 p N N N N N N N N N N N N N N N N N n e X s V             ",
"              o u M N N N N N N N N N N N N N N N N N N N u #               ",
"            o     1 i M N N N N N N N N N N N N N N N m i 3 X               ",
"        o e b y <     1 i b b n n m m M M M N N M p w $   s ) w.`           ",
"        2 M N N m u <     o o & & = = < 1 1 2 4 < X 7 Y 2.D.}.&XN.5         ",
"        e N N N N N m y o                       ; #.B._.%X%X$X%XV.6         ",
"        e N N N N N N m =                       g J.&X$X$X$X$X%XM.:         ",
"        e N N N N N N n &                       k L.%X$X$X$X$X%Xx.@         ",
"        r N N N N N N n &                       c U.%X$X$X$X$X%Xj..         ",
"        r N N N N N N n &                       C E.%X$X$X$X$X%Xd.          ",
"        r N N N N N N b o                       S Q.$X$X$X$X$X%Xr.          ",
"        t N N N N N N a o                       G ^.$X$X$X$X$X%X5.          ",
"        t N N N N N N a o                       P _.$X$X$X$X$X%X<.          ",
"        t N N N N N N p                         Y ].$X$X$X$X$X%X-.          ",
"        y N N N N N N p                         ~ }.$X$X$X$X$X$X$.          ",
"        y N N N N N N i                         ( .X$X$X$X$X$X#XO.          ",
"        y N N N N N N u                         ' XX$X$X$X$X$XOX|           ",
"        u N N N N N N u                         } OX$X$X$X$X$XXX`           ",
"        u N N N N N N y                         o.#X$X$X$X$X$X X/           ",
"        u N N N N N N t                         @.$X$X$X$X$X$X[.R           ",
"        i N N N N N N t                         %.$X$X$X$X$X$X).L           ",
"        i N N N N N b 1                         &.%X$X$X$X$X$X~.D           ",
"        i N N N a e o   & = = = = = = = < < = X H Y.%X$X$X$X%XI.z           ",
"        p N a 4 o   < y n m m m m m m m M M m r   -.@X$X$X$X%XZ.8           ",
"        r 2 o   < u m N N N N N N N N N N N N m > d B.%X$X$X%X0.            ",
"            < u m N N N N N N N N N N N N N N N i X ( _.$X%XW.U             ",
"          2 m N N N N N N N N N N N N N N N N N M 4 O r.%XK.`               ",
"          o r n N N N N N N N N N N N N N N N N B n % Z 7.F                 ",
"              = e u i u u i i i i i i i i i i i i p 2                       ",
"                                                                            ",
"                                                                            ",
"                                                                            ",
"                                                                            "
};
