/* XPM */
static char *result[] = {
/* columns rows colors chars-per-pixel */
"38 64 250 2 ",
"   c black",
".  c #010000",
"X  c #020100",
"o  c #030100",
"O  c #040100",
"+  c #050100",
"@  c #050200",
"#  c #060200",
"$  c #070200",
"%  c #080200",
"&  c #080300",
"*  c #090300",
"=  c #0A0300",
"-  c #0B0300",
";  c #0C0300",
":  c #0C0400",
">  c #0D0400",
",  c #0E0400",
"<  c #0F0400",
"1  c #0F0500",
"2  c #100500",
"3  c #110500",
"4  c #130500",
"5  c #140600",
"6  c #150600",
"7  c #160600",
"8  c #160700",
"9  c #170700",
"0  c #180700",
"q  c #1B0800",
"w  c #1C0800",
"e  c #1D0800",
"r  c #1D0900",
"t  c #1E0900",
"y  c #1F0900",
"u  c #200900",
"i  c #200A00",
"p  c #210A00",
"a  c #230A00",
"s  c #240A00",
"d  c #260B00",
"f  c #270B00",
"g  c #280C00",
"h  c #290C00",
"j  c #2A0C00",
"k  c #2B0C00",
"l  c #2A0D00",
"z  c #2B0D00",
"x  c #2C0D00",
"c  c #2D0D00",
"v  c #2E0D00",
"b  c #2E0E00",
"n  c #2F0E00",
"m  c #300E00",
"M  c #310E00",
"N  c #320F00",
"B  c #330F00",
"V  c #340F00",
"C  c #351000",
"Z  c #371000",
"A  c #381000",
"S  c #391100",
"D  c #3A1100",
"F  c #3B1100",
"G  c #3C1100",
"H  c #3C1200",
"J  c #3D1200",
"K  c #3E1200",
"L  c #3F1200",
"P  c #401300",
"I  c #411300",
"U  c #421300",
"Y  c #431400",
"T  c #441400",
"R  c #451400",
"E  c #461400",
"W  c #471500",
"Q  c #4A1600",
"!  c #4B1600",
"~  c #4C1600",
"^  c #4D1600",
"/  c #4D1700",
"(  c #4E1700",
")  c #501700",
"_  c #501800",
"`  c #511800",
"'  c #521800",
"]  c #531800",
"[  c #541900",
"{  c #551900",
"}  c #561900",
"|  c #571900",
" . c #581A00",
".. c #591A00",
"X. c #5B1A00",
"o. c #5B1B00",
"O. c #5D1B00",
"+. c #5E1B00",
"@. c #5F1C00",
"#. c #601C00",
"$. c #611C00",
"%. c #611D00",
"&. c #621D00",
"*. c #631D00",
"=. c #641D00",
"-. c #661E00",
";. c #691F00",
":. c #6A1F00",
">. c #6B1F00",
",. c #6C2000",
"<. c #6D2000",
"1. c #6E2000",
"2. c #6F2000",
"3. c #702100",
"4. c #712100",
"5. c #722100",
"6. c #742200",
"7. c #752200",
"8. c #762200",
"9. c #762300",
"0. c #772300",
"q. c #792300",
"w. c #7A2400",
"e. c #7B2400",
"r. c #7C2400",
"t. c #802500",
"y. c #812500",
"u. c #812600",
"i. c #822600",
"p. c #852700",
"a. c #862700",
"s. c #872700",
"d. c #882800",
"f. c #892800",
"g. c #8A2800",
"h. c #8C2900",
"j. c #8D2900",
"k. c #8E2900",
"l. c #8F2A00",
"z. c #902A00",
"x. c #912A00",
"c. c #922B00",
"v. c #932B00",
"b. c #942B00",
"n. c #952B00",
"m. c #952C00",
"M. c #962C00",
"N. c #972C00",
"B. c #982C00",
"V. c #992D00",
"C. c #9C2D00",
"Z. c #9C2E00",
"A. c #9D2E00",
"S. c #9E2E00",
"D. c #9F2E00",
"F. c #9F2F00",
"G. c #A02F00",
"H. c #A12F00",
"J. c #A22F00",
"K. c #A32F00",
"L. c #A33000",
"P. c #A43000",
"I. c #A63000",
"U. c #A73100",
"Y. c #A83100",
"T. c #A93100",
"R. c #AA3100",
"E. c #AA3200",
"W. c #AB3200",
"Q. c #AC3200",
"!. c #AD3200",
"~. c #AD3300",
"^. c #AE3300",
"/. c #B03300",
"(. c #B13400",
"). c #B23400",
"_. c #B33400",
"`. c #B43400",
"'. c #B53500",
"]. c #B83600",
"[. c #BA3600",
"{. c #BC3700",
"}. c #BD3700",
"|. c #BE3700",
" X c #BF3800",
".X c #C03800",
"XX c #C13800",
"oX c #C23800",
"OX c #C53900",
"+X c #C63A00",
"@X c #C73A00",
"#X c #C83A00",
"$X c #C93A00",
"%X c #C93B00",
"&X c #CA3B00",
"*X c #CC3B00",
"=X c #CE3C00",
"-X c #CF3C00",
";X c #D13D00",
":X c #D23D00",
">X c #D33D00",
",X c #D53E00",
"<X c #D63E00",
"1X c #D83F00",
"2X c #D93F00",
"3X c #DB4000",
"4X c #DC4000",
"5X c #DD4000",
"6X c #DE4000",
"7X c #DE4100",
"8X c #DF4100",
"9X c #E04100",
"0X c #E14100",
"qX c #E14200",
"wX c #E24200",
"eX c #E34200",
"rX c #E44200",
"tX c #E54300",
"yX c #E64300",
"uX c #E74300",
"iX c #E84300",
"pX c #E94400",
"aX c #EA4400",
"sX c #EB4400",
"dX c #EC4400",
"fX c #EC4500",
"gX c #ED4500",
"hX c #EE4500",
"jX c #EF4500",
"kX c #F04600",
"lX c #F14600",
"zX c #F24600",
"xX c #F34700",
"cX c #F44700",
"vX c #F54700",
"bX c #F64700",
"nX c #F64800",
"mX c #F74800",
"MX c #F84800",
"NX c #F94800",
"BX c #F94900",
"VX c #FA4900",
"CX c #FB4900",
"ZX c #FC4900",
"AX c #FD4900",
"SX c #FD4A00",
"DX c #FE4A00",
"FX c #FF4A00",
"GX c #FF4B00",
"HX c #FF4C00",
/* pixels */
"                                                                            ",
"                                                                            ",
"                                                                            ",
"                        . X                                                 ",
"                  = D 5.G.Y.G.C.m.l.f.i.r.7.1.:.*.O.| ' N                   ",
"                N (.lXGXGXGXGXGXGXGXGXGXGXGXGXFXFXDXDXzX{ O A %             ",
"              T 7XGXFXFXFXFXFXFXFXFXFXFXFXFXFXFXFXFXGXN.X ` pXj.<           ",
"              P `.xXGXFXFXFXFXFXFXFXFXFXFXFXFXFXFXGX-Xr w =XGXFXl.O         ",
"          % 5   # R U.jXGXFXFXFXFXFXFXFXFXFXFXFXFXzX)   v.GXFXFXkXK         ",
"          j .Xw.a   o G Z.pXGXGXGXGXGXGXGXGXGXGXGXl.  ` xXFXFXFXGXx.        ",
"          Z cXGX5Xd.c     B p.V.m.m.v.z.j.g.s.a.q.9 e =XGXFXFXFXGX^.o       ",
"          Y mXFXGXGXyXB.A                           j.GXFXFXFXFXGXL..       ",
"          _ CXFXFXFXFXHX:X0                       * .XGXFXFXFXFXGXB.        ",
"          +.DXFXFXFXFXGX,X6                       > @XGXFXFXFXFXGXj.        ",
"          ,.GXFXFXFXFXGX%X,                       3 =XGXFXFXFXFXGXu.        ",
"          e.GXFXFXFXFXGX|.*                       7 <XGXFXFXFXFXGX8.        ",
"          f.GXFXFXFXFXGX(.O                       q 4XGXFXFXFXFXFX:.        ",
"          B.GXFXFXFXFXGXL..                       p wXGXFXFXFXFXFX@.        ",
"        . I.GXFXFXFXFXGXn.                        f iXFXFXFXFXFXZX{         ",
"        @ _.GXFXFXFXFXGXa.                        v fXFXFXFXFXFXVXQ         ",
"        = .XGXFXFXFXFXGX0.                        C lXFXFXFXFXFXbXP         ",
"        1 *XGXFXFXFXFXFX;.                        J cXFXFXFXFXFXzXZ         ",
"        8 <XGXFXFXFXFXDXo.                        R MXFXFXFXFXFXgXb         ",
"        t 9XGXFXFXFXFXVX/                         ( CXFXFXFXFXFXuXd         ",
"        g iXFXFXFXFXFXbXP                         } AXFXFXFXFXGX9Xy         ",
"        N jXFXFXFXFXFXkXV                         @.FXFXFXFXFXGX2X0         ",
"        K vXFXFXFXFXFXfXj                         >.GXFXFXFXFXGX;X4         ",
"        Q VXFXFXFXGXFX].5                         E qXGXFXFXFXGX#X,         ",
"        ..FXFXFXGXtXr.5 o F [ ' ' ' ` ) ( ^ ! Q d   M /.ZXGXFXGX.X*         ",
"        W pXGXMXE.B   a m.jXSXZXZXZXZXCXCXVXVXVX4X-.# = 3.eXGXHXQ.O         ",
"        o H D.+.# - ;.2XGXFXFXFXFXFXFXFXFXFXFXFXGXVXI.h   V '.;XA           ",
"            X X U ].ZXGXFXFXFXFXFXFXFXFXFXFXFXFXFXFXGX3X$.@ < i             ",
"              2 b.vXGXFXFXFXFXFXFXFXFXFXFXFXFXFXFXFXFXGXAXZ.6               ",
"            3 . O Y R.zXGXGXGXGXGXFXFXFXFXFXFXFXFXGXDX0XJ.[ =               ",
"        $ $.&Xc.m   O R P.+X=X<X5XrXaXkXcXMXCXSXfX'.-.p   > T k.Q           ",
"        ( vXGXGXuXn.B   X : 2 7 w a z B H E _  .B @ # C t.$XvXHX].%         ",
"        =.FXFXFXFXGXaXx.2                       o *.{.jXGXGXFXGX X*         ",
"        -.FXFXFXFXFXGXuXa                       5 <XHXFXFXFXFXGX'.@         ",
"        :.FXFXFXFXFXGX8Xt                       0 2XGXFXFXFXFXGXQ.o         ",
"        2.GXFXFXFXFXGX2X0                       r 7XGXFXFXFXFXGXK..         ",
"        6.GXFXFXFXFXGX>X5                       p wXGXFXFXFXFXGXV.          ",
"        9.GXFXFXFXFXGX*X1                       f uXFXFXFXFXFXGXl.          ",
"        e.GXFXFXFXFXGXOX;                       x sXFXFXFXFXFXGXp.          ",
"        y.GXFXFXFXFXGX}.&                       N jXFXFXFXFXFXGXw.          ",
"        p.GXFXFXFXFXGX'.#                       Z zXFXFXFXFXFXGX4.          ",
"        d.GXFXFXFXFXGX~.o                       L vXFXFXFXFXFXFX-.          ",
"        j.GXFXFXFXFXGXP..                       T MXFXFXFXFXFXDXO.          ",
"        c.GXFXFXFXFXGXZ.                        ~ VXFXFXFXFXFXZX]           ",
"        m.GXFXFXFXFXGXv.                        ' ZXFXFXFXFXFXBXQ           ",
"        V.GXFXFXFXFXGXg.                        X.DXFXFXFXFXFXnXI           ",
"        S.GXFXFXFXFXGXu.                        %.FXFXFXFXFXFXxXS           ",
"      . K.GXFXFXFXFXHXw.                        :.FXFXFXFXFXFXhXM           ",
"      . I.GXFXFXGXZX%XL                         ,.GXFXFXFXFXFXpXj           ",
"      X E.GXGXNXoX#.3   y h h j k z x c c c l # x 8XGXFXFXFXGX5Xw           ",
"      O ).CX[.| >   n x.6XpXpXaXaXsXsXdXfXfXsX<.  4.SXFXFXFXGXXX-           ",
"      + 4.' *   V M.iXGXGXFXFXFXFXFXFXFXFXFXGX9Xc , {.GXFXFXGXh.            ",
"        . O S C.aXGXFXFXFXFXFXFXFXFXFXFXFXFXFXGXU.+ Y jXFXGXeXC             ",
"          ( uXHXFXFXFXFXFXFXFXFXFXFXFXFXFXFXFXFXMX+.  l.GX1XQ               ",
"          : 2.5XDXGXGXGXGXGXGXGXGXGXGXGXGXGXGXGXHX2Xs u d.z                 ",
"              a &.m.S.A.S.F.G.H.J.L.P.I.U.Y.T.R.W.!.'                       ",
"                              . . . . . X X X X o o o                       ",
"                                                                            ",
"                                                                            ",
"                                                                            "
};
