/* XPM */
static char *result[] = {
/* columns rows colors chars-per-pixel */
"38 64 256 2 ",
"   c black",
".  c #010000",
"X  c #000001",
"o  c #010101",
"O  c #020100",
"+  c #030100",
"@  c #000102",
"#  c #020202",
"$  c gray1",
"%  c #040100",
"&  c #050100",
"*  c #050200",
"=  c #060200",
"-  c #070200",
";  c #030404",
":  c #040404",
">  c gray2",
",  c #060606",
"<  c #070707",
"1  c #080200",
"2  c #090300",
"3  c #0A0300",
"4  c #0B0300",
"5  c #0C0400",
"6  c #0D0400",
"7  c #0E0400",
"8  c #0F0400",
"9  c #0F0500",
"0  c gray3",
"q  c #090909",
"w  c gray4",
"e  c #0B0B0B",
"r  c #0C0B0B",
"t  c #0C0C0C",
"y  c gray5",
"u  c #0E0E0E",
"i  c gray6",
"p  c #100500",
"a  c #110500",
"s  c #130500",
"d  c #140600",
"f  c #150600",
"g  c #160600",
"h  c #160700",
"j  c #170700",
"k  c #180700",
"l  c #1B0800",
"z  c #1C0800",
"x  c #1D0800",
"c  c #1D0900",
"v  c #1E0900",
"b  c #1F0900",
"n  c #101010",
"m  c #111111",
"M  c gray7",
"N  c #131313",
"B  c gray8",
"V  c #200900",
"C  c #200A00",
"Z  c #210A00",
"A  c #230A00",
"S  c #240A00",
"D  c #260B00",
"F  c #270B00",
"G  c #280C00",
"H  c #290C00",
"J  c #2A0C00",
"K  c #2B0C00",
"L  c #2A0D00",
"P  c #2B0D00",
"I  c #2C0D00",
"U  c #2D0D00",
"Y  c #2E0D00",
"T  c #2E0E00",
"R  c #310E00",
"E  c #320F00",
"W  c #330F00",
"Q  c #340F00",
"!  c #350F00",
"~  c #351000",
"^  c #371000",
"/  c #381000",
"(  c #391100",
")  c #3A1100",
"_  c #3B1100",
"`  c #3C1100",
"'  c #3C1200",
"]  c #3D1200",
"[  c #3E1200",
"{  c #3F1200",
"}  c #401300",
"|  c #411300",
" . c #421300",
".. c #431400",
"X. c #441400",
"o. c #451400",
"O. c #461400",
"+. c #471500",
"@. c #4A1600",
"#. c #4B1600",
"$. c #4C1600",
"%. c #4D1600",
"&. c #4D1700",
"*. c #4E1700",
"=. c #501700",
"-. c #501800",
";. c #511800",
":. c #521800",
">. c #531800",
",. c #541900",
"<. c #551900",
"1. c #561900",
"2. c #571900",
"3. c #581A00",
"4. c #591A00",
"5. c #5B1A00",
"6. c #5B1B00",
"7. c #5D1B00",
"8. c #5E1B00",
"9. c #5E1C00",
"0. c #5F1C00",
"q. c #611C00",
"w. c #611D00",
"e. c #621D00",
"r. c #631D00",
"t. c #661E00",
"y. c #691F00",
"u. c #6A1F00",
"i. c #6B1F00",
"p. c #6C2000",
"a. c #6D2000",
"s. c #6E2000",
"d. c #6F2000",
"f. c #702100",
"g. c #712100",
"h. c #722100",
"j. c #752200",
"k. c #762200",
"l. c #772300",
"z. c #792300",
"x. c #7A2400",
"c. c #7B2400",
"v. c #7C2400",
"b. c #802500",
"n. c #812600",
"m. c #822600",
"M. c #852700",
"N. c #862700",
"B. c #872800",
"V. c #882800",
"C. c #892800",
"Z. c #8A2800",
"A. c #8C2900",
"S. c #8D2900",
"D. c #8E2900",
"F. c #8F2A00",
"G. c #902A00",
"H. c #912A00",
"J. c #932B00",
"K. c #942B00",
"L. c #952B00",
"P. c #952C00",
"I. c #962C00",
"U. c #972C00",
"Y. c #982C00",
"T. c #992D00",
"R. c #9C2D00",
"E. c #9C2E00",
"W. c #9D2E00",
"Q. c #9E2E00",
"!. c #9F2E00",
"~. c #9F2F00",
"^. c #A02F00",
"/. c #A12F00",
"(. c #A22F00",
"). c #A32F00",
"_. c #A33000",
"`. c #A43000",
"'. c #A63000",
"]. c #A73100",
"[. c #A83100",
"{. c #A93100",
"}. c #AA3100",
"|. c #AA3200",
" X c #AB3200",
".X c #AC3200",
"XX c #AE3200",
"oX c #AE3300",
"OX c #B03300",
"+X c #B13400",
"@X c #B33400",
"#X c #B43400",
"$X c #B53500",
"%X c #B83600",
"&X c #BC3700",
"*X c #BE3700",
"=X c #BF3800",
"-X c #C03800",
";X c #C13800",
":X c #C63A00",
">X c #C73A00",
",X c #C83A00",
"<X c #C93A00",
"1X c #C93B00",
"2X c #CC3B00",
"3X c #CE3C00",
"4X c #CF3C00",
"5X c #D13D00",
"6X c #D23D00",
"7X c #D53E00",
"8X c #D63E00",
"9X c #D83F00",
"0X c #D93F00",
"qX c #DB4000",
"wX c #DC4000",
"eX c #DD4000",
"rX c #DE4000",
"tX c #DE4100",
"yX c #E04100",
"uX c #E14100",
"iX c #E14200",
"pX c #E24200",
"aX c #E34200",
"sX c #E44200",
"dX c #E54300",
"fX c #E64300",
"gX c #E74300",
"hX c #E84300",
"jX c #E94400",
"kX c #EA4400",
"lX c #EB4400",
"zX c #EC4400",
"xX c #EC4500",
"cX c #ED4500",
"vX c #EE4500",
"bX c #EF4500",
"nX c #F04600",
"mX c #F14600",
"MX c #F24600",
"NX c #F34700",
"BX c #F44700",
"VX c #F54700",
"CX c #F64700",
"ZX c #F64800",
"AX c #F74800",
"SX c #F84800",
"DX c #F94900",
"FX c #FA4900",
"GX c #FB4900",
"HX c #FC4900",
"JX c #FD4900",
"KX c #FD4A00",
"LX c #FE4A00",
"PX c #FF4A00",
"IX c #FF4B00",
"UX c #FF4C00",
/* pixels */
"                                                                            ",
"                                                                            ",
"                                                                            ",
"                        . O                                                 ",
"                  3 ) h.^.[.^.R.P.F.C.m.v.j.s.u.r.7.2.:.E                   ",
"                E +XmXIXIXIXIXIXIXIXIXIXIXIXIXPXPXLXLXMX<.% / 1             ",
"              X.tXIXPXPXPXPXPXPXPXPXPXPXPXPXPXPXPXPXIXU.O ;.jXS.8           ",
"              } #XNXIXPXPXPXPXPXPXPXPXPXPXPXPXPXPXIX4Xc z 3XIXPXF.&         ",
"          1 d   = o.].bXIXPXPXPXPXPXPXPXPXPXPXPXPXMX=.  J.IXPXPXnX[         ",
"          J -Xx.A   + ` E.jXIXIXIXIXIXIXIXIXIXIXIXF.  ;.NXPXPXPXIXH.        ",
"          ^ BXIXeXV.U     W M.T.P.P.J.G.S.Z.B.N.z.j x 3XIXPXPXPXIXoX+       ",
"          ..AXPXIXIXfXY./                           S.IXPXPXPXPXIX_..       ",
"          -.GXPXPXPXPXUX6Xk                       2 -XIXPXPXPXPXIXY.        ",
"          9.LXPXPXPXPXIX7Xf                       6 >XIXPXPXPXPXIXS.        ",
"          p.IXPXPXPXPXIX1X7                       a 3XIXPXPXPXPXIXn.        ",
"          c.IXPXPXPXPXIX*X2                       g 8XIXPXPXPXPXIXk.        ",
"          C.IXPXPXPXPXIX+X%                       l wXIXPXPXPXPXPXu.        ",
"          Y.IXPXPXPXPXIX_..                       Z pXIXPXPXPXPXPX0.        ",
"        . '.IXPXPXPXPXIXL.                        F hXPXPXPXPXPXHX<.        ",
"        * @XIXPXPXPXPXIXN.                        Y xXPXPXPXPXPXFX@.        ",
"        3 -XIXPXPXPXPXIXl.                        ~ mXPXPXPXPXPXCX}         ",
"        9 2XIXPXPXPXPXPXy.                        ] BXPXPXPXPXPXMX^         ",
"        h 8XIXPXPXPXPXLX6.                        o.SXPXPXPXPXPXcXT         ",
"        v yXIXPXPXPXPXFX&.                        *.GXPXPXPXPXPXgXD         ",
"        G hXPXPXPXPXPXCX}                         1.JXPXPXPXPXIXyXb         ",
"        E bXPXPXPXPXPXnXQ                         0.PXPXPXPXPXIX0Xk         ",
"        [ VXPXPXPXPXPXxXJ                         i.IXPXPXPXPXIX5Xs         ",
"        @.FXPXPXPXIXPX%Xd                         O.iXIXPXPXPXIX,X7         ",
"        4.PXPXPXIXdXv.d + _ ,.:.:.:.;.=.*.%.#.@.D   R OXHXIXPXIX-X2         ",
"        +.jXIXSX|.W   A P.bXKXHXHXHXHXGXGXFXFXFXwXt.= 3 f.aXIXUX.X%         ",
"        + ' !.8.= 4 y.0XIXPXPXPXPXPXPXPXPXPXPXPXIXFX'.H   Q $X5X/           ",
"            O O  .%XHXIXPXPXPXPXPXPXPXPXPXPXPXPXPXPXIXqXq.* 8 C             ",
"              p K.VXIXPXPXPXPXPXPXPXPXPXPXPXPXPXPXPXPXIXJXE.f               ",
"            o   - ..}.MXIXIXIXIXIXPXPXPXPXPXPXPXPXIXLXuX(.,.3               ",
"        o 0 n r ;   = o.`.:X3X8XeXsXkXnXBXSXGXKXxX$Xt.Z   6 X.D.@.          ",
"        , N B B M t :   + 5 p g z A P W ' o.=.3.W * = ~ b.<XVXUX%X1         ",
"        0 B B B B B M e o                       + r.&XbXIXIXPXIX=X2         ",
"        0 B B B B B B M $                       d 8XUXPXPXPXPXIX$X*         ",
"        0 B B B B B B m #                       k 0XIXPXPXPXPXIX.X+         ",
"        q B B B B B B m #                       c tXIXPXPXPXPXIX)..         ",
"        q B B B B B B m #                       Z pXIXPXPXPXPXIXT.          ",
"        q B B B B B B n o                       F gXPXPXPXPXPXIXF.          ",
"        w B B B B B B i o                       I lXPXPXPXPXPXIXM.          ",
"        w B B B B B B i o                       E bXPXPXPXPXPXIXx.          ",
"        w B B B B B B u                         ^ MXPXPXPXPXPXIXg.          ",
"        e B B B B B B u                         { VXPXPXPXPXPXPXt.          ",
"        e B B B B B B y                         X.SXPXPXPXPXPXLX7.          ",
"        e B B B B B B t                         $.FXPXPXPXPXPXHX>.          ",
"        t B B B B B B t                         :.HXPXPXPXPXPXDX@.          ",
"        t B B B B B B e                         5.LXPXPXPXPXPXZX|           ",
"        t B B B B B B w                         w.PXPXPXPXPXPXNX(           ",
"        y B B B B B B w                         u.PXPXPXPXPXPXvXR           ",
"        y B B B B B n >                         p.IXPXPXPXPXPXjXJ           ",
"        y B B B i < @ . b H H J K P I U U U L = I yXIXPXPXPXIXeXz           ",
"        u B i < X . R H.rXjXjXkXkXlXlXzXxXxXlXa.  g.KXPXPXPXIX;X4           ",
"        q , X O ! I.hXIXIXPXPXPXPXPXPXPXPXPXIXyXU 7 &XIXPXPXIXA.            ",
"          - ) R.kXIXPXPXPXPXPXPXPXPXPXPXPXPXPXIX].& ..bXPXIXaX~             ",
"          *.gXUXPXPXPXPXPXPXPXPXPXPXPXPXPXPXPXPXSX8.  F.IX9X@.              ",
"          5 d.eXLXIXIXIXIXIXIXIXIXIXIXIXIXIXIXIXUX0XS V V.P                 ",
"              A e.P.Q.W.Q.~.^./.(._.`.'.].[.{.}. XXX:.                      ",
"                              . . . . . O O O O + + +                       ",
"                                                                            ",
"                                                                            ",
"                                                                            "
};
