/* XPM */
static char *ad580ce8381c436cd931f238ec69bd9evHHeWnDJ8VPJz9lE[] = {
/* columns rows colors chars-per-pixel */
"64 64 73 1 ",
"  c #0E0E0E",
". c #0F100F",
"X c #141414",
"o c #161817",
"O c #171918",
"+ c #1C1D1C",
"@ c #1E201F",
"# c #1F2020",
"$ c #232323",
"% c #272928",
"& c #2B2B2B",
"* c #2F3130",
"= c #333333",
"- c #373938",
"; c #3B3B3B",
": c #444545",
"> c #464847",
", c #474948",
"< c #4C4C4C",
"1 c #4F5150",
"2 c #535353",
"3 c #565857",
"4 c #575958",
"5 c #5C5C5C",
"6 c #5E605F",
"7 c #5F6160",
"8 c #636363",
"9 c #666867",
"0 c #6C6C6C",
"q c #6F706F",
"w c #737373",
"e c #767877",
"r c #777878",
"t c #7B7C7B",
"y c #7E807F",
"u c #7F8180",
"i c #848484",
"p c #868887",
"a c #878988",
"s c #8B8D8C",
"d c #8E908F",
"f c #8F9190",
"g c #929393",
"h c #969897",
"j c #979998",
"k c #9B9D9C",
"l c #9EA09F",
"z c #9FA1A0",
"x c #A2A3A3",
"c c #A6A8A7",
"v c #ABABAB",
"b c #AEB0AF",
"n c #AFB1B0",
"m c #B3B4B3",
"M c #B6B8B7",
"N c #B7B9B8",
"B c #BABBBB",
"V c #BFC1C0",
"C c #C3C4C3",
"Z c #C6C8C7",
"A c #C7C9C8",
"S c #CCCCCC",
"D c #CED0CF",
"F c #CFD1D0",
"G c #D3D4D4",
"H c #D6D8D7",
"J c #D6D9D8",
"K c #DCDCDC",
"L c #DFE0E0",
"P c #E4E4E4",
"I c #E7E8E7",
"U c #EBEBEB",
"Y c #F2F2F2",
/* pixels */
"KKFGGGGGGGJFGJFGGmdPYUKKGGGGGGGHGGGGGGGZsSYYYKKGGGGGHGGGGGGGGGAp",
"NZNBNNNBBNNNNBNNC0<KPUCVBBBBBBNNNNBNBBVg=BIUUVVBBBBMBNNNBBBBBVg&",
"khpappaaaaaaaaaas=:GKPmjsasiaasaapppapd3#BPIPvksasaaaappaasapf3o",
"lksddddadsdsdaddf;:GKLmkgsssdssddddsssg5$BKIPvxsssssssddsssssg6@",
"lkdadddddasdsadaf;:GKPvkgassssssssdsssg5$BKPPvlsssssssadsdsssf6+",
"lkaadaadadsasdads;:GKLmxfsssssssssssssg5#BLPPvksssssdsdssadssg6+",
"lkadaddadsaddaadg;:GGPvkfssssssssdssssg5$BLIPvxgssssasssssdsdg5@",
"kkaddaadssdsadhat=<GKLmxgassssdssssssag4$BLIPvdusgdsdsssssadaf5+",
"llassssdssdsde1&+ :GGPxiissssssssssdsaj7$NLPUwX+&5ugsssssssssg6@",
"llasssssdafu1+o:wsvGLUg+&wsssssssssssdt=+NLIPBgw:+$8sssssssssg6@",
"lkaddassafy*X1xCGGKKUUKv<X5ssssssssss8#+9SLUUUPGSv2o2assssssaf6O",
"kkadadssfy%@iSDFGKPUYUUKGt+0sssssdas3X;xDGPYYUPLKHGs#2ssdssssf6@",
"kkasssasa-+dDSHPUUYYYYUPKLi&tsssssf8X<BDFKUYYYYUUPKKj%0ssssssg6@",
"lkassssg5XtGSPIYUUPKKPYUUKK0<sssafr$;VSGPIPLKPUYYYULPs:idasssf6@",
"kladssdi$:ZSPUYPLKKSBvBPUPPS5tgssf>+cSGKKKHGSBvCUUYYPK90fssssf4@",
"klsdddg8XgGKIUPKKCxxxxssKUPPj0sisu+5SDKKKGBxlxkixIYYUIn7ffffsf6+",
"xkppppa:=VGPYPGGxitttig0tPPPCrkgk8XkGGGGSgttiisd6kIUYUHussiiss5#",
"2%++##$ 2GKUUGCkiiiiiiit;xUPKt525&=CGKCCgiiiiiii0:ZUYUUu#+#+###X",
"07768774gKPYPBmiiiiiiiii;5PLP8X##+2GGGBviiiiiiiiy$aUYYYx58588558",
"PHGGGGGGGKUYKckiiiiiiiiw$=GLPCBmmvBGPv28tiiiiiiii$8PUYUIKGGGGGGK",
"PLHKKKKKLUYYGgguiiiiii2+#tGKUPKGGGKKPS5X=riiiiiii#5LPYYULKKHGKKK",
"YUIUIIIIUYYYGtiiiiiii< :vSGUUUPPPPPPUPPx=&wiiiiiwXwLIYYYUPPPPPPU",
"IPLLLLLLLPYPPw8siiii< 5CGGPUUUKKKGPUUPKKC:&tiiia<XxKPYPLGHHKHKGC",
"GKFFGFGGmfLPUc=9iaa4 5SSGPPPKKKGCCBBGPPKKS;:iis8X<SHILHGGSSSSGx<",
"vBvvvvvvk2xPLLqX<r0$;CSKPPKKKCvxxxvxjxKUKKC;8r<X&mGKPGSchjjkjx2%",
"kjipaappaq6SLKHt+XX+xGGPPKKCkititiigkisKPKPj+XX:vSHKHHmassaass>%",
"llssdssdsdwuFKHKmw<tSGPPGKmiiiiiiiiiig0tLPKK85gSGGKHKZhasssssg,%",
"lkssssssssgugFLHGKGGGPUGGmiiiiiiiiiiiii<gPPKKKGSGGKPSjaasssssg,%",
"lkadsssssssjgjBHKGKKPUPSBiiiiiiiiiiiiis8:CPUPHSGGKPSkaddssdssg,&",
"lkasdsssssdsjxxmCSSKPUGBxiiiiiiiiiiiiiit&fPPPKKPPGbsaaadsdassg,&",
"lkassssssssssdkvBk2GPUCmdiiiiiiiiiiiiiii=5PKGCGBcgssddsdsdsssg,&",
"lkadssssssssssssj5&SKPvxiiiiiiiiiiiiiiis;;GPSkjissssassadasdag,&",
"xkssssssssssssssg<&CKKxjiiiiiiiiiiiiiiii:=SKSxxgdssssssssssssg<&",
"kkssssssssssssgsi:&CKKggiiiiisiiiiiiiiis=;SKCw8wsgsssssssssssg:&",
"kkssssssssssss0;#X=CGPgtsiiiiiiiiiiiiiii$2GKS:+X=0ssssssdssdsg:&",
"xksssssssssgt;X&8dvGKPv8iiisiiiiiiiiiii8XiGKKGmi;X:isssssssssg:&",
"kkasssssssd0$#0mSGGGPUS5wiiiiiiiiiiiiii;#mKPPKKGSs$=idsssdsdsg:&",
"xkassssssgw$&jSSSSGPUPUi:tiiiiiiiiiiis5X0GGPPKPGGKm=:sssssisig:&",
"llsggsddgi&$xSSSSGxBUUPG<=tiiiiiiiiii8X;CGPPPGBGPGKm=8kggggggk<&",
"xgtuttiti2XgGCGGKGi5KPPPC=$8isiiisit<X=mGKPKGSximPGPk;88888888;&",
":+X+X++X+ 2SSGSGmii<gPPPPC<X&<8ww8:$X<mGGPPGSkgd8mPKK2 #++X++X+=",
"twwwwwwww0vSGSSviiit5mPUPPGg:#X XX+:sSSGPUKGmiii82SKLCxxxxxxxxkv",
"PKGGGGGGGKGKKBmiiiiit0CUPPLKGmgitgvSGSKPUKKCiiiit$gILPKGGGGGGGGK",
"PLKKKHKKKKLPGvkiiiiiiitBPUUPKKGGGGGSGPUUKKSsiiiii$0PPUUPPPPKPPKP",
"UPPPPPPUUUYYGjgiiiiiiddivGUUUPGSSSSKPUPKKCgiiiiii$5KPYYUIUUUPPUU",
"PHHGGHHBGYYYGtsiiiiiiiik<5PIIKKGGCiSPGCKmstiiiiir+0KPYYUKGGGGKSm",
"SFZZZZC8gUUUPwwiiiiiiiiwX0KPICCmmk=vPSrsiiiiiiis5 jKPYUSGCCSSSi:",
"xkfgggg;8PPUUj;tiiiiiii=#vKPLCvsii=wKG0:iiiiiiiw+;CKUUKBvgggdj;;",
"xgassss9;CPUUL2#8uisi0; tGGPGCvssg8<CGC==0issi8$+kGPUUSCjissad;;",
"xhssssss<iPIUIS2X$-:=XXrSGLPGZjsddi<sKSm=X&;;&X%gSGPUPSVsdsdsg;;",
"xhassssst4BIUULKg<*%=8xSGKPKGmssssst5mGGSt:&&;qmSGPUUKGxassssd;;",
"xjsssssddrrSPUPKLGCBCGGGKPLKSgsssssditCGSKSCBSGGKPUUKGmidsssss;;",
"xgsssssssgiiAUUIPKKKGHKPPLKGxidsssssgdimKKGKKKGLPUPKPCgsdssssd;;",
"xhassssssshhhmHPPIIPUUUPKLSxigsssssssgkksCLPPPIPPKPPVdsssssssd;;",
"zhasssdssssglxbCSGKUYYPGLCksssssssdsssgg&gPUUPPKPKGvdssssssssd;-",
"zhssssssssssfkcmCwdUIYDbvsigssdsssssssdt+dPPPFKGSmjasssssssssd;-",
"zjsssssssssssssgg$tPPUSkgsssssssssdsssgt+sKLKvvgspdssssssssssf;-",
"xjasssssssssfsssi+tKPUCzksssssssdsssssdt+sKLGkkisfsssssssssssg;;",
"xjassssssssssssfi$tLKUCkhassssssssssssdt+sKLGxkssssssssssssssd;;",
"xgsssdssssssssssi+rKPUCkhsssdsssssssssgt+sKLGxkssssssssssssssd;;",
"zgasssasssssssssi+tKPUCkgasssssssisssigtOsLKGxkassssssasssssad;;",
"czdgggggggggggggp$tKPUCxlfggggdgggggdgjt+sKLHxxdgggggddggggggh;-",
"q1:::::::::::::::OtKKUC0<:::>><:>::>::>;OdLKGy2:,:::::::::>:::%;",
"$++++###+++#+##+$OtKPYv++#++++++#+##+#+$+fLLG=+#++++#+++##+++#+:"
};
