/* XPM */
static char *result[] = {
/* columns rows colors chars-per-pixel */
"64 64 236 2 ",
"   c #68363E",
".  c #2F154D",
"X  c #3C1C54",
"o  c #25286F",
"O  c #1C2069",
"+  c #66185F",
"@  c #6A1969",
"#  c #731B73",
"$  c #781E76",
"%  c #791E78",
"&  c #721773",
"*  c #721F6F",
"=  c #55297C",
"-  c #4E2872",
";  c #7A2768",
":  c #7D227B",
">  c #782474",
",  c #753A77",
"<  c #4E2057",
"1  c #02786C",
"2  c #534E57",
"3  c #6E584D",
"4  c #75685A",
"5  c #5D4E63",
"6  c #79456E",
"7  c #6C706B",
"8  c #933F1E",
"9  c #8B363A",
"0  c #923F22",
"q  c #94411D",
"w  c #9B451C",
"e  c #9F491B",
"r  c #AA4D14",
"t  c #A44C19",
"y  c #A64C17",
"u  c #AD5316",
"i  c #AB521A",
"p  c #B15615",
"a  c #B45B14",
"s  c #B75C16",
"d  c #AF520F",
"f  c #BC6314",
"g  c #BB651B",
"h  c #954327",
"j  c #924733",
"k  c #A14C33",
"l  c #B76534",
"z  c #906537",
"x  c #C36B19",
"c  c #CA7315",
"v  c #C87319",
"b  c #CF7514",
"n  c #C77326",
"m  c #961B59",
"M  c #851650",
"N  c #873552",
"B  c #8D394A",
"V  c #8D1E6D",
"C  c #9B2168",
"Z  c #883366",
"A  c #82257E",
"S  c #893776",
"D  c #A8236B",
"F  c #B8246C",
"G  c #B92673",
"H  c #AB2577",
"J  c #A01D63",
"K  c #CC2A77",
"L  c #C72877",
"P  c #D32C7B",
"I  c #D82B7E",
"U  c #D7377C",
"Y  c #C3266F",
"T  c #954E51",
"R  c #A54A56",
"E  c #96774E",
"W  c #AA7855",
"Q  c #955178",
"!  c #A55478",
"~  c #8A7868",
"^  c #937E6B",
"/  c #8E7F72",
"(  c #AF7065",
")  c #D84D7C",
"_  c #C96D70",
"`  c #CD7D40",
"'  c #3B9678",
"]  c #3F9D53",
"[  c #429F52",
"{  c #639070",
"}  c #50AB62",
"|  c #579B5D",
" . c #AB9D2F",
".. c #E9A818",
"X. c #DA8C3D",
"o. c #EDB324",
"O. c #DC8C1B",
"+. c #EDD135",
"@. c #FCE736",
"#. c #CEC32A",
"$. c #AE8355",
"%. c #B38758",
"&. c #BC915F",
"*. c #958372",
"=. c #9C8A76",
"-. c #9E8B7A",
";. c #998775",
":. c #8A837B",
">. c #BD9267",
",. c #A18E7C",
"<. c #A4917D",
"1. c #B2977A",
"2. c #B58474",
"3. c #9AA14D",
"4. c #D08A4B",
"5. c #D2A743",
"6. c #F3AC54",
"7. c #CE9778",
"8. c #D99874",
"9. c #D69863",
"0. c #DBA778",
"q. c #C2A876",
"w. c #EBA978",
"e. c #F3A97A",
"r. c #F5B57D",
"t. c #E8A762",
"y. c #E39948",
"u. c #80C157",
"i. c #F3DC45",
"p. c #FDD56A",
"a. c #E7E048",
"s. c #1B3895",
"d. c #2B2C89",
"f. c #253893",
"g. c #2E318C",
"h. c #5B2E83",
"j. c #5C3381",
"k. c #64358B",
"l. c #6B3797",
"z. c #612E8A",
"x. c #733CA3",
"c. c #7E1F80",
"v. c #24439B",
"b. c #327586",
"n. c #1F53A4",
"m. c #2353A4",
"M. c #1967B2",
"N. c #1875BA",
"B. c #326DA1",
"V. c #504C8B",
"C. c #74429E",
"Z. c #53658F",
"A. c #7944A5",
"S. c #7C47A9",
"D. c #7C4CAE",
"F. c #6D76AB",
"G. c #6C7F8E",
"H. c #841E82",
"J. c #832482",
"K. c #8A2988",
"L. c #922C8D",
"P. c #92258A",
"I. c #95348D",
"U. c #952C91",
"Y. c #962A92",
"T. c #953392",
"R. c #9A3495",
"E. c #9D3797",
"W. c #A33B9E",
"Q. c #B02C83",
"!. c #A53EA1",
"~. c #D92D81",
"^. c #D62F81",
"/. c #DB3285",
"(. c #DD348A",
"). c #DA3686",
"_. c #DF3A90",
"`. c #C33487",
"'. c #E13C93",
"]. c #894A8B",
"[. c #924E90",
"{. c #A84787",
"}. c #A84B8D",
"|. c #814AAD",
" X c #8553AB",
".X c #834CB2",
"XX c #8651B3",
"oX c #8C5AB7",
"OX c #905AA1",
"+X c #B14BA2",
"@X c #8963B3",
"#X c #9264B9",
"$X c #8A68A5",
"%X c #A1718C",
"&X c #DF438C",
"*X c #CF559F",
"=X c #E0468D",
"-X c #E34097",
";X c #EB78AA",
":X c #DF72B0",
">X c #986BC2",
",X c #A57CC6",
"<X c #018D82",
"1X c #0D918C",
"2X c #0DA9A5",
"3X c #3DAE85",
"4X c #778994",
"5X c #5199B0",
"6X c #5F9795",
"7X c #7D93C0",
"8X c #A69382",
"9X c #AC9985",
"0X c #AC9988",
"qX c #B29D89",
"wX c #B9A48C",
"eX c #B5A391",
"rX c #BCA993",
"tX c #BCAB99",
"yX c #B089AF",
"uX c #96A9B1",
"iX c #F29090",
"pX c #C1AD95",
"aX c #D3AF8E",
"sX c #ECB387",
"dX c #F9BA84",
"fX c #FABB8B",
"gX c #F6B684",
"hX c #F9BE93",
"jX c #F0AF8F",
"kX c #C7B5A3",
"lX c #E18FA0",
"zX c #FCC59B",
"xX c #F9C197",
"cX c #FCCAA6",
"vX c #A680C9",
"bX c None",
/* pixels */
"bXbXbXbXbXbXbXbXbXbXbXbXbXbXbXbXbXbXbXbXbXbXbXbXbXbXbXbXbXbXbXbXbXbXbXbXbXbXbXbXbXbXbXbXbXbXbXbXbXbXbXbXbXbXbXbXbXbXbXbXbXbXbXbX",
"bXbXbXbXbXbXbXbXbXbXbXbXbXbXbXbXbXbXbXbXbXbXbXbXbXbXbXbXbXbXbXbXbXbXbXbXbXbXbXbXbXbXbXbXbXbXbXbXbXbXbXbXbXbXbXbXbXbXbXbXbXbXbXbX",
"bXbXbXbXbXbXbXbXbXbXbXbXbXbXbXbXbXbXbXbXbXbXbXbXbXbXbXbXbXbXbXbXbXbXbXbXbXbXbXbXbXbXbXbXbXbXbXbXbXbXbXbXbXbXbXbXbXbXbXbXbXbXbXbX",
"bXbXbXbXbXbXbXbXbXbXbXbXbXbXbXbXbXbXbXbXbXbXbXbXbXbXbXbXbXbXbXbXbXbXbXbXbXbXbXbXbXbXbXbXbXbXbXbXbXbXbXbXbXbXbXbXbXbXbXbXbXbXbXbX",
"bXbXbXbXbXbXbXbXbXbXbXbXbXbXbXbXbXbXbXbXbXbXbXbXbXbXbXbXbXbXbXbXbXbXbXbXbXbXbXbXbXbXbXbXbXbXbXbXbXbXbXbXbXbXbXbXbXbXbXbXbXbXbXbX",
"bXbXbXbXbXbXbXbXbXbXbXbXbXbXbXbXbXbXbXbXbXbXbXbXbXbXbXbXbXbXbXbXbXbXbXbXbXbXbXbXbXbXbXbXbXbXbXbXbXbXbXbXbXbXbXbXbXbXbXbXbXbXbXbX",
"bXbXbXbXbXbXbXbXbXbXbXbXbXbXbXbXbXbXbXbXbXbXbXbXbXbXbXbXbXbXbXbXbXbXbXbXbXbXbXbXbXbXbXbXbXbXbXbXbXbXbXbXbXbXbXbXbXbXbXbXbXbXbXbX",
"bXbXbXbXbXbXbXbXbXbXbXbXbXbXbXbXbXbXbXbXbXbXbXbXbXbXbXbXbXbXbXbXbX>XoXoX#X>XbXbXbXbXbXbXbXbXbXbXbXbXbXbXbXbXbXbXbXbXbXbXbXbXbXbX",
"bXbXbXbXbXbXbXbXbXbXbXbXbXbXbXbXbXbXbXbXbXbXbXbXbXbXbXbXbXbXbXbXoXXX.X.X.X.XoXbXbXbXbXbXbXbXbXbXbXbXbXbXbXbXbXbXbXbXbXbXbXbXbXbX",
"bXbXbXbXbXbXbXbXbXbXbXbXbXbXbXbXbXbXbXbXbXbXbXbXbXbXbXbXbXbXbXXX.X.X.X.X.XS..X#XbXbXbXbXbXbXbXbXbXbXbXbXbXbXbXbXbXbXbXbXbXbXbXbX",
"bXbXbXbXbXbXbXbXbXbXbXbXbXbXbXbXbXbXbXbXbXbXbXbXbXbXbXbXbXbXF.8XOX.X.X.X.X.X.X.X#XbXbXbXbXbXbXbXbXbXbXbXbXbXbXbXbXbXbXbXbXbXbXbX",
"bXbXbXbXbXbXbXbXbXbXbXbXbXbXbXbXbXbXbXbXbXbXbXbXbXbXbXbXbX2X' ..o.y.8XOX.X.X.XS.oX#XbX#X@XbXbXbXbXbXbXbXbXbXbXbXbXbXbXbXbXbXbXbX",
"bXbXbXbXbXbXbXbXbXbXbXbXbXbXbXbXbXbXbXbXbXbXbXbXbXbXbXbX2X2Xu. .{  ...&.D.D.D.D.S.oX#X XD.|.bXbXbXbXbXbXbXbXbXbXbXbXbXbXbXbXbXbX",
"bXbXbXbXbXbXbXbXbXbXbXbXbXbXbXbXbXbXbXbXbXbXbXbXbXbXbXvX5X5X#.3.1X' O.E 1XZ.D.A.C.S.oXS.A.A.S.bXbXbXbXbXbXbXbXbXbXbXbXbXbXbXbXbX",
"bXbXbXbXbXbXbXbXbXbXbXbXbXbXbXbXbXbXbXbXbXbXbXbXvX,XvXvX,X,XyXq.3.#.O.' ' <Xb.V.k.A.S.l.k.k.A.XX|.A.A.S.A.z.= bXbXbXbXbXbXbXbXbX",
"bXbXbXbXbXbXbXbXbXbXbXbXbXbXbXbXbXbXbXbXbXbXbX,X>XoXoXD..XoX#X>XyX9.3.<X<X<X' bXbXk.k.j.bXbXk.x.l.h.j.j.= - bXbXbXbXbXbXbXbXbXbX",
"bX@.bXbXbXbXbXbXbXbXbXbXbXbXbXbXbXbXbXbXbXbX,X Xx.[.[.[.OX.X.XD.|.oXF.5X<X' 1 bXbXbXbXbXbXbX= k.= bXbXbXbXbXbXbXbXbXbXbXbXbXbXbX",
"bXbXbXbXbXbXbXbXbXbXbXbXbXbXbXbXbXbXbXbXbX$X- X X e s n ` l 2.! [.|.|. XF.F.b.bXbXbXbXbXbXbXbX= bXbXbXbXbXbXbXbXbXbXbXbXbXbXbXbX",
"bXbXbXbXbXbXbXbXbXbXbXbXbXbXbXbXbXbXbXbXbXbXbXbX  x b t.X.y.gXX.gXjXlX%Xx.|.D.D.bXbXbXbXbXbXbXbXbXbXbXbXbXbXbXbXbXbXbXbXbXbXbXbX",
"bXbXbXbXbXbXbXbXbX@.bXbXbXbXbXbXbXbXbXbXbXbXbXbXbXO.t.gXt.hXzXzXzXsXxXw.4.R Q x.x.l.bXbXbXbXbXbXbXbXbXbXbXbXbXbXbXbXbXbXbXbXbXbX",
"bXbXbXbXbXbXbXo.bXbXbXbXbXbXbXbXbXbXbXbXbXbXbXbXbXr.hXhX1.aXcXcX9XaXxXfXr.n i T Q l.l.l.bXbXbXbXbXbXbXbXbXbXbXbXbXbXbXbXbXbXbXbX",
"bXbXbXbXbXbXbXbXbXbXbXbXbXbXbXbXbXbXbXbXbXbXbXbXbXgXhXhX3 8XcXcX4 ;.zXfXfXX.u u g < - = = - - bXbXbXbXbXbXbXbXbXbXbXbXbXbXbXbXbX",
"bXbXbXbXbXbXbXbXbXbXbXbXbXbXbXbXbXbXbXbXbXbXbXbXbXbXzXzXqXaXhXcXqXaXcXzXdXX.t r s z . . . bXbXbXbXbXbXbXbXbXbXbXbXbXbXbXbXbXbXbX",
"bXbXbXbXbXbXbXbXbXbXbXbXbXbXbXbXbXbXbXbXbXbXbXbXbXbXhXxXhXhXhXhXxXzXcXzXe.l q y p g bXbXbXbXbXbXbXbXbXbXbXbXbXbXbXbXbXbXbXbXbXbX",
"bXbXbXbXbXbXbXbXbXbXbXbXbXbX~ ^ bXbXbXbXbXbXbXbXbXf 9.xXfXjXjXaXsXhXfXdX4.q 8 w u f c bXbXbXbXbXbXbXbXbXbXbXbXbXbXbXbXbXbXbXbXbX",
"bXbXbXbXbXbXbXbXbXbXbXbXbXbXbX~ bXbXbXbXbXbXbXbXbXc n 9.gXfX8.8.fXfXdX8.R 8 8 q t f g r bXbXbXs bXbXbXbXbXbXbXbXbXbXbXbXbXbXbXbX",
"bXbXbXbXbXbXbXbXbXbXbXbXbXbXbX~ bXbXbXbXbXbXbXbXbXb f u _ jXgXgXgXjX;X{.S S 9 w q p x v bXc f y bXb f s x v c c bXbXbXbXbXbXbXbX",
"bXbXbXbXbXbXbXbXbXbXbXbXbXbXbXbX=.bXbXbXbXbXbXbXbXbXc R E.:XiXgXe.iX=XA J.K.K.j q e i a a f g v v g p n f p p a x c bXbXbXbXbXbX",
"bXbXbXbXbXbXbXbXbXbXbXbXbXbXbXbX&.w.bXbXbXbXbXbXbXbX{.I.U.+X:XlX;X*XI.c.K.L.J.Z h q w e t a g a t y f p i u u u r a c bXbXbXbXbX",
"bXbXbXbXbXbXbXbXbXbXbXbXbXbXbXe.>.0.e.bXbXbXbXbXbXE.U.E.E.K.L.}.}.K.J.A A J.J.: N q q w t t e q e u t e i p g v c bXbXbXbXbXbXbX",
"bXbXbXbXbXbXbXbXbXbXbXbXbXbXbXdXsXw.w.}.Y.Y.T.R.E.T.R.R.A J.K.( W L.K.c.> : J.: > 9 q q q q 8 q e w q e t u a a f c bXbXbXbXbXbX",
"bXbXbXbXbXbXbXbXbXbXbXbXbXbXbXfXfXsXw.{.P.Y.Y.U.T.R.E.K.> A P.5.+.E.T.J.; ; : : : ; h q q q q q q q q e p s p r r s c bXbXbXbXbX",
"bXbXbXbXbXbXbXbXbXbXbXbXbXbXbXdXxXaX8.{.P.Y.R.W.W.W.U.> bXH.J.{.! U.T.c.N k ; $ > # N q e q q q q e t p a f x bXbXr s bXbXbXbXbX",
"bXbXbXbXbXbXbXbXbXbXbXbXbXbXbXr.r.0.7.! P.Y.W.!.+XR.> bXbXbXH.P.L.T.T.J.; i t N # & > j p u q q q w e u bXbXbXbXbXbXbXbXbXbXbXbX",
"bXbXbXbXbXbXbXbXbXbXbXbXbXbXbXbXbXbX^ bX% Y.R.W.W.J.* bXbXbXbXP.K.T.K.J.@ 9 u j & * & T f v i e y y bXbXbXbXbXbXbXbXbXbXbXbXbXbX",
"bXbXbXbXbXbXbXbXbXbXbXbXbXbXbXbXbXbXbXbX# Y.Y.R.P.% bXbXbXbXbXJ.K.K.K.c.& @ bX9 # > & ; y v v bXbXbXbXbXbXbXbXbXbXbXbXbXbXbXbXbX",
"bXbXbXbXbXbXbXbXbXbXbXbXbXbXbXbXbXbXbXbX@ P.P.P.% bXbXbXbXbXJ.J.J.J.c.c.# @ bX+ c.c.> * bXp c bXbXbXbXbXbXbXbXbXbXbXbXbXbXbXbXbX",
"bXbXbXbXbXbXbXbXbXbXbXbXbXbXbXbXbXbXbXbXbX@ P.J.* bXbXbXbX).`.Q.Q.P.J.c.$ @ bX@ c.6 7 5 bXbXbXbXbXbXbXbXbXbXbXbXbXbXbXbXbXbXbXbX",
"bXbXbXbXbXbXbXbXbXbXbXbXbXbX&.>.9.bXbXbXbX< # # bXbXbX_./.^.I I P K L H # @ + & c.7 } [ bXbXbXbXbXbXbXbXbXbXbXbXbXbXbXbXbXbXbXbX",
"bXbXbXbXbXbXbXbXbXbXbXbXbXbX$.%.$.%.%.%.%.E 6 bXbXbX)./.(././.~.P P P K Y V @ $ S { } [ bXbXbXbXbXbXbXbXbXbXbXbXbXbXbXbXbXbXbXbX",
"bXbXbXbXbXbXbXbXbXbXbXbXbXbX%.&.%.$.%.$.$.%.$.$._ =X(.(._._.(./.I P K K L D # : A { } [ bXbXbXbXbXbXbXbXbXbXbXbXbXbXbXbXbXbXbXbX",
"bXbXbXbXbXbXbXbXbXbXbXbXbXbXbXbXbXbXbXbXbXbX$.$._ (.(._.'.'.'./.^.P P K H C $ : A 6 6 5 bXbXbXbXbXbXbXbXbXbXbXbXbXbXbXbXbXbXbXbX",
"bXbXbXbXbXbXbXbXbXbXbXbXbXbXbXbXbXbXbXbXbXbXbXbX=X(.(.'.'.-X'.(./.P P G D Z > # $ $ & # , bXbXbXbXbXbXbX8X<.bXbXbXbXbXbXbXbXbXbX",
"bXbXbXbXbXbXbXbXbXbXbXbXbXbXbXbXbXbXbXbXbXbXbXbX=X(.(.'.'.-X'.(./.P K D R E ( Q # S , > > bXbXbXbXbX-.=.,.8X0X0XqXqXwXbXpXqXbXbX",
"bXbXbXbXbXbXbXbXbXbXbXbXbXbXbXbXbXbXbXbXbXbXbXbX=X~.(.(._.'.(././.P K D bXW 0.w.7.0.0.7.T 3 bXbX*./ ^ *.;.8X8X8X9X9X9X9X,.*.bXbX",
"bXbXbXbXbXbXbXbXbXbXbXbXbXbXbXbXbXbXbXbXbXbXbXbX=X/.~.(.(.(.)./.^.P K D bXbXbXbXgXsX0.0.z 3 4XuX:./ -.0XqXqX0X0X0X8X-.=.,.bXbXbX",
"bXbXbXbXbXbXbXbXbXbXbXbXbXbXbXbXbXbXbXbXbXbXbXbXbX).~.~././././.P P L D bXbXbXbXbXbXbXbXbX2 4X4X/ *.8X0XtXkXkXkXkXtXrXrXpXpXbXbX",
"bXbXbXbXbXbXbXbXbXbXbXbXbXbXbXbXbXbXbXbXbXbXbXbXbX).~.~.~.~./.I P P P G D bXbXbXbXbXbXbXbXbXbXbX~ *.8X0XeXtXtXtXtXrXwXwXwXbXbXbX",
"bXbXbXbXbXbXbXbXbXbXbXbXbXbXbXbXbXbXbXbXbXbXbXbXbX&X~.I I I I I P U P P G D D J D m C bXbXbXbXbX~ ~ ;.0XeXeXtXtXeX0X<.,.=.*.bXbX",
"bXbXbXbXbXbXbXbXbXbXbXbXbXbXbXbXbXbXbXbXbXbXbXbXbXbX).bXU U I U bXe.e.) L G F F F F C m bXbXbXbXbX/ *.8X8X9X0XeXeXtXpXwXwX9X*.bX",
"bXbXbXbXbXbXbXbXbXbXbXbXbXbXbXbXbXbXbXbXbXbXbXbXbXbXbXbXbXjXiXjXbXbXr.dX) L Y Y F F D m bXbXbXbXbXbX/ -.8X<.,.=.;.-.9XrXpXbXbXbX",
"bXbXbXbXbXbXbXbXbXbXbXbXbXbXbXbXbXbXbXbXbXbXbXbXbXbXbXbXbXp.p.6.bXbXr.xXr.6.bXbXbXbXF D m m m M bXbXbXbX=.8X9X9X8X;./ ,.wXbXbXbX",
"bXbXbXbXbXbXbXbXbXbXbXbXbXbXbXbXbXbXbXbXbXbXs.bXbXbXbXbX6Xi.@.o.bXbXbXp.i.o.bXbXbXbXbXbXbXbXm bXbXbXbXbXbXbX=.<.9X9XbX^ *.bXbXbX",
"bXbXbXbXbXbXbXbXbXbXbXbXbXbXbXbXbXbXbXbXbXbXs.v.bXbXbXM.M.7 7 2 bXbXbXa.i.E o bXbXbXbXbXbXbXbXbXbXbXbXbXbXbXbXbXbX-.bXbXbXbXbXbX",
"bXbXbXbXbXbXbXbXbXbXbXbXbXbXbXbXbXbXbXbXbXbXf.s.f.M.n.n.f.g.g.O bXbXbXB.V.g.o O bXbXbXbXbXbXbXbXbXbXbXbXbXbXbXbXbXbXbXbXbXbXbXbX",
"bXbXbXbXbXbXbXbXbXbXbXbXbXbXbXbXbXbXbXbXbXbXbXbXf.s.f.d.bXg.d.O bXbXbXM.v.g.g.bXbXbXbXbXbXbXbXbXbXbXbXbXbXbXbXbXbXbXbXbXbXbXbXbX",
"bXbXbXbXbXbXbXbXbXbXbXbXbXbXbXbXbXbXbXbXbXbXbXbXbXbXbXbXbXbXbXbXbXbXM.m.g.bXbXbXbXbXbXbXbXbXbXbXbXbXbXbXbXbXbXbXbXbXbXbXbXbXbXbX",
"bXbXbXbXbXbXbXbXbXbXbXbXbXbXbXbXbXbXbXbXbXbXbXbXbXbXbXbXbXbXs.bXbXN.m.f.g.bXbXbXbXbXbXbXbXbXbXbXbXbXbXbXbXbXbXbXbXbXbXbXbXbXbXbX",
"bXbXbXbXbXbXbXbXbXbXbXbXbXbXbXbXbXbXbXbXbXbXbXbXbXbXbXbXbXbXs.s.s.v.f.bXbXbXbXbXbXbXbXbXbXbXbXbXbXbXbXbXbXbXbXbXbXbXbXbXbXbXbXbX",
"bXbXbXbXbXbXbXbXbXbXbXbXbXbXbXbXbXbXbXbXbXbXbXbXbXbXbXbXbXbXbXs.s.bXbXbXbXbXbXbXbXbXbXbXbXbXbXbXbXbXbXbXbXbXbXbXbXbXbXbXbXbXbXbX",
"bXbXbXbXbXbXbXbXbXbXbXbXbXbXbXbXbXbXbXbXbXbXbXbXbXbXbXbXbXbXbXbXbXbXbXbXbXbXbXbXbXbXbXbXbXbXbXbXbXbXbXbXbXbXbXbXbXbXbXbXbXbXbXbX",
"bXbXbXbXbXbXbXbXbXbXbXbXbXbXbXbXbXbXbXbXbXbXbXbXbXbXbXbXbXbXbXbXbXbXbXbXbXbXbXbXbXbXbXbXbXbXbXbXbXbXbXbXbXbXbXbXbXbXbXbXbXbXbXbX",
"bXbXbXbXbXbXbXbXbXbXbXbXbXbXbXbXbXbXbXbXbXbXbXbXbXbXbXbXbXbXbXbXbXbXbXbXbXbXbXbXbXbXbXbXbXbXbXbXbXbXbXbXbXbXbXbXbXbXbXbXbXbXbXbX",
"bXbXbXbXbXbXbXbXbXbXbXbXbXbXbXbXbXbXbXbXbXbXbXbXbXbXbXbXbXbXbXbXbXbXbXbXbXbXbXbXbXbXbXbXbXbXbXbXbXbXbXbXbXbXbXbXbXbXbXbXbXbXbXbX"
};
