/* XPM */
static char *a8251c13668549cadad1e9761e31f167OfzENNaH7Gn48EYz[] = {
/* columns rows colors chars-per-pixel */
"64 64 103 2 ",
"   c #FCFDFF",
".  c #FBFCFD",
"X  c #CED4D9",
"o  c #FCFDFE",
"O  c #FDFDFD",
"+  c #D3D9DF",
"@  c #FEFFFF",
"#  c #FCFEFD",
"$  c #FBFCFF",
"%  c white",
"&  c #F9FBFC",
"*  c #D1D6DC",
"=  c #F8F9FB",
"-  c #363831",
";  c #DAE1E6",
":  c #FEFFFE",
">  c #D6DDE2",
",  c #404138",
"<  c #010303",
"1  c #46473D",
"2  c #3B3D34",
"3  c #58584B",
"4  c #080E0D",
"5  c #33352E",
"6  c #B3BDC5",
"7  c #1D201A",
"8  c #B6BFC8",
"9  c #BCC5CC",
"0  c #4C4D42",
"q  c #F9FBFA",
"w  c #CAD1D6",
"e  c #0A1419",
"r  c #C4CCD2",
"t  c #5F5E50",
"y  c #515044",
"u  c #ABB8C0",
"i  c #B9C3C9",
"p  c #535449",
"a  c #F6F7F9",
"s  c #A6B4BC",
"d  c #AFBBC3",
"f  c #DEE5EA",
"g  c #2F312A",
"h  c #6A6554",
"j  c #646253",
"k  c #A2AFB7",
"l  c #C0C8CE",
"z  c #121611",
"x  c #77705E",
"c  c #5B5B4F",
"v  c #82909B",
"b  c #2A2C25",
"n  c #988C7B",
"m  c #97A7B0",
"M  c #E4E9EC",
"N  c #6C695A",
"B  c #242620",
"V  c #736B58",
"C  c #8E8473",
"Z  c #94A2AB",
"A  c #677986",
"S  c #8998A1",
"D  c #887D66",
"F  c #7C7565",
"G  c #9DABB4",
"H  c #827762",
"J  c #635D4C",
"K  c #9A9B98",
"L  c #EAEFF2",
"P  c #8F9EA8",
"I  c #73828D",
"U  c #3E525F",
"Y  c #4F606F",
"T  c #F1F2F4",
"R  c #868070",
"E  c #596C7B",
"W  c #223039",
"Q  c #121F26",
"!  c #8F918C",
"~  c #435A6C",
"^  c #788996",
"/  c #5E5748",
"(  c #ADB0B0",
")  c #354855",
"_  c #2C383D",
"`  c #4B6577",
"'  c #C4C4C0",
"]  c #C2AD87",
"[  c #5D615E",
"{  c #B4B7B6",
"}  c #1A2830",
"|  c #ABA08C",
" . c #A6967C",
".. c #2B3F4C",
"X. c #283C49",
"o. c #2F4352",
"O. c #535855",
"+. c #E3D4B2",
"@. c #D9C69D",
"#. c #637070",
"$. c #FBF8F0",
"%. c #C0B9AC",
"&. c #273A44",
/* pixels */
".                                                                                         o o                 .                 ",
"o : # # # # # # # # # #     # # # # #     # # # # # # # # # # #     # #     # # #       # # # # # # # # # #     # # # # # # # : ",
"  : # # # # # # # # #       # # # #         # # # # #   # # # # #   #           #       # # # # # # # # # # # # # # # # # #   # ",
"o : # # # # # # # #     # # # # # # # # # # # # # # #   # # # # # # # #     # # # # # # # # # # # # # # # # # # # # # # #     # ",
"o : # # # # # # # #     # # # # #     # # o # # # # # # # # # # # # # #     # # # # # # # # # # # # # # # # # # # # # # # # # # ",
"o : # # # # # # #   # # # # # # # #   # # # # # # # # # # # : # # # # # # # # # # # # # # # # # # # # # # # # # # # # # # # # # ",
"o : # # # # # # # # # # # # # # # #       # # # # # # # # . . . . . # # # o # # # o # # # # # # # # # # # : # # # # # # # # # : ",
"o : # #     # # # # # # # # # # # #     # # # # # # q q # % % % % % q q . # # # # # # # # # # # # # # # # # # # # # # # # # # : ",
"o : # #         # # # # # # # # # #   # # # # # q O % % @ M * * f & % % : q # # # # # # # # # # # # # # # # # # # # # # # # # : ",
"o : # #   #   # # # # # # # # # # # # # # # # q % % l ^ U W } Q W ) A d & % q . # # # # # # # # # # # # # # # # # # # # # o # : ",
"o : #       # # # # # # # # # #     # # # . O % l Y Q e 4 < < < < 4 4 e ) i % O .     # # # # #   #   # # # # # # # # # # # # : ",
"o : #     # # #   #   # # # # # # # # # .   @ v Q e e < e _ U U _ e < 4 4 Q S % # .   #     #     #     # # # # # # # # # # # : ",
"o : #     # #     #     # # # #   # # . o @ I e e 4 e I d r r r 9 d I Q < e e v % . # #     # # #       # # # #       # # # # : ",
"o : #   # # #                 #   # # q % S e e < _ k u i * ; ; w { ( m _ < z Q u % q #     # #             # #       # # # # : ",
"o :       #     O # # #           # q % r } e < W k Z ; % % % % % % > v S _ < 4 ) L % .     #                 #     #     # # : ",
"o :               # # #         # # O @ E e 4 4 Z P a % q & . . q q % a I I Q 4 e m % q # # #             # # #     #       # : ",
"o :                         # # # & % w W e < [ k ; % q   #     # # q % > E ) < < Y % O # # #               # #               : ",
"o :   # O                 # # # # q % S e 4 < S i % q       O       # q % S ) e < &.M % . #                 #                 : ",
"o : #                     # # o # # $ E e < Q k > % . #     O O     # q % 8 ~ Q < Q w % q # #     #   #           #           # ",
"o : #                       # # . % L ~ e < W s M % . #             # & % X ` } < e i % q #   # #                   O       # : ",
"o :                             . % M U e < _ G L % .         #   # # & % + ` W < e d % . #                                 # : ",
"o :         #                   . % f U e < _ m L % .       # # # #   & % > ` W < e d % . #                             #   # : ",
"o #             #     #         . % f U e < _ m L % .       # #       & % > ` W < e d % . # #                       # #   # # : ",
"o : #           # # #           . % f ~ e < W P L % .       # #       . % > ` W < e u @ O # #     #           # #     #       # ",
"o : #             # #           . % M ~ e < } ^ T % . # # # # #   #   . % > ` W < e u # O # o #   #         # # #   # #       # ",
"  @ #     #     # # #     . q q a : f ~ e < } A L O q q q q q q q q q a % X ~ W < e s = q q q q # # # # #   # #     #   #     # ",
"o : #       #     #   # . % % % % % = E e < Q #.@ % % % % % % % % % % % % f U } < e 6 % % % % % O # # # # # # # #           # # ",
"o : #     # #         . % + ! ! ! K ! O.z z 7 3 K K K K K K K K K K K K K ! 2 z z z [ ! ! ! ! ( % . # # o #                 # # ",
"o : #         # #     q % ( < 4 4 4 z B 5 - 5 b B 7 7 7 7 7 7 7 7 7 7 7 7 7 g g g b 7 4 < < < 0 % q o   O O   # #           # # ",
"o : #   # # # # #     & % ( 4 7 7 B g 5 - 2 - - - - - - - - - - - 5 5 5 5 5 5 - 5 g g b B 7 4 O.% q #       # # #         # # : ",
"  : # #   # # # # #   & % ( 4 7 B B b 5 - - - 5 5 5 5 5 5 g 5 5 5 g g g g g 5 5 5 g b B 7 7 4 O.% q       # # #           # # : ",
"o :                   & % ( z B B b g - 2 2 2 - - - - - 5 5 - - 5 5 - - - - - - - - g b B 7 4 O.% &     o             #     # : ",
"o # #     #           & % ( z B b g - 2 , , , 2 , 2 2 2 2 2 2 2 2 2 - - 2 2 2 2 2 2 - g b B z [ % q O #             # # #     # ",
"o # # # # # # # # O O q % { 7 g 5 - , 1 0 1 1 1 1 1 1 , , , 2 , , , , , , , , 1 , , 2 - b b z [ % q . O # # # # #   # # #     # ",
"o . . . . . . . . . . = % { 7 g g - , 1 0 0 0 1 1 1 1 , , , , , , , , , 1 1 1 1 1 1 , - g g 7 [ % q . . . . . . O O O O # O O O ",
"o . . . # q # # . # . q % { b - - , 1 y p p p 0 0 0 0 1 1 1 1 1 1 1 0 1 1 1 0 0 0 0 1 , - - B N % q . . . . . . . . . . . . . O ",
"o . q . . . # q # q . q % { g 2 , 1 y 3 c c 3 p p y y y y 0 0 0 0 0 0 0 y p y p 3 3 y 0 , , g x % q . # q q # q q q . # . q # . ",
". . q . . . . . . # . q % ' 5 , 1 0 / t t c 3 c 3 p p p p y p y 0 y 0 y y p p p p p p 0 , , g F % q q . q . . q . q & . & & & . ",
". q . q q . . . # q . q % ' 2 0 0 y J h h j t c 3 3 3 p p p p p y y y p 3 3 c t t t c 3 y y , R % & & & & . . . . . . . . & . . ",
". q q . q q q q q . q = % ' 1 y / J h N N N j j j t c 3 3 3 3 3 3 3 3 c t t j j j j h j / / 1 R % & & & & . . . . . . & & & & . ",
". q . q . q . . q O q q % ' y / J h x x x N h j j t 3 3 3 3 3 3 3 3 c c t j h N N V V h h J y C % = & . & & & & & & & & . & . & ",
"& & & . q . q . & & q q % ' / h V x F H F x x V N h j t t t t c t t t t j h N N x x x V V h / n % & & & . & . & . & . & & & & & ",
"& . & & & & & & & . & = % ' h V x H D D D F x V h h j j J J t t t t j h h V V x F H H F x V J n % & & . & & & & & & & & . & . & ",
"& & & . & . & . & & & = % w x H H D D D D H x V V h j j J J J J t J t j h N V x H D D H H H h ! % & & & . & . & . & . & & & & & ",
"& . & & & & & & & . & = % X H D C C C R D F x N h j J / 3 c c 3 3 3 c t j h V x H D D D H D V K % & & . & & & & & & & & . & . & ",
"& & & . & . & . & & & = % X C n n n C C R F x N h h t t j 5 B 3 c c t j N N x F D R C C C R F | % & & & . & . & . & . & & & & & ",
"& & & & & & & & & & & & % * n n n n C R F x N j t c 3 p 3 z < , y y p 3 t j N x F R C C C C D | % & & . & & & & & & & & & & & & ",
"& = a a = = = = & & = = % * n n n n C F F N c p y 0 1 , 1 7 < - , , 1 1 0 p t N F R C C n n R ( % & & & & & & & & = = = = a a = ",
"= a a a a a a a a = = a   > | |  .n R F j c y 1 , 2 - - - z < b - 5 - - 2 1 y t N F C n n  .n %.@ & & = = = a a a a a a a a a a ",
"a a a a a a a = a = & = : M ] ] | n F N 3 1 2 5 b b b B B 4 < 7 B B B B b g 2 0 / V D n  .] ] +.@ & & & = a a a a a a a a a a a ",
"a T a T a a a & . # : % % $.+.@.]  .x p 2 b B 7 z z z z z 4 4 z z z z z z z 7 b , J D  .] @.+.M % : : : o & = a a a a a a a T a ",
"T T T T T a a a & . o . a ; 6 S #.p 1 - b B 7 z z 4 4 4 4 4 4 4 4 4 4 4 z z 7 B g - 1 p [ I 8 > L & o . = a a a a T T T T T T T ",
"M M M M M f f f f f M ; r k v A E ~ U U U ) ) o.o.....X.X.X.X.....o.o.) ) U U U ~ ~ Y E A ^ Z 6 w ; f f f f M M M M L L L L L L ",
"f f ; ; ; > > + + + X r d G P v ^ I A A E E E Y Y Y Y Y Y Y Y Y Y Y E E E E A A I I ^ v S Z k 8 r w * + > > ; ; ; ; f f f f M M ",
"f ; ; ; ; > + + * X w l 6 k m P S v v ^ ^ I I A A A A A A A A A A I I I ^ ^ v v S S S P Z G u i r w X * + + > > ; ; ; ; f f f f ",
"; ; ; > > + + + * X X r i u k G m Z P P S S S v v v v ^ v v v v v v S S S P P Z Z m m G k u 6 9 r w X * + + + > > > ; ; ; ; ; ; ",
"; > > > + + + * * X X r l 8 u s k G G m m Z Z Z P P P P P P P Z Z Z Z Z Z m m G k k s s d 8 9 l r w X * * + + + > + > > ; ; ; ; ",
"; > > + + + * * X X X w r 9 8 d u s s k k G G G m m m m m m m m m G G G k k k s s u d 6 8 9 l r r w X X * * + + + + > > > > > > ",
"> + + + + + * * X X X w r l 9 8 6 d u u s s s k k k k G G G k k k k s s s s u u d 6 8 8 9 9 l r w w X X * * + + + + + > > > > > ",
"+ + + + + * * * X X w X r l 9 9 i 8 6 d d u u u s s s s s s s s s s u u u d d 6 8 8 i 9 9 l l r w w X X * * * + + + + + + > > > ",
"> + + + * * * X X X w X w r l 9 9 8 8 6 6 6 d d d u u u u u u u u u d d 6 6 6 8 i i 9 9 9 l r r w X X X * * * * + + + + + + + > ",
"> > + * * * X X X w X w w r l l i i i 8 8 6 6 6 6 6 d d d d d d 6 6 6 6 6 6 8 8 i 9 9 9 l l r r w w X X X X * * + + + + + + + + ",
"i ; + + * * X * X X X w w r r l 9 9 i i 8 8 8 8 6 6 6 6 6 6 6 6 6 6 6 6 6 8 8 i 9 9 9 l l r r w w X X X X X * * + + + + + + + + ",
"( ; * + * * * X * X X X X r r r l 9 i i i i 8 8 8 8 8 8 8 8 8 8 8 8 8 i i i i i 9 9 9 l r r r w w X X X X * * * + + + + + + + + "
};
