/* XPM */
static char *_c1dd8a2462d4ba9fba88a7ad286162dvC4DryXIdXAp1H7R[] = {
/* columns rows colors chars-per-pixel */
"64 72 248 2 ",
"   c None",
".  c #010101",
"X  c #1F1D1A",
"o  c #1D1E26",
"O  c #282424",
"+  c #372D2A",
"@  c #2D1F19",
"#  c #4D2F1C",
"$  c #482C23",
"%  c #4B3428",
"&  c #543B2B",
"*  c #583C29",
"=  c #4E3E30",
"-  c #663E27",
";  c #703A2E",
":  c #5A4232",
">  c #594839",
",  c #5E422C",
"<  c #6A422A",
"1  c #764829",
"2  c #6C4D3B",
"3  c #684834",
"4  c #724C35",
"5  c #6A523D",
"6  c #7B5335",
"7  c #73523B",
"8  c #7B583C",
"9  c #393C46",
"0  c #7C5B43",
"q  c #755C4A",
"w  c #765945",
"e  c #6A5144",
"r  c #7C6655",
"t  c #716154",
"y  c #5C554B",
"u  c #834A2E",
"i  c #835433",
"p  c #855B3D",
"a  c #8B5C3C",
"s  c #885A37",
"d  c #955E39",
"f  c #954935",
"g  c #A75A3A",
"h  c #95613B",
"j  c #8F613D",
"k  c #A26A3C",
"l  c #865E46",
"z  c #8C6442",
"x  c #876449",
"c  c #946443",
"v  c #9B6B43",
"b  c #976A49",
"n  c #9B744D",
"m  c #8D6B53",
"M  c #826756",
"N  c #916F52",
"B  c #8F745C",
"V  c #9C7553",
"C  c #977559",
"Z  c #A47244",
"A  c #A3744B",
"S  c #AA7B4B",
"D  c #AA7648",
"F  c #B67B4A",
"G  c #A57B55",
"H  c #A67B56",
"J  c #B97B55",
"K  c #A16E44",
"L  c #9A7B66",
"P  c #8D6E61",
"I  c #A57965",
"U  c #B17E68",
"Y  c #AD5A47",
"T  c #C67C56",
"R  c #B6834E",
"E  c #AD855D",
"W  c #AC8457",
"Q  c #B48455",
"!  c #B4855A",
"~  c #B48A5E",
"^  c #BD8D5B",
"/  c #BB8756",
"(  c #BC905F",
")  c #978472",
"_  c #A48164",
"`  c #AA8768",
"'  c #B48B62",
"]  c #BC8E62",
"[  c #B38D6B",
"{  c #B8886B",
"}  c #BC9266",
"|  c #BB936C",
" . c #B5916C",
".. c #A88C74",
"X. c #B78D72",
"o. c #AC957C",
"O. c #B49373",
"+. c #BB9672",
"@. c #BD9A75",
"#. c #BC9B7B",
"$. c #B6967B",
"%. c #C38548",
"&. c #C48C5B",
"*. c #C68C55",
"=. c #C8935C",
"-. c #D39656",
";. c #C39564",
":. c #C2956A",
">. c #CA9C6B",
",. c #C99766",
"<. c #D39967",
"1. c #C39C74",
"2. c #CA9D72",
"3. c #C29E7A",
"4. c #C79B76",
"5. c #CA9470",
"6. c #D6A36A",
"7. c #CBA375",
"8. c #C5A27C",
"9. c #CAA47C",
"0. c #CEA87D",
"q. c #D3A574",
"w. c #DCAA72",
"e. c #D2A67B",
"r. c #D3AA7C",
"t. c #DBAC7B",
"y. c #D3A977",
"u. c #C7A06F",
"i. c #E2B27B",
"p. c #E0AA6F",
"a. c #A79584",
"s. c #B69C86",
"d. c #AF9D93",
"f. c #BCA288",
"g. c #B8A596",
"h. c #A7A09F",
"j. c #BAABA4",
"k. c #C09D96",
"l. c #C4A484",
"z. c #CAA584",
"x. c #CCAA85",
"c. c #C3A58A",
"v. c #C6A98B",
"b. c #CCAC8C",
"n. c #C9A68A",
"m. c #D3AC83",
"M. c #DCAF84",
"N. c #D1AD8A",
"B. c #D4A883",
"V. c #DDB283",
"C. c #D5B28C",
"Z. c #D9B38B",
"A. c #D5B185",
"S. c #C5AC95",
"D. c #CAAE93",
"F. c #C7AB99",
"G. c #DCAD96",
"H. c #CDB194",
"J. c #CCB39B",
"K. c #C7B19C",
"L. c #D3B595",
"P. c #DBB592",
"I. c #DCBA94",
"U. c #D3B69C",
"Y. c #D5B99B",
"T. c #DBBC9B",
"R. c #D9B597",
"E. c #CFB18E",
"W. c #E2B484",
"Q. c #E5BA8B",
"!. c #E6BA8B",
"~. c #E3BC92",
"^. c #E3BE9B",
"/. c #E6BA98",
"(. c #E1AD89",
"). c #C5B3A3",
"_. c #CBB5A3",
"`. c #CEBBA8",
"'. c #D4BCA4",
"]. c #DABEA3",
"[. c #D4BEAA",
"{. c #D9BAAA",
"}. c #CDB4AB",
"|. c #E4BEA3",
" X c #E2B4A1",
".X c #DFC09D",
"XX c #E3C19C",
"oX c #EBC49C",
"OX c #EBC396",
"+X c #DEC2A3",
"@X c #D5C1AC",
"#X c #DBC3AB",
"$X c #DDC6AC",
"%X c #CCC1B8",
"&X c #D4C2B1",
"*X c #DCC6B2",
"=X c #DEC9B4",
"-X c #DCCBBB",
";X c #D5C6BC",
":X c #E3C4A3",
">X c #EBCAA5",
",X c #E3C5AB",
"<X c #E4CAAD",
"1X c #EBCBAB",
"2X c #E9C6A7",
"3X c #F1CDA9",
"4X c #E3CCB4",
"5X c #EACDB3",
"6X c #E2CEBA",
"7X c #EACBB7",
"8X c #E7D0B5",
"9X c #EBD2B4",
"0X c #E5D1BD",
"qX c #EBD4BC",
"wX c #EDD8BF",
"eX c #F2D9BD",
"rX c #F1D4B7",
"tX c #ECD0AF",
"yX c #DBCDC2",
"uX c #D8CCC7",
"iX c #DFD1C5",
"pX c #DFD4CA",
"aX c #E2CFC0",
"sX c #E4D4C3",
"dX c #EBD6C3",
"fX c #ECDAC5",
"gX c #E3D5CB",
"hX c #E6D9CB",
"jX c #ECDCCB",
"kX c #E8D7C8",
"lX c #F2DBC4",
"zX c #F2DECB",
"xX c #F5DBC4",
"cX c #E6DBD3",
"vX c #EBDED2",
"bX c #F0DFD0",
"nX c #F5E2CE",
"mX c #EEE2D5",
"MX c #EBE3DB",
"NX c #E7E3DE",
"BX c #F4E4D3",
"VX c #F4E5DA",
"CX c #F7E9DA",
"ZX c #EBE8E4",
"AX c #F4ECE3",
"SX c #F5EEE7",
"DX c #F4F1ED",
"FX c #FCF5EC",
/* pixels */
"                                                                                                                                ",
"                                                    xXnX                                                                        ",
"                                                  9XxX2XAX                                                                      ",
"                                                  |.dXxXeX                                                                      ",
"                                                  /.xXbX7XCX                                                                    ",
"                                                qX1XzXzXeX|.                                                                    ",
"                                                7X XrXVXxX|.CX                                                                  ",
"                                                7X|.7XBXxX|.oXG.                                                                ",
"                                                zX X XxXxX3XoXnXt.                                                              ",
"                                                7X|.|.bXjXtXOX3X!.(.5X/.7X<X^.].                              c.X.              ",
"                                                |. X2X7XdX|.>XrX3X/.M.>.Z.B.N.B.Z.B.,X                    dX2X].0X              ",
"                                                7XG. XG.xXdXxXnX3XW./ 4.4.4.4.4.B.:.B.R.dX9X        B.B.<XZ.#X{.                ",
"                                                (.(.G.xXzXBXxXOXW.t.h oX! 9.Z.B.5.N./ ^.1X(.,.<.5.&.2X~.|.4X7X{.                ",
"                                              xX*.<.|.VXlXOXW.!.!.=.a :X| Z.C.2XZ.].;.2XrX(.J B.1XtXP.|.,X,XG.                  ",
"                                              tX5.T |.xX~.W.w.Z.p.*.h r.~.] 9.^ 2X^.Q ~.3XrX<X^.r.~.:X,X{.G.{.                  ",
"                                              G.&.B.|./.W.i.t.Q.<.%.V.1 R.! ,.1.:.c c (.W.OX1XN.4.N.].{.G.5.                    ",
"                                            fXT.>XoX~.Q.Q.V.~.<X;.F 1X1 9.Z ] v s c &.Z.m.,.~.,Xn.X.n.5.J G.                    ",
"                                            qX9X>X!.Q.Q.:XoX<.^.} r.eXk Z d A - 8.c D q.2.K ! m.X.H U { T ].                    ",
"                                            9X3X>XOX!.OX9XqX5X7Xe.1XtXq.S / 6 @.b.% ! b.G c h | n.D.k.l.n.                      ",
"                                          BX>X~.6.-.i.OXV.c 4 4 ~.nX>XZ.Q 7.} T.8.s T.T.| G d H ! {.F.f m.                      ",
"                                          nX>X/ D =.6.OXv.@.+ > l AXeXZ.S N.E n.[ 8.5XT.R.#.s v H X.< u R.                      ",
"                                          eXy.v ~.OXoXeXE ) 9 + j CXlXr.D 3._ [.G l G qX6Xl.a v :.b.; s R.                      ",
"                                          I.i ] >X!.6.<X[ $.y ~ % BXfXt.&.| _.` @ O = $ l.' D ] >.I.J.7                         ",
"                                          N.b 2XOXW.i.-.bX[ 8 3 U nX3XV.>.1.6X+ ..o O 7 L h k ^ B.~.5X'.                        ",
"                                          D.:XeXxXw.6.w.i.lXBXnX*.-.p.p.<.R 8.@ 2 O > % 4X1.:.s D 2.:XaX                        ",
"                                            jXeXnXqX&.=.,.u.XXoX%.%.%.-.%.g - b m < 3 n.'.q.m.V i W |.kX                        ",
"                                            2.,.*.q.<.t.XX>X>X>Xp.T g F F 1 < 7.fX4X#X3.Z / ^ H - l L.                          ",
"                                            |.,.V.P.wXnXnX9X6.OXeX1 f g ; 1 1 ~ N.3.[ z v F Q H 0 7 N.                          ",
"                                              fXqXzXVXAXBXtX.XeXFXgXY f 4 ` v ^ 8.G 6 i d Z ' X.C 2 N.                          ",
"                                              CXzX5X8XmXAXCXCXCXZXgXI {.gX;Xb.+.G #.+.v  .D.D.v.I 0 4X                          ",
"                                                BXnX9XmXAXFXAXMXcXF.; }.yXuX=X3.3.L.#XD.p z C 3.$.n.                            ",
"                                              cXmXbX2XwXmXSXDXNX;X;X}.k.uXgXyX'.#XsXcXsX[.| a 4 b jX                            ",
"                                            cXaX=XqXjXwXfXjXCXDXDXDXNXcXuXNXcXcXNXpX-XH.Y.@XD.#.*XzXmX                          ",
"                                            {.6XY.=XqX=XvXCXMXMXDXDXSXZXNXZXNXcXiXU.1.( Q z.#X=XjXjXbX                          ",
"                                          gX,X*X0X.XwX` #XsXmXMXZXSXZXZXZXNXcXaXsX$XY.E.$XyXs.O.6X,XjX                          ",
"                                          4X*X4XqX:XfX} f.0X$XE.{.gXNXNXcXNXcXcXiXhXhXiX&Xf.m n.aXqXVX                          ",
"                                        cX'.{.fX4X+XqXqXW [.6X$X.XY.@X+X{.4X=XyX-X_.S.#.K._ 8 +X7X4XjXVX                        ",
"                                        *X].6XjXqX:X<XfX<X' #.@X$XY.E.H.l.J.J.3.O.o.$.o.0 r [ '.N.].dXVX                        ",
"                                        [.].0XhXwXqX<X1XwX:.a W v.~ @. .~ ` X.O.#.O...8 4 b @.l.z.R.6XVX                        ",
"                                      pX#X*X#X0XfXjX8X>XwXfX0.v i Q d s j s < 8 n 7 6 p [ S.H.x.L.].sXmX                        ",
"                                      pX*X4X=X0X0XqX$XwX:XfXfXlXwX1X.XXXu.;.^ ~ @.E v..Xv.f.x.l.H.].kXjX                        ",
"                                      gX{.*X*X0X8X8X8XtX8XwXfXwX9X9X9X<X.X.Xr..X.X@XK.@X@X@XJ.O.z.#X{.kX                        ",
"                                      aX{.=X6X4X0X8XwX8XtX0.( .X8X<X9X$X8X+X.X<X$X.X.Xf.S.v.S.#.U.{.'.4X                        ",
"                                      K.'.=XaX#X@X$X.XA.} I.I.r.E..XfX.XE.+X8X0X*XE.v.f.H.@XO. .V 3.D.4X                        ",
"                                    yXD.#X$XsX6X=X+XA.4X8X8XqXjXfX$X0X0XE.C.0X+X0X=Xv.E.*X@X=X@XK.U.*XjXgX                      ",
"                                    F.U.6X#XkXsX-X0XjX8X8X0X4X0X8XL..X6XfX.XsXfX.X-X-X@X$X=XH.f.U.[.#XK.U.                      ",
"                                  )._ D.4X*X0X6X@X.XfXjX0X.XE.4X.X6X.X8XfXfXhX0X=X=X0X$X-X=X=X-XyXF.o.z.dX                      ",
"                                ;Xm _ D.=X=X6X0XH.W j p 6 ' .XsX=X0X=X0XhX0X$XwX*X0XhX-X0X-X-Xo.& # H U.6X                      ",
"                              uX.._ #.l.#X6X6XsX6X9.E ~ E.4X@X=XsX<XfX0XmX$X$XhX8XhX0X$X@Xf.q , < i b.].sX                      ",
"                              s.m [ o.J.[.4X-XsX6XwXfXqXE.H.H.Y.$X$X@X8XmX$X8X0XhXiX-X@Xf.# 6 n J.&XU.c.'.                      ",
"                            d.N 7 C ` S.-X6X=XjXbXwX9X.XI.} j 7 N $XE.=XfX0X0X0X=X-X-XH.f.j v.&X&XiX..M [                       ",
"                        j.P 7 C N 4 B K.#X=X0X6X0X0X.X0XwXA.n < , @.@X.XhX-XhX0X$X$X-X#._ +.8.8.D._ X.l.0X                      ",
"                      g.L l 2 2 0 N x F.=X'.@XhXsXA V #.0X@XL.l.W x 8..X@X-X0X-X$X@XS.[ O.x.E.J.l.E l.'.kX                      ",
"                  d.L ..` C x * 7 N f.  -X@X8XsXsXb.8.8.v.@.L.$X@XO.n o.@X-X$X&X@X@Xg.O.f.#.f.S.f...< [ U.                      ",
"                j.l 2 2 q 7 * * 2         #X4XsXhXsX<X@X+X<X@X'.@Xf.S.#.K.@X@X@X@X-XK.r r q q 0 C p m z D.                      ",
"                P * 3 2 : e 0 e         -X#X4XhXhXjXL.W _ g.N C ) _ ..) j.@X%X@X%X-XiX0 0 3 0 c | #.1.E.                        ",
"              j.e & * : q r               $XiXsXhXhXY.x.I.@.z b 3 8 q 8 g.-X-X-XhX    `. .} 1.0.8.+.9.#X                        ",
"                M q e r P               ).Y.Y.*XiXhX*XL.L.+X .n k j W g.sX-X-XpX        l.L.C.A.x.N.1.O.                        ",
"                                        H.x.v.O.S.J.-XC.I.A.0.A..X.X@..X-Xg.%X%X        8.8.N.Y.T.8.s.'                         ",
"                                        8.;.S R W E &X=X.XL.C.I.8.8..Xg.h.              A.P.7.Q 9.R.m.,X                        ",
"                                      %X~ .XW u.^ n @.L.~ E A.u.( .X.XD.                .X.X+XL.7.2.9.+X                        ",
"                                      =Xv..Xj 0.u.~  .@X.X.X.XC.A..XE.~                 +X.X.XC.A.7.m.T.                        ",
"                                      f.$Xv.> 8 @.1.& _.@X.XA.0.A..X0.8.)               <X.XP.>.} ;.>.:X                        ",
"                                        j.B % $ m r @   g..XA.u.0.0.E.v.g.            t XXZ.>.Q Q ^ ,.m.                        ",
"                                                        ).^.7.7.y.7.7.E.@.O           d.XX=.k R =.i.( >XwX                      ",
"                                                        @Xr.^ / ^ ^ ;.r.@.r         . o.u.^ =.W =.r..X<XwX<X                    ",
"                                                        .X6.R *.R R R R  .>         . X r.y.} , ( A..X.XfX=X                    ",
"                                                        .Xr.y./ S < ( D ~ :           . u.u.} O.;.8..Xg.*X%XK.                  ",
"                                                      o.$XA.u.u.v 8 ~ W W 5             t W C #.V f.S.g.) d.                    ",
"                                                      =X$XE.n u.W 5 , ' z                 y e 5 :                               ",
"                                                      j.&XJ.S.f._ > ..r >                                                       ",
"                                                                                                                                "
};
