/* XPM */
static char *f3ad68d510cf481dd0c10e24af3d6387N7N8dcdqpSq2iQ7h[] = {
/* columns rows colors chars-per-pixel */
"59 64 173 2 ",
"   c None",
".  c #8E6E6B",
"X  c #996C68",
"o  c #87716D",
"O  c #8A7A76",
"+  c #957F7F",
"@  c #A27878",
"#  c #AB7474", 
"$  c #B07374",
"%  c #E94D4D",
"&  c #FF4747",
"*  c #FF4847",
"=  c #FF4B4A",
"-  c #F34D4D",
";  c #FF544E",
":  c #FF594B",
">  c #E15757",
",  c #EC5151",
"<  c #FF5353",
"1  c #FF5C53",
"2  c #FF5C5C",
"3  c #F55C5C",
"4  c #FF624D",
"5  c #FF6456",
"6  c #F8655A",
"7  c #FF715D",
"8  c #FB7B54",
"9  c #C06969",
"0  c #D86966",
"q  c #C47777",
"w  c #FF6666",
"e  c #FF6A65",
"r  c #FF6E69",
"t  c #FF7465",
"y  c #FF7B64",
"u  c #FE7C6E",
"i  c #56847E",
"p  c #58847E",
"a  c #728678",
"s  c #B08170",
"d  c #FE8F57",
"f  c #FE945A",
"g  c #FE985D",
"h  c #FEAB5E",
"j  c #FEB65F",
"k  c #FE8464",
"l  c #FF8E63",
"z  c #FE8669",
"x  c #FE8C6C",
"c  c #FE9363",
"v  c #FE9A62",
"b  c #FE906F",
"n  c #FE9968",
"m  c #FE8773",
"M  c #FE9671",
"N  c #F69F78",
"B  c #FE9973",
"V  c #EEAC67",
"C  c #FEA461",
"Z  c #FEAD60",
"A  c #FEB561",
"S  c #FEB862",
"D  c #FEBD6D",
"F  c #FEAE7F",
"G  c #FEA278",
"H  c #FEBF70",
"J  c #FEC176",
"K  c #FEC57D",
"L  c #5B8884",
"P  c #5A8681",
"I  c #5F9392",
"U  c #658C89",
"Y  c #758E8E",
"T  c #73968A",
"R  c #649796",
"E  c #6B9696",
"W  c #669999",
"Q  c #6B9C9C",
"!  c #6E9A95",
"~  c #729292",
"^  c #739990",
"/  c #6EA1A1",
"(  c #73A2A2",
")  c #79A6A6",
"_  c #7FAAAA",
"`  c #00CCFF",
"'  c #09CEFF",
"]  c #11D0FF",
"[  c #1AD2FF",
"{  c #24D4FF",
"}  c #29D5FF",
"|  c #37D8FF",
" . c #3ED9FF",
".. c #46DBFF",
"X. c #4DDBFD",
"o. c #66DFFA",
"O. c #78E0F7",
"+. c #73E2FC",
"@. c #878785",
"#. c #899783",
"$. c #989B9B",
"%. c #AA8383",
"&. c #86A193",
"*. c #91A89C",
"=. c #ACAA89",
"-. c #84ADAD",
";. c #90AFAA",
":. c #8BB2B2",
">. c #92B7B7",
",. c #95B9B9",
"<. c #9BBCBC",
"1. c #B0BCAD",
"2. c #A7B7B4",
"3. c #E49191",
"4. c #C9BB92",
"5. c #FEAB82",
"6. c #FEB483",
"7. c #FEBE87",
"8. c #FFB38A",
"9. c #E6BAA8",
"0. c #E0B1B1",
"q. c #DEC18E",
"w. c #D9C192",
"e. c #EBC58D",
"r. c #FEC883",
"t. c #FEC58B",
"y. c #FECD8E",
"u. c #F3C88E",
"i. c #FFC393",
"p. c #FECE90",
"a. c #FFD193",
"s. c #FFD39A",
"d. c #C4C0A7",
"f. c #C6C9BD",
"g. c #DDD0BC",
"h. c #FED6A2",
"j. c #FFD8A7",
"k. c #FEDAAB",
"l. c #F9DDB4",
"z. c #F7DEBA",
"x. c #FFE0B9",
"c. c #A3C2C2",
"v. c #ABC6C6",
"b. c #ADC9C9",
"n. c #B5CECE",
"m. c #A6DEDC",
"M. c #B9D0D0",
"N. c #90E2EF",
"B. c #8CE7FC",
"V. c #99E7F7",
"C. c #99E9FA",
"Z. c #BBE6E5",
"A. c #B8EDF6",
"S. c #D7DEC6",
"D. c #C2D6D6",
"F. c #C6D9D9",
"G. c #CADCDC",
"H. c #D5E7DA",
"J. c #F7E8CE",
"K. c #F5E4C6",
"L. c #E7E8D3",
"P. c #E3E7D6",
"I. c #F6E9D1",
"U. c #C7E7E0",
"Y. c #CCEAE5",
"T. c #C7EBEA",
"R. c #DEE9E9",
"E. c #D7EEEA",
"W. c #E6E6E6",
"Q. c #E2EBEB",
"!. c #EEEDED",
"~. c #F4F4F4",
"^. c #FEFEFE",
/* pixels */
"                                                                                                                      ",
"                                                                                                                      ",
"                                                                                                                      ",
"                                                              & &                                                     ",
"                                                            & & &                                                     ",
"                                          & & & & &       & & & &                                                     ",
"                                          & & & & & &   & & & = &                                                     ",
"                                            & & & & & & & = = = <                                                     ",
"                                              & & & = < 2 2 w w w w w w r w w w w w w w                               ",
"                                                & < 2 w w w w r w w w w w w w w w w w w r w w                         ",
"                                            & & < w w w w w w w w w w w w w w w w w w w w w w w w                     ",
"                                        & & & < w w w w w w w w w w w w w w w w w w w w w w w w w w                   ",
"                                    & & & & = 2 w w w w w w w w w w w w w w w w w r w w w w w w w w w                 ",
"                                  & & & & & 2 w w w w w w w w w w w w w w w w w w w w w w w w w w w w w               ",
"                                & & & & & = w w w w w w w w w w w w w w w w w w w w w w w w w w w w w w w             ",
"                                & & & & & < w w w w w w w w w w w w w w w w w w w w w w w w w w w r w w w             ",
"                              & & & & & & 2 w w w w w w w w r w w w w w w w w w w w w w w w w w w w w w w             ",
"                              & & & & & * 2 w w w w w w w w w w w w w w w w w w w w w w w w w w w w w w w w           ",
"                            & & & * & & & w w w w w w w w w w w w r w w w w w w w w w w w w w w w w w w w w           ",
"                            & & & & & & * w w w w w w w w w w w w w w w w w w w w w w w w w w w w w w w r w           ",
"                          & & & & & & & = w w w w w w w w w w w w w w w w w w w w w w w w w w w w w w w w w           ",
"                          & & & & & & & = w w w w w w w w w w w w w w w w w w w w w w w w w w w w w w w w w           ",
"                          & * & & & & & * w w w w w w w w w w w w w w w w w w w w w r w w w w w w w w w w w           ",
"                          & & & & & & & & 2 w w w w w w w w w w w w w w w w w w w w y r w w w w w w w w w w           ",
"                        & & & & & & & & & 2 w w w w w w w w w w w w w w w w w w w w l t w w w w w w w w w w           ",
"                        & & & & & & & & & < w w w w w w w w w w w w w w w w w w w t Z k w w w w w w w w w             ",
"                        & & & & & & & & & = w w w w w w w w w w w w w w w w r t y v j h y w w w w w w w w             ",
"                        & * & & & & & & & & < w w w t t t r t t y k z l v v Z Z j j j j j C v l l u w                 ",
"                      & & & & & & * * & 4 d f w w w v Z A h A A D S D D D J J D D D D D S j j A A l w                 ",
"                      & & & & & & & * 4 h S c w w t Z S A D r.j.K.x.s.y.y.y.y.y.p.y.y.y.a.s.r.D S l                   ",
"                      & & & & & & & = f A h y w w k A A H y.x.A.....Z.s.p.p.p.p.y.p.y.j.Y.V.Y.j.r.n                   ",
"                    & & & & & & & & : Z S c w w w c A A r.s.E.{ ` ` } S.y.y.p.p.y.y.s.U.{ ` [ Z.s.6.                  ",
"                  & & & & & & & & & : h Z t w w 7 h j J y.k.C.` ` ` ` m.a.y.p.p.p.y.k.o.` ` ` o.k.                    ",
"                & & & * & & & & & & = f k w w w d j j J p.k.B.` ` ` ` m.a.y.p.p.p.y.l.X.` ` ` X.l.                    ",
"              & & & & & & & & & & & & 5 w w w w l j j J a.h.A.] ` ` [ S.y.p.p.p.p.y.k.+.` ` ` O.j.                    ",
"            & & & & & & & & & & & & < w w w w e g A j J y.a.J.+.] [ N.h.y.p.p.p.p.p.a.H.| '  .H.i.                    ",
"          & & & & & & & & & & & & ; w w w w w 2 ; d j J p.y.s.J.E.Y.k.p.p.p.p.p.y.p.y.s.H.T.L.i.m                     ",
"          & & & & & & & & & * & = w w w w w w = & = 8 V u.a.y.a.s.p.p.p.p.p.p.p.y.a.a.y.p.s.8.u w                     ",
"        & & & & & & & & & & * * 2 w w w w w 2 & * % X a s *.4.w.4.u.e.e.e.u.u.y.t.t.t.y.5.m r w w                     ",
"        & & & & & * & & & & * = 2 w w w w w ; * * X i p i p R ! ^ T T T *.1.&.#.s 6 5   w w w w w                     ",
"        & & & & & & & & & & & & 2 w w w w < = & * O i i i i I W W W W W <.G.Q R i . %   w w w w w                     ",
"          * & & & & & & & & & & * < 2 w < * & & ; 9.;.P i P R W W W W W Q Q W W L p o   w w w w                       ",
"          & & & & & & & & & & & & & = * & & & & z s.z.f.@.I R W W W W W W -.Q E P U     w w w w                       ",
"            & & & & & & & & & & & & & & & & 1 x t.y.a.8.0 E W W W W W W -.R.-.( 2.g.                                  ",
"            & & & & & & & & & & & & & & = z 7.p.p.p.i.7 , Y R R W W W W Q -.Q d.k.s.p.p.p.p.                          ",
"              & & & & & & & & & & & & ; G p.p.p.p.p.B & 3 2.-.( W W R W R R @.N p.y.p.p.p.p.p.p.                      ",
"                & & & & & & & & & & = B a.p.p.p.p.B * & q b.F.G.D.b.<.-.) / # 5 6.p.p.p.p.p.p.p.p.                    ",
"                    & & & & & & & & = F a.p.s.7.k * & $ ~ W W _ :.c.n.D.G.G.3.& : M p.p.p.p.p.p.                      ",
"                      & & & & & & & & 7 F 6.b 1 & % @ R W W W W W W W Q / ) %.* &                                     ",
"                          & & & & & & & = = & & , s W W R Q W W W W W W W W ~ > &                                     ",
"                              & & & & & & & & = + W W W W W W W W W W W W W W @                                       ",
"                                    & & & & & < $.W W W W W W W W W W W W W W E                                       ",
"                                            & < 0.:.R W W W W W W W W W W W W W W                                     ",
"                                                  W.b._ W R R W W W W W W W W W W                                     ",
"                                                      Q.M.,._ Q W R R W R R W W )                                     ",
"                                                            R.G.M.v.<.>.>.,.c.M.                                      ",
"                                                              !.!.^.^.^.^.~.~.                                        ",
"                                                              W.!.~.^.^.^.^.!.                                        ",
"                                                            W.W.W.!.^.^.^.^.~.                                        ",
"                                                                W.  ~.^.^.^.^.                                        ",
"                                                                      ^.^.^.^.                                        ",
"                                                                        ^.^.                                          ",
"                                                                                                                      ",
"                                                                                                                      "
};
