/* XPM */
static char *_f73f60cc77f4c38c7b4c283d48bf670dZa5FGNo1sTdAjFM[] = {
/* columns rows colors chars-per-pixel */
"54 64 241 2 ",
"   c None",
".  c #09090D",
"X  c #070809",
"o  c #110C0C",
"O  c #19110E",
"+  c #100E13",
"@  c #141214",
"#  c #15131A",
"$  c #1A1718",
"%  c #3E1E0B",
"&  c #271A15",
"*  c #331D13",
"=  c #382218",
"-  c #2B221A",
";  c #1F1D22",
":  c #241E25",
">  c #251F28",
",  c #252227",
"<  c #262228",
"1  c #29262C",
"2  c #2C282E",
"3  c #2C2325",
"4  c #2E2B32",
"5  c #2E2630",
"6  c #322C36",
"7  c #372E39",
"8  c #333137",
"9  c #353238",
"0  c #3A3539",
"q  c #3E393B",
"w  c #3C3434",
"e  c #362827",
"r  c #4B220B",
"t  c #4D2B0F",
"y  c #5C2A0D",
"u  c #54260C",
"i  c #472717",
"p  c #5C2D13",
"a  c #5A2D17",
"s  c #5A3319",
"d  c #43351E",
"f  c #662D0D",
"g  c #6A2E0D",
"h  c #6C320F",
"j  c #73320E",
"k  c #7C350F",
"l  c #7B390C",
"z  c #622F11",
"x  c #653213",
"c  c #6C3413",
"v  c #68341A",
"b  c #733613",
"n  c #7B3611",
"m  c #763914",
"M  c #7B3B14",
"N  c #793D1C",
"B  c #433D3C",
"V  c #483A35",
"C  c #4E3729",
"Z  c #793C22",
"A  c #673A21",
"S  c #431D09",
"D  c #396832",
"F  c #4A423E",
"G  c #4B423B",
"H  c #55473B",
"J  c #5B4C2C",
"K  c #6C4826",
"L  c #795225",
"P  c #756839",
"I  c #74602D",
"U  c #784017",
"Y  c #4E4541",
"T  c #554B44",
"R  c #5C5444",
"E  c gray36",
"W  c #675B4A",
"Q  c #736E4F",
"!  c #81390F",
"~  c #843B12",
"^  c #8C3C11",
"/  c #813914",
"(  c #903E12",
")  c #894318",
"_  c #934314",
"`  c #9D4A19",
"'  c #974818",
"]  c #9C5119",
"[  c #9B500D",
"{  c #A24D1A",
"}  c #A2531C",
"|  c #A75919",
" . c #B25B11",
".. c #9C641D",
"X. c #BA6317",
"o. c #B06E17",
"O. c #8A4926",
"+. c #964A24",
"@. c #8E582E",
"#. c #A55127",
"$. c #AB5429",
"%. c #A55923",
"&. c #B35A2C",
"*. c #BB5E2E",
"=. c #B1572B",
"-. c #AC5D32",
";. c #976C33",
":. c #A86626",
">. c #B96528",
",. c #B47626",
"<. c #A96538",
"1. c #BA6635",
"2. c #B07530",
"3. c #C9660C",
"4. c #D26B0D",
"5. c #D86E0D",
"6. c #DA710E",
"7. c #C36B17",
"8. c #D97915",
"9. c #CF7313",
"0. c #E57915",
"q. c #C16230",
"w. c #C66B34",
"e. c #C96E36",
"r. c #C77037",
"t. c #C87237",
"y. c #CA7639",
"u. c #CB7B3B",
"i. c #C57A36",
"p. c #CE732B",
"a. c #F37425",
"s. c #D5571D",
"d. c #926E50",
"f. c #B97949",
"g. c #B0734D",
"h. c #A15543",
"j. c #C77A4A",
"k. c #CA5348",
"l. c #5D9A2B",
"z. c #7A8752",
"x. c #B98227",
"c. c #BF8036",
"v. c #B1B43D",
"b. c #869730",
"n. c #D7851C",
"m. c #EA8517",
"M. c #F88717",
"N. c #F7951C",
"B. c #E6931E",
"V. c #D8AA15",
"C. c #CE823B",
"Z. c #D68D2B",
"A. c #E6842B",
"S. c #FD8C24",
"D. c #E69926",
"F. c #F99A26",
"G. c #E68835",
"H. c #FC9535",
"J. c #E09336",
"K. c #EBA52A",
"L. c #F4A82A",
"P. c #FAA637",
"I. c #EBB338",
"U. c #FCBD3B",
"Y. c #F8B634",
"T. c #F1B130",
"R. c #F5CB31",
"E. c #8A9A5B",
"W. c #918B54",
"Q. c #BA8551",
"!. c #B5AE59",
"~. c #948E6F",
"^. c #B38869",
"/. c #B8967A",
"(. c #A68771",
"). c #95A966",
"_. c #8EA260",
"`. c #A8AE75",
"'. c #C8864C",
"]. c #D28947",
"[. c #C99D49",
"{. c #D89848",
"}. c #D88C53",
"|. c #DA9457",
" X c #C69458",
".X c #E99043",
"XX c #D8A34D",
"oX c #DAAA53",
"OX c #FDB849",
"+X c #E0AB51",
"@X c #EFAC49",
"#X c #C48F6C",
"$X c #E1987A",
"%X c #D5AE74",
"&X c #E5B56D",
"*X c #FCC946",
"=X c #FFD451",
"-X c #FCDA5A",
";X c #FACC4F",
":X c #FEE25D",
">X c #F6D867",
",X c #F1DB72",
"<X c #FCE567",
"1X c #F9EA77",
"2X c #919291",
"3X c #96B08E",
"4X c #AFA498",
"5X c #B2B3B2",
"6X c #BB9B80",
"7X c #C5A589",
"8X c #D5A888",
"9X c #DAB397",
"0X c #CCAC91",
"qX c #E5BA9C",
"wX c #E7B491",
"eX c #C39C80",
"rX c #B6CFAC",
"tX c #D1D386",
"yX c #E4C29E",
"uX c #F8D198",
"iX c #FDEF8C",
"pX c #D8C5AF",
"aX c #E9C4A5",
"sX c #F6C8A9",
"dX c #FFD2B2",
"fX c #FFD8B6",
"gX c #FEDCBA",
"hX c #F6D6B7",
"jX c #F2D0AF",
"kX c #FFE1BE",
"lX c #F8E3B7",
"zX c #F9EFAF",
"xX c #98B3CA",
"cX c #B5C8CF",
"vX c #FEDDC2",
"bX c #DAE4D3",
"nX c #FFE6C2",
"mX c #FFE8C9",
"MX c #FFF3D7",
"NX c #F1F0ED",
"BX c #CEDEC7",
/* pixels */
"                                                                                                            ",
"                                                                                                            ",
"                                                                                                            ",
"              6 9 B F T Y                                                                                   ",
"            4 8 8 q q Y R R F                                                                               ",
"          4 q 0 8 0 q Y Y Y Y F Y           9 q q                                                           ",
"          Y Y B 8 4 0 0 6 B 6 0 9 q Y T T T Y Y Y Y F                                             ; #       ",
"        0 F B 0 1 < 6 1 q < 9 0 8 4 q B Y 9 B Y R R T                                         1 ; # # #     ",
"      8 2 0 4 < < 2 , 1 < 1 8 2 < 4 8 8 1 4 B 8 V W W T R                                 2 2 $ # # # #     ",
"    8 4 2 8 2 < ,   , 1 < 4 1 , 8 4 , , 1 4 q T W W.W R b.Z.K.T.OX                    w 4 1 $ @ + @ # #     ",
"    8 < , ,             1 , , 4 1 , > 1 8 0 q Y B P x.T.*X=X=XI.K.1X              T G w 1 , + + + + # #     ",
"    0 2 ,                 1 < , < < 1 8 8 8 8 < < I K.*X<XiXzXK.I.*X*X        @.D.R.L 1 3 + + + + # # #     ",
"  4 q 4 ,                     2 , 1 8 8 8 < < 4 G K.Y.=X1XiX:XI.K.K.T.    V 8.8.J ,.n.@ . + + + + # #       ",
"    0 6 ,                     2 , 8 8 4 , , 8 q ,.Y.Y.*X:X-X=XR.U.K.T.e C 8.C 5 < + m.+ + + + @ + # #       ",
"    9 0 2                       1 8 1 , , 8 w H.p.Y.=X1XzX*XR.R.Y.o. .n.F.*XJ.# + + 7.) + + + . # # #       ",
"      4 1     2                 , , < , 6 V A.OXX.R.:X:X*XT.<XV.L. .7.C = * 8.s + + * m.T.$ + @ # # #       ",
"        2 1   ,                     > J.p.P.G.H.X.B.I.I.V.R.V.D.L e a v / O.` m.i @ o = ;.$ + # # # #       ",
"                                  , K OX7.S.p.A. .3 Z.B.K.K...* v Z +.+.#.&.q.q.>.&.@ + o + # # # #         ",
"                                  :.P.H.>.M.X.X.3 1 : & X @ v O.+.=.q.q.&.$.$.#.$.$.&.<.i @ # # # #         ",
"                                  S.N.A.>.[ , , + X X o c ' %.r.t.q.$.&.$.$.*.t.q.q.$.i.{.v $ # #           ",
"                                X.M.7.&.:.O . . . . z +.1.q.C.e.*.$.#.&.y.].u.q.#.+.&.w.C.` ` ' =           ",
"                                7.X.r . X X X X s +.1.].y.{.t.=.#.*.e.+X{.C.y.e.q.+.q.q..X.X1.Q.            ",
"                                O . . . . X s #.>.u.].].r.*.$.*.w.{.+X+XXX{.].u.r.h.q.e.f.].}.'.'.          ",
"                            + + . . . X * #.$.1.t.C.C.q.=.$.q.y.].XX+X+X+XXX].y.#X^.e.y.j.w.w.}.&X          ",
"                        # . . . . . X Z / =.k.w.e.y.q.#.*.q.j.u.].{.{.u.XX{.y.f.dX<.dXh.t.'.<.e.  |.        ",
"                    $ @ . . . . . . Z 8Xj.=.q.q.w.*.#.q.q.w.t.u.C.C.g.j.{.t.^.gXaXg.vXqXi G.}.    '.        ",
"                  - . . . . X . . + @.9Xe.q.q.q.*.$.q.q.q.q.1.w.r.6Xw.y.>./.gXgXf.wXvXhXy #.}.f.    }.      ",
"                @ . . . . . . X X a eX0Xj.q.q.*.=.q.q.q.q.q.q.d./.q.*.<.0XnXkX8X'.fXvXvXz b }.'.    f.      ",
"              . . . . . . . X . . A qXj.*.q.q.=.q.q.q.q.q.g.6XO.1.&./.yXnXnX(.@.^.6X9XvXb j }.|.            ",
"            @ . o . . X X X X X . * 9Xj.-.q.=.*.q.q.>.g./.g.*.h./.4XlXnXmXd.'.^.nXgXmXpXb M j.&X            ",
"          . . . . + . X . X . X & . #X*.*.=.$.q.q.j.W. X(.5X8X7XjXlXnXmXlXf.f.nXnXkXmXd.c ] O.&X            ",
"          . + . . . . X X . . & . . Z $.*.$.*.1.C 5X`.zXb.D pXvXgXgXmX9X%X^.cXcXxX2X4Xy c +.) |.            ",
"          . . + . . . X X . . . . v *.*.$.+.p eX6X2Xl.v.l.bX5XfXgXkXyXyXyX3XtXtXrXE a m ( '   |.            ",
"          . . . . . X . X X . & / ` &.$.a % u 8XdX(.5XBXNXNXpXdXgXaXyXhX4Xl.!.!.BX2Xm '       }.            ",
"          . . . . . . . X X X o ( ( $.a S S z 8XdXdXdXdXgXdXdXdXfXfXhXkXkXNX3XrXT @.{         }.            ",
"          . . . + . . . X . . j M #.#.u t u c / sXdXdXdXdXdXdXdXfXfXgXgXlXkXkXzXmXN }         f.            ",
"          . . . . . + . . . . m #.#./ i b b p m +.aXdXdXdXdXdXdXdX7XpXfXfXfXfXfXvXx :.                      ",
"            + . . . . . . + + f ^ $.+.m m m m m M <.aXdXdXdXdXdXdXsXdXdXfXfXfXfXjXu ,.                      ",
"              + . . . . Q &X,X%Xn ~ 1.+.^ N M ( N ` g.aXsXdXdXdX=.$Xk.sXdXfXfXfXN ) )                       ",
"                  . . + d  XoX&X&X^ g k z y ` { u ^ =.S d.aXsXdXdXqXdXdXdXdXqXx m { m `                     ",
"                          [.[.oX&X X) f ! j f f U M c.h U :.^.7X9XsXaXwXd.x m c M $.M   )                   ",
"                            [.[.[.XX] ! ^ ! j f M f 2.>.H.0.9XjXa.C.f S r h m / / ]   )                     ",
"                              :.[.[.[.l ^ ( ^ ! y u $.} &.C q _.) a.A.r u f / ' )                           ",
"                            ~ f c 2.Q.I ^ ^ ( ^ f M n * ).).0 H E.Q ! j y j b _ m                           ",
"                            h f j f / s ' ) _ _ C 3 i r J E.z.Q Q 3 V y y j ^     /                         ",
"                          k f g ~ h ~ _ K @.' K 7 % f f f )._._.s 2 F f f j ! ^                             ",
"                ^     _ g k f ^ j j _ ] ..U 8X0 , u j f c E.).`.7X2 F f f ! ^ _ _         ~                 ",
"                f h f k ~ ^ j ~ j z _ _ _ <.9X^.r l j x _.).d.7 8 8 q p f j ( _ | 2.] _ _ ^                 ",
"                    b ~ ^ _ _ k z n ! k ( ~ l h  .K h d.d.@XB 7 7 6 6 a f j ( _ ( ..~ ' _                   ",
"                    ) ' { ` ^ f z j g j ! M.m.N.B.x.m.C.;X;.7 5 6 5 6 7 C y _ ] | ] )                       ",
"                  / _ { } } x p j h g l M.B.N.F.L.I K.P.OXi.4 : > > > 6 Q Q x :.,.:.' !                     ",
"              M /   _ ` %.| p b j f f 0.&X;XI.*X*XU.L.D.F.Z., , q 5 : : F j.yX2.] ` '                       ",
"                    ! { ] ] p c ^ f f 9.=XzX-X:X-XI.>XK.,.,., 0 B Y 6 > $ ` $XdXi.} (                       ",
"                      _ ' ` y   k g g 6.U.iX<XiXzX-X=X*X6.6.' 6 7 F 5 5 > ..9.J.s.' ^                       ",
"                        ( ` t     f g 6.8.uX,X-X=XMX,X*Xm.4.= 3 6 B 5 7 : @ x.+X{.^                         ",
"                        ! _         f 4.5.Y.zX*X*XL.U.U.0.3.3 : 5 7 6 > + !.,X1Xm.                          ",
"                        ^             3.].N.*XU.N.m.M.N.6.3 > > 7 7 5 # lX;X>XP.0.                          ",
"                                        3.lXiX=XF.0.0.X.7 6 > 3 5 5 6 % m.L.;X9.4.~ M                       ",
"                                         .B.*X;XD.4.M.& [  .> > 6 6 > 3.n.OXzXp.                            ",
"                                            n.m.4.4.4.3.      (.T :  .s.3.B.D.                              ",
"                                                              sXdX                                          ",
"                                                              a.@X                                          ",
"                                                              a.                                            ",
"                                                                                                            "
};
