/* XPM */
static char *_9d2e4844069454fc871b2a5797c6f17AEMKgcgnl1Z0dWU4[] = {
/* columns rows colors chars-per-pixel */
"64 64 224 2 ",
"   c None",
".  c #16120D",
"X  c #1C1615",
"o  c #1E1816",
"O  c #290A0A",
"+  c #380808",
"@  c #390C16",
"#  c #251C14",
"$  c #22151D",
"%  c #2C1818",
"&  c #331E13",
"*  c #3B1513",
"=  c #2B2014",
"-  c #2A2118",
";  c #272018",
":  c #3A2214",
">  c #35281B",
",  c #37251A",
"<  c #271621",
"1  c #2A1821",
"2  c #361829",
"3  c #370820",
"4  c #322529",
"5  c #38252D",
"6  c #3D312A",
"7  c #352B2F",
"8  c #4D0505",
"9  c #490707",
"0  c #550606",
"q  c #5C0505",
"w  c #540A0B",
"e  c #470813",
"r  c #570815",
"t  c #451212",
"y  c #481719",
"u  c #5A1616",
"i  c #441D0F",
"p  c #650505",
"a  c #6C0405",
"s  c #620C0A",
"d  c #6F0A08",
"f  c #740506",
"g  c #7C0505",
"h  c #7D0A08",
"j  c #631115",
"k  c #6B1611",
"l  c #442513",
"z  c #422C13",
"x  c #4B2913",
"c  c #472417",
"v  c #552F12",
"b  c #4D3314",
"n  c #49361A",
"m  c #533313",
"M  c #5A3312",
"N  c #563817",
"B  c #4D300B",
"V  c #673C0E",
"C  c #623A16",
"Z  c #773714",
"A  c #4B072B",
"S  c #470834",
"D  c #541638",
"F  c #6F1E2D",
"G  c #452A28",
"H  c #483827",
"J  c #563626",
"K  c #4C3A37",
"L  c #563939",
"P  c #692F2B",
"I  c #58431D",
"U  c #6C4B13",
"Y  c #67471B",
"T  c #714211",
"R  c #6C531E",
"E  c #7D5513",
"W  c #7B5616",
"Q  c #7B550D",
"!  c #594334",
"~  c #494334",
"^  c #6A5525",
"/  c #7A5D24",
"(  c #745823",
")  c #684538",
"_  c #695638",
"`  c #6E4F28",
"'  c #7F6426",
"]  c #7C6A31",
"[  c #3E1340",
"{  c #50194C",
"}  c #6F0D42",
"|  c #573357",
" . c #7F3F7D",
".. c #584646",
"X. c #58574E",
"o. c #6E5747",
"O. c #61535D",
"+. c #776559",
"@. c #796A54",
"#. c #755D76",
"$. c #5F6962",
"%. c #736768",
"&. c #6E766B",
"*. c #70736E",
"=. c #8B0506",
"-. c #870907",
";. c #940606",
":. c #990A05",
">. c #88180C",
",. c #971108",
"<. c #AE0603",
"1. c #A50704",
"2. c #BC0503",
"3. c #B40804",
"4. c #85260E",
"5. c #AA270A",
"6. c #A43C0D",
"7. c #C70502",
"8. c #D30401",
"9. c #835B12",
"0. c #8E4518",
"q. c #83601F",
"w. c #8F6B15",
"e. c #A97A16",
"r. c #AC6B12",
"t. c #805424",
"y. c #886623",
"u. c #8E6A25",
"i. c #8D6C2B",
"p. c #856827",
"a. c #936E24",
"s. c #9A7429",
"d. c #8C7631",
"f. c #A37A26",
"g. c #A67D29",
"h. c #A16621",
"j. c #820555",
"k. c #A40F4F",
"l. c #876D45",
"z. c #846556",
"x. c #957C56",
"c. c #897252",
"v. c #8A5976",
"b. c #A84E73",
"n. c #977A6B",
"m. c #877474",
"M. c #738077",
"N. c #A98D1B",
"B. c #97823D",
"V. c #AC852B",
"C. c #AE8425",
"Z. c #B3852A",
"A. c #B58A29",
"S. c #A58A35",
"D. c #A68835",
"F. c #B89436",
"G. c #B39531",
"H. c #C2A116",
"J. c #C49D34",
"K. c #D0A32F",
"L. c #C8A236",
"P. c #D4A93A",
"I. c #DAB23C",
"U. c #D0B027",
"Y. c #E5B838",
"T. c #DAC618",
"R. c #F5E918",
"E. c #FEF618",
"W. c #8E8240",
"Q. c #8B8357",
"!. c #9E8654",
"~. c #998947",
"^. c #AB994A",
"/. c #AA8859",
"(. c #AE924E",
"). c #888E7A",
"_. c #93886E",
"`. c #A98C73",
"'. c #B79879",
"]. c #A49364",
"[. c #BAA37A",
"{. c #BFB37C",
"}. c #C09C43",
"|. c #C9A746",
" X c #D6B544",
".X c #D4B44F",
"XX c #E3BE44",
"oX c #C59E76",
"OX c #D5B965",
"+X c #CEA27F",
"@X c #CAB763",
"#X c #DAC357",
"$X c #E9C44C",
"%X c #F1CF58",
"&X c #FAD965",
"*X c #F1DA70",
"=X c #7F7D83",
"-X c #A25B97",
";X c #9A6280",
":X c #748280",
">X c #878A87",
",X c #9A8989",
"<X c #899492",
"1X c #BA8799",
"2X c #B29783",
"3X c #B4A38F",
"4X c #9DB4B1",
"5X c #B2BEB7",
"6X c #A6A6A9",
"7X c #C9AA8A",
"8X c #D8B597",
"9X c #D2AA8F",
"0X c #CAA9AE",
"qX c #BDC0B0",
"wX c #AEC0B8",
"eX c #FBE791",
"rX c #E7C4A9",
"tX c #FBDABC",
"yX c #F5D4B8",
"uX c #F1CFB4",
"iX c #CAD7D6",
"pX c #CDCFD0",
"aX c #EFD1C0",
"sX c #E2E8E7",
/* pixels */
"                                                                                                                                ",
"                                                                                                                                ",
"                                                                                                                                ",
"                                                                                                                                ",
"                                                                                                                                ",
"                                                                                                                                ",
"                                                                                                                                ",
"                                                                                                                                ",
"                                                                                                                                ",
"                                                                                                                                ",
"                                                                                                                                ",
"                                                                                                                                ",
"                                                                                                                                ",
"                                                                                                                                ",
"                                                                                                                                ",
"                                                                                                                                ",
"                                                                h 1.<.1.=.s                                                     ",
"                                                              -.7.8.7.<.;.g p 0 9 + + @                                         ",
"                                                            -.7.8.2.;.-.g f a p q 8 e S                                         ",
"                                                          w 2.8.2.;.=.g p q 0 8 e @                                             ",
"                                                          e.5.7.1.;.=.-.a 0 e                                                   ",
"                                                        N.E.T.r.4.>.h g f a r                                                   ",
"                                            s :.<.3.2.2.5.H.R.R.U.C.w.E T V C b                                                 ",
"                                            s <.8.8.8.8.8.3.6.e.A.A.N.N.w.9.Q Y                                                 ",
"                                              d <.8.8.8.8.8.8.2.-.4.Z Z T V M i                                                 ",
"                                                Z >.,.,.,.,.:.1.:.=.=.g f p 0 8 r A                                             ",
"                                              Q.OXV.A.a.F.}.Z.h.0.k d g g f p q 0 r A S                                         ",
"                                              {.^.$XY.p.^.@X&XY.K.y.` w p a p q 0 8 9 e 3                                       ",
"                                              ~.W.&XK.l.!.[.eX$XZ.l.D._ t.u w 8 8 9 + O O                                       ",
"                                                ].&XJ.`.x.'.#XF.x.x./.[.|.A.W Y * O O                                           ",
"                                                _.eX|.+...`.].].z.L n.8X|.P.V.V.                                                ",
"                                                  *X|.,X#.m.yXuX,X| %.7XOX%Xg.V.i.                                              ",
"                                                  #XI.3X .;XtXtXv.{ 0X9XOX Xy.A.s.                                              ",
"                                                  ^.XX!.1X0XtXtX1X-XaXoX Xg.a.A.C.^                                             ",
"                  x l :                           _  Xi.c.rX9X9XuXrX9X(.K.q.f.Z.C.s.                                            ",
"                U N D { G :                     B.L.D.' 5 ..n.'._.o.G D.a., Y f.f.a.s.i.                                        ",
"              U E F k.j.[ c &                   S.Y./ ..7 G ! o.G < H p.%.X.# y.y.a.y.i.(                                       ",
"              E E P b.} 2 x l x l & :            XJ._ 6XO.K _ l._ 4 6 m.iX5X7 R u.( u.(                                         ",
"              U 9.Y P J C m v x M l v l       F.I.G.@.iX<X=X>X3X>X*.>XpXsXiX:Xn u.( ' u.                                        ",
"              b E 9.E E E m M M m M m V m z   S.D.D.Q.5X<X&.)._.).&.$.>XqXwX4XH / / Y u.                                        ",
"                b U E E U     b l z : z N b x b n I R ] ..%.o.~ &.M.*._ S.d.).~ R y.I /                                         ",
"                    b b                         & H ! l u j y y L P u * './.^ 4 N y.n                                           ",
"                                                  4 K % j j t t u j j * z.c.B 1 G ^                                             ",
"                                                < < $ $ * t * * t r t @ & z : $ 2                                               ",
"                                                2 < $ $ K ) J , % c G ) G % o o 2                                               ",
"                                                1       +.3XoX! 4 2X8X+XL     X $ $                                             ",
"                                                        K H J # o +.@.! =                                                       ",
"                                                        ; > =     6 > , .                                                       ",
"                                                        ; > #     X > = .                                                       ",
"                                                        . o         - #                                                         ",
"                                                                                                                                ",
"                                                                                                                                ",
"                                                                                                                                ",
"                                                                                                                                ",
"                                                                                                                                ",
"                                                                                                                                ",
"                                                                                                                                ",
"                                                                                                                                ",
"                                                                                                                                ",
"                                                                                                                                ",
"                                                                                                                                ",
"                                                                                                                                ",
"                                                                                                                                ",
"                                                                                                                                "
};
