/* XPM */
static char *_5daadaadf9140aaab45d38fc262a2a0fliOQ38Fw57payg7[] = {
/* columns rows colors chars-per-pixel */
"55 60 173 2 ",
"   c None",
".  c #737874",
"X  c #9D6A67",
"o  c #8C706C",
"O  c #977E7E",
"+  c #AE6461",
"@  c #B96B6C",
"#  c #E34F4F",
"$  c #FF4747",
"%  c #FF4847",
"&  c #FF4748",
"*  c #F44B4C",
"=  c #FF4B4A",
"-  c #FF524C",
";  c #FD5E4D",
":  c #E15656",
">  c #FF5453",
",  c #FF5B52",
"<  c #FF5D5D",
"1  c #C7605E",
"2  c #FF614D",
"3  c #FE6059",
"4  c #FF6B5A",
"5  c #FF6356",
"6  c #FE7556",
"7  c #D97A6D",
"8  c #FF6666",
"9  c #FF6C65",
"0  c #FF7364",
"q  c #F07867",
"w  c #FE7D63",
"e  c #FF7B6E",
"r  c #56837D",
"t  c #5B847E",
"y  c #60807B",
"u  c #FE8254",
"i  c #FE9759",
"p  c #FE9C5A",
"a  c #FEAF5E",
"s  c #FEA65C",
"d  c #FEB55F",
"f  c #D5906E",
"g  c #FE8364",
"h  c #FE8A63",
"j  c #FF8C6E",
"k  c #FE9362",
"l  c #FE9D62",
"z  c #FE916F",
"x  c #E88A74",
"c  c #FF8974",
"v  c #FE9B74",
"b  c #FE9C79",
"n  c #FEA561",
"m  c #FEAB61",
"M  c #FEB561",
"N  c #FEB962",
"B  c #FFB46C",
"V  c #FEBC6B",
"C  c #FEAA7D",
"Z  c #FEBE71",
"A  c #FEC276",
"S  c #FEC378",
"D  c #5B8985",
"F  c #588781",
"G  c #5D908F",
"H  c #618B86",
"J  c #6C938C",
"K  c #70918D",
"L  c #649797",
"P  c #639798",
"I  c #669999",
"U  c #6A9C9C",
"Y  c #779090",
"T  c #7B9C95",
"R  c #789F98",
"E  c #729B97",
"W  c #73A2A2",
"Q  c #7AA7A7",
"!  c #7DA8A8",
"~  c #00CCFF",
"^  c #13D1FF",
"/  c #1CD2FF",
"(  c #24D4FF",
")  c #2ED5FE",
"_  c #3ED9FF",
"`  c #4DDCFF",
"'  c #5DDCFA",
"]  c #6CDEF6",
"[  c #898A89",
"{  c #839C8B",
"}  c #989C85",
"|  c #84A396",
" . c #99A793",
".. c #82ACAC",
"X. c #87A3A4",
"o. c #97AFA9",
"O. c #9AB4AA",
"+. c #8EB3B3",
"@. c #92B6B6",
"#. c #9DBEBE",
"$. c #95B8B8",
"%. c #A9AAAA",
"&. c #B1B8A3",
"*. c #A2BEBE",
"=. c #BFB9B1",
"-. c #DF8D81",
";. c #CEA989",
":. c #D2B388",
">. c #C3B993",
",. c #D3BE92",
"<. c #ECAC82",
"1. c #FFAF89",
"2. c #FEB381",
"3. c #FFBA85",
"4. c #FDBF89",
"5. c #BDC1AC",
"6. c #B7C1B2",
"7. c #DBC394",
"8. c #ECC68E",
"9. c #FFC682",
"0. c #FFC884",
"q. c #FEC38A",
"w. c #F5CA8E",
"e. c #FECD8E",
"r. c #E3C290",
"t. c #FFC695",
"y. c #FECE90",
"u. c #F5CB90",
"i. c #FED092",
"p. c #FFD39B",
"a. c #DADBBE",
"s. c #FDCFA5",
"d. c #FED6A2",
"f. c #FFD9A7",
"g. c #FDDBAD",
"h. c #FDD7A9",
"j. c #EBCEB3",
"k. c #EADCB9",
"l. c #F5DDBB",
"z. c #F7E1BD",
"x. c #9EC0C0",
"c. c #A9C7C7",
"v. c #AEC9C9",
"b. c #A3C2C3",
"n. c #B5CECE",
"m. c #B9D1D1",
"M. c #8DE1EF",
"N. c #9BE4EE",
"B. c #87E1F0",
"V. c #82E4FA",
"C. c #8BE7FD",
"Z. c #93E4F3",
"A. c #A7E2E5",
"S. c #BBE8E6",
"D. c #A2E8F3",
"F. c #B0EAF3",
"G. c #CCDBC5",
"H. c #C0D4D4",
"J. c #C5D8D8",
"K. c #CCDDDD",
"L. c #C3E4DD",
"P. c #D9E7D9",
"I. c #FBE3C1",
"U. c #E8EBDB",
"Y. c #CAEAE7",
"T. c #D7EDE7",
"R. c #D1E0E0",
"E. c #E6E6E6",
"W. c #E5EBEB",
"Q. c #ECECEC",
"!. c #EEF3F3",
"~. c #F5F6F6",
"^. c #FFFFFF",
/* pixels */
"                                                                                                              ",
"                                                                                                              ",
"                                                    $ $ $                                                     ",
"                                                    $ % $                                                     ",
"                                                  $ $ $ $                                                     ",
"                                    $ $ $ % $     $ $ $ $                                                     ",
"                                    $ $ $ $ & & $ $ $ %                                                       ",
"                                      $ $ $ $ % % < < 8 8 8 8 8 8 8 8 8 8 8 8 8                               ",
"                                        & & = < 8 8 8 8 8 8 8 8 8 8 8 8 8 8 8 8 8 8 8                         ",
"                                        & - 3 8 8 8 8 8 8 8 8 8 8 8 8 8 8 8 8 8 8 8 8 8 8                     ",
"                                    & & = < 8 8 8 8 8 8 8 8 8 8 8 8 8 8 8 8 8 8 8 8 8 8 8 8                   ",
"                                  & & & > 8 8 8 8 8 8 8 8 8 8 8 8 8 8 8 8 8 9 9 8 8 8 8 8 8 8                 ",
"                                & $ & = 8 8 8 8 8 8 8 8 8 8 8 8 8 8 8 8 8 8 8 8 8 8 8 8 8 8 8 8               ",
"                              $ & $ % > 8 8 8 8 8 8 8 8 8 8 8 8 8 8 8 8 8 8 8 8 8 8 8 8 8 8 9 8               ",
"                            $ $ & & % < 8 8 8 8 8 8 8 8 8 8 8 8 8 8 8 8 8 8 8 8 8 8 8 8 8 8 8 8               ",
"                            $ $ & % % 8 8 8 8 8 8 8 8 8 8 8 8 8 8 8 8 8 9 8 8 8 8 8 8 8 8 8 8 8 8             ",
"                          $ % $ & $ = 8 8 8 8 8 8 8 8 8 8 8 8 8 8 8 8 8 8 8 8 8 8 8 8 8 8 8 8 8 8             ",
"                          $ $ $ $ $ > 8 8 8 8 8 8 8 8 8 8 8 8 8 8 8 8 8 8 8 8 9 8 8 8 8 8 8 8 8 8             ",
"                          $ $ $ $ $ > 8 8 8 8 8 8 8 8 8 8 8 8 8 8 8 8 8 8 8 8 8 8 8 8 8 8 8 8 8 8             ",
"                        $ $ $ $ $ $ > 8 8 8 8 8 8 8 8 8 8 8 8 8 8 8 8 8 8 8 8 8 8 8 8 8 8 8 8 8 8             ",
"                        $ % & $ $ $ > 8 8 8 8 8 8 8 8 8 8 8 8 8 8 8 8 8 8 8 8 8 8 8 8 8 8 8 8 8 8             ",
"                        $ $ $ $ $ $ - 8 8 8 8 8 8 8 8 8 8 8 8 8 8 8 8 8 8 8 0 9 8 8 8 8 8 8 8 8 8             ",
"                        $ $ $ $ $ $ = 8 8 8 8 8 8 8 8 8 8 8 8 8 8 8 8 8 8 8 g 0 8 8 8 8 8 8 8 8 8             ",
"                        $ $ $ % $ $ % < 8 8 8 8 8 8 8 8 8 8 8 8 8 8 8 8 8 8 l g 8 8 8 8 8 8 8 8 8             ",
"                        $ $ $ $ $ $ % > 8 8 8 8 8 8 8 8 8 8 8 8 8 8 8 8 0 h M l 9 8 8 8 8 8 8 8               ",
"                      $ $ $ $ $ % % $ = 8 8 8 8 9 9 9 9 0 0 0 w g k l n s d d M m k h g w 9 8                 ",
"                      $ $ $ $ & $ % 6 p g 8 8 h m m m m B Z Z Z A A S S S S A Z V N N M M g                   ",
"                      $ % $ $ $ % 6 d d w 8 8 k N N A e.l.P.P.d.e.y.y.i.y.y.y.y.d.l.p.S B g                   ",
"                      $ $ $ $ $ - s d M 0 8 8 n N V y.I.C./ ( A.i.i.y.e.y.y.y.g.D.` V.z.9.j                   ",
"                      $ $ $ $ $ 2 d d l 8 8 9 n N 0.p.Y./ ~ ~ ) k.y.y.y.y.y.i.L.^ ~ ~ N.p.                    ",
"                      $ $ $ % $ ; a d h 8 8 9 m N e.d.D.~ ~ ~ ^ G.e.y.y.y.y.p.B.~ ~ ~ ' h.                    ",
"                    $ $ $ $ $ % % p m 9 8 8 0 M N e.p.F.~ ~ ~ / a.e.y.y.y.y.p.M.~ ~ ~ ] s.                    ",
"                    $ $ $ $ % $ & ; w 8 8 8 g d V e.y.U._ ~ ~ ] d.e.i.y.y.y.y.P./ ~ ^ S.1.                    ",
"                  $ $ $ $ $ $ $ & > 8 8 8 8 g M V e.y.d.T.V.Z.k.i.y.e.y.y.y.y.d.Y.V.S.d.e                     ",
"                $ $ $ & $ $ $ $ & < 8 8 8 8 > u m 0.i.e.p.g.d.i.y.y.y.y.y.e.y.e.p.f.t.c 8                     ",
"              $ $ $ % $ $ & $ $ > 8 8 8 8 < = & ; f :.r.8.w.w.w.w.w.e.y.e.e.e.q.C b e 8 8                     ",
"            $ $ $ $ $ $ % $ $ % < 8 8 8 8 < & * X t t J T { { { { &.6. . .7 4 , - 8 8 8 8                     ",
"            $ % $ $ $ $ $ $ % = 8 8 8 8 8 - $ + t r r D P P P I L b.v.P G . # $ $ < 8 8 8 8                   ",
"            & $ $ % % $ & & % % < 8 8 8 > & & o r r r t L I I I I U I P P F + $ $ < 8 8 8                     ",
"            $ $ & $ $ & & & & % = > < < & & $ 7 o.E H D L I I I I U 6.W P J 1 $ & - 8 8 8                     ",
"            $ & $ $ $ $ & $ % $ $ $ % $ % $ $ j g.l.6.L I I I I I W J...O.j., $ &                             ",
"              $ $ $ $ $ $ $ $ $ $ $ $ $ $ $ % v i.e.;.L I I I I I I U U 7.y.z , $                             ",
"              $ $ $ % $ % $ $ $ $ $ $ $ $ % 4 q.i.e.x X.Q U I I I I P | u.y.y.3.g                             ",
"                $ $ $ $ $ $ $ $ $ $ $ $ $ - 2.i.e.q.-.H.J.J.H.m.n.v.c.=.4.y.y.y.y.e.                          ",
"                  $ $ $ $ $ $ $ $ $ $ $ % z y.y.y.<.[ U W Q ..+.@.#.#.%.q 3.y.y.y.y.y.                        ",
"                      $ & $ $ $ $ $ $ $ , 4.i.y.u. .I I I I I I L L L L @ 5 C y.y.y.y.                        ",
"                          $ $ $ $ $ $ $ 6 y.y.y.>.U I I I I I I I I I I Y : - v i.y.                          ",
"                              % $ $ $ $ 9 q.y.,.T I I I I I I I I I I I I O *                                 ",
"                                      $ = 6 x | I I I I I I I I I I I I I I                                   ",
"                                              *.U L I I I I I I I I I I I I I                                 ",
"                                                H.@.W I I I L P I I I P L W @.                                ",
"                                                    R.n.x.+...Q Q ! ..$.v.K.                                  ",
"                                                      ^.^.~.~.!.W.W.Q.Q.Q.                                    ",
"                                                      ^.^.^.^.^.Q.E.E.E.E.                                    ",
"                                                      ^.^.^.^.~.E.E.E.E.                                      ",
"                                                      ^.^.^.^.Q.E.E.E.                                        ",
"                                                      ^.^.^.~.E.E.E.                                          ",
"                                                      ^.^.^.Q.E.                                              ",
"                                                      ^.^.                                                    ",
"                                                                                                              "
};
