/* XPM */
static char *dcaeaf9ae0364b50ae956d9bf4d319c4jJwv0v8QGpsunQGH[] = {
/* columns rows colors chars-per-pixel */
"64 77 253 2 ",
"   c None",
".  c #09090D",
"X  c #070809",
"o  c #140E0D",
"O  c #100E13",
"+  c #141115",
"@  c #15131A",
"#  c #1A1615",
"$  c #140F0F",
"%  c #3D1D0B",
"&  c #251A16",
"*  c #371D15",
"=  c #3A2316",
"-  c #362215",
";  c #1F1A21",
":  c #231E24",
">  c #252227",
",  c #262229",
"<  c #2A252C",
"1  c #2C292F",
"2  c #2C2226",
"3  c #2D2A31",
"4  c #2F2732",
"5  c #332D36",
"6  c #372D37",
"7  c #343136",
"8  c #3A353A",
"9  c #3E393B",
"0  c #383337",
"q  c #332D2D",
"w  c #4C220B",
"e  c #47220D",
"r  c #53250C",
"t  c #5C290D",
"y  c #55290E",
"u  c #592C14",
"i  c #5A3219",
"p  c #4D2915",
"a  c #652D0D",
"s  c #6A2E0D",
"d  c #6D300E",
"f  c #65310F",
"g  c #74330E",
"h  c #7B350F",
"j  c #7D3C0C",
"k  c #622F11",
"l  c #6C3312",
"z  c #673417",
"x  c #733613",
"c  c #7C3611",
"v  c #763814",
"b  c #7B3A14",
"n  c #7E3D1D",
"m  c #443D3C",
"M  c #473B34",
"N  c #4E3629",
"B  c #562D17",
"V  c #3F4F33",
"C  c #794618",
"Z  c #4A423E",
"A  c #48443D",
"S  c #544738",
"D  c #5B4526",
"F  c #664A2B",
"G  c #725130",
"H  c #726A38",
"J  c #4D4440",
"K  c #544A42",
"L  c #564B43",
"P  c #5B5145",
"I  c #64574A",
"U  c #695853",
"Y  c #74744A",
"T  c #77716B",
"R  c #833B12",
"E  c #8C3C11",
"W  c #823812",
"Q  c #913F12",
"!  c #823A0E",
"~  c #8B4116",
"^  c #88441A",
"/  c #934314",
"(  c #9B4C1A",
")  c #974918",
"_  c #9C521B",
"`  c #9B5B1B",
"'  c #944A0D",
"]  c #B65C0C",
"[  c #A24C1A",
"{  c #A3571B",
"}  c #AE5311",
"|  c #A36519",
" . c #B96518",
".. c #B9791D",
"X. c #8A4423",
"o. c #934923",
"O. c #994A25",
"+. c #9A5728",
"@. c #84552D",
"#. c #A04E28",
"$. c #A65127",
"%. c #AC5429",
"&. c #A75926",
"*. c #B45A2C",
"=. c #BB5E2E",
"-. c #B1572C",
";. c #A95C35",
":. c #BC5E30",
">. c #98692F",
",. c #AB6724",
"<. c #B86528",
"1. c #B77927",
"2. c #A76635",
"3. c #B86436",
"4. c #BC7836",
"5. c #A57630",
"6. c #C9660C",
"7. c #D26B0D",
"8. c #C86E18",
"9. c #CE7519",
"0. c #D97916",
"q. c #D97013",
"w. c #E67B16",
"e. c #E36F1B",
"r. c #C16230",
"t. c #C56B34",
"y. c #C76E36",
"u. c #CC7C3C",
"i. c #C87238",
"p. c #D67637",
"a. c #D07229",
"s. c #E37D31",
"d. c #CE581F",
"f. c #966D50",
"g. c #B87848",
"h. c #AE724D",
"j. c #937766",
"k. c #C27847",
"l. c #CE6E52",
"z. c #D66B5A",
"x. c #6AA42B",
"c. c #5B8F2B",
"v. c #7C8554",
"b. c #74955F",
"n. c #B9842E",
"m. c #ABA935",
"M. c #979137",
"N. c #E78315",
"B. c #F78716",
"V. c #F5941D",
"C. c #EE921D",
"Z. c #DA9625",
"A. c #CE833D",
"S. c #CD8F2F",
"D. c #E48827",
"F. c #E79A24",
"G. c #FB9C26",
"H. c #FE9733",
"J. c #F48A30",
"K. c #D9A430",
"L. c #EAA52A",
"P. c #F9A829",
"I. c #FAA737",
"U. c #FEB733",
"Y. c #F9B937",
"T. c #EDB334",
"R. c #D49B16",
"E. c #FBC33D",
"W. c #E9C716",
"Q. c #88985A",
"!. c #898C52",
"~. c #B68B59",
"^. c #B4896B",
"/. c #BA967A",
"(. c #AC896E",
"). c #95A765",
"_. c #95AE69",
"`. c #87AD4B",
"'. c #CA844A",
"]. c #D38C42",
"[. c #D48548",
"{. c #C79B49",
"}. c #D69446",
"|. c #D99C4A",
" X c #D78C52",
".X c #DB9658",
"XX c #C68854",
"oX c #EA9146",
"OX c #D9A54D",
"+X c #D6A94F",
"@X c #F5AC49",
"#X c #FCB74B",
"$X c #E4AD52",
"%X c #E4B952",
"&X c #C59977",
"*X c #DCB46D",
"=X c #E1BB77",
"-X c #E6AF69",
";X c #EC9A6D",
":X c #B6C062",
">X c #FEC543",
",X c #FFCB49",
"<X c #F8C846",
"1X c #FDD44B",
"2X c #FDD956",
"3X c #E9D053",
"4X c #FCE556",
"5X c #FCDA64",
"6X c #F9CE66",
"7X c #FDE669",
"8X c #FDE975",
"9X c #EAE56B",
"0X c #D0C057",
"qX c #7F8184",
"wX c #968E8C",
"eX c #BB9D81",
"rX c #95AF88",
"tX c #BEA488",
"yX c #B4B3AE",
"uX c #C29D83",
"iX c #CBA689",
"pX c #DCB596",
"aX c #CFAF8E",
"sX c #E5B691",
"dX c #D2BCA7",
"fX c #EABEA0",
"gX c #9EC18A",
"hX c #F1CE8B",
"jX c #FBEA93",
"kX c #D0C3AB",
"lX c #EBC6A7",
"zX c #F2C5A6",
"xX c #FCCDAE",
"cX c #F4CBAB",
"vX c #FFD2B2",
"bX c #FFD8B7",
"nX c #FFDCBB",
"mX c #F5D5B5",
"MX c #EFD0B1",
"NX c #FEE1BE",
"BX c #F3E7BC",
"VX c #FDF0AC",
"CX c #D1CC9E",
"ZX c #AAB7C2",
"AX c #B6CAD4",
"SX c #C8D0C5",
"DX c #FDDDC2",
"FX c #FFE3C2",
"GX c #FFE9C5",
"HX c #F5E7C7",
"JX c #FFF4CF",
"KX c #F4F4F3",
"LX c #DEE6D6",
/* pixels */
"                                                                                                                                ",
"                                                                                                                                ",
"                                                                                                                                ",
"                    7 9 m 8                                                                                                     ",
"                3 5 8 m J K P J 3                                                                                               ",
"              3 5 5 8 m m J P P P m                                                                                             ",
"              8 9 5 3 9 9 J J K J J J m             5 8 9 5                                                                     ",
"            9 K m 3 3 3 9 m 3 J J 8 8 9 J P L J J J J J J J Z                                                         @ @       ",
"          8 K P 8 , 7 > 8 3 7 9 , 7 8 7 7 7 P J L m m m L L L K                                                   1 @ @ @       ",
"        3 3 A 9 , < 3 > 3 > 8 > 3 7 7 7 , 5 A 9 8 8 m J L K A K m                                             < , @ @ @ @       ",
"      5 7 3 0 3 3 1 > < , , , > 7 1 3 > 5 5 3 < > 3 5 q J I Y I P J                                       1 1 , @ + @ @ @       ",
"    3 5 > 3 3 7 , >     > , , , > 1 > 7 5 , , , 3 3 m J P H Y I P >.K.Z.L.U.<XK.                      0 7 1 , O O O O @ @       ",
"    7 7 > > , >               < < > 5 3 > > , 1 7 8 9 J P S H n.T.E.1X1X,XF.L.4X                  S M 8 1 1 + O O O O @ @       ",
"    7 8 > >                   > > > > > > 1 3 7 7 8 8 3 > 2 H L.>X+X8XjXhX,XK.1X2X            >.L.T.M 1 1 @ O O O O O @ @       ",
"    5 J < >                   > < 3 , > , 3 7 7 5 3 > > < G Z.Y.,X8XVXjX4XL.Y.L.E.        S w.N.Z.T.@.q + O O O O O @ @ @       ",
"    3 J > >                         < , 1 5 5 5 < > > 7 m S.U.Y.,X7X9X8X2XE.L.L.U.@.1 0 F N.` 0 2 ..9.o O O O O O O @ @ @       ",
"    5 m 3 ,                         < > 7 7 5 > > > 7 5 2.Z.T.T.,X4X5X1X,XW.U.Z.U.q q ` 0.q 1 , # # N.o O O O O O O @ @ @       ",
"      8 3 3                           1 7 3 > > < 5 5 @XJ.P.T.2X8XBX,X>X<XW.U...| 8.B.H.,XI.+ O O O w.| O . O O O @ @ @ @       ",
"      5 < <     >                     > > > > > 5 5 2.#X .Z.<X7X8X2XE.W.7XR.P. .w.8.N : & D.<.+ O O f N.L.n.O O O @ @ @         ",
"        3 , 3                           , > > 4.+.U.s.H. . .L.Y.E.L.E.4XR.L.S.4 < p z z R X.B.* O O O | T.S.O O @ @ @ @         ",
"          3 3 ,                           > D #Xw.H.a.H. . .| L.L.P.F.F.F.9.& i z X.o.o.o.O.0.#.^ # O O O O O @ @ @ @ @         ",
"                                        > @.D.I.9.V.8.D.,.: : F L.R.n.- # k C o.O.O.*.=.r.:.*.%.-.-.e O O O O @ @ @ @           ",
"                                        9.I.8.H.<.w. .<.C < < @ . X o k ^ O.#.r.t.r.=.$.%.%.%.$.&.=.r.i.2.O @ @ @ @ @           ",
"                                        B.V.*.H. ._ > : @ . . . . i X.) -.u.i.r.-.-.-.$.%.=.y.t.r.r.%.i.}.].* @ @ @             ",
"                                       .J.w.6.t. .# X . . . . p o.O.=.r.A.t.=.*.$.$.*.r.].].t.:.O.O.*.y.A.&.[ ( ^ +             ",
"                                      8.6. .b O . . . X . e X.O.u.r.u.}.A.r.%.$.=.i.OX|.u.r.t.t.%.O.3.r.p.[.[..X>.              ",
"                                      } % . . . . . X * O.O.t.}.t.|.].r.%.$.=.r. X$X$X$Xu.}.u.r.t.o.=.s.oX$Xs.t.g.g.            ",
"                                    O O . . . X X & O.#.r.t.A.}.].r.*.$.*.r.y.|.$X%X%XOX|.].].i.h.h.p.o.( +.f..X.X.X            ",
"                                $ . . . . . . . X.#.-.:.t.p.k.p.r.-.%.r.r.A.].|.OX$Xu.OX].}.u.3.zX;.k.p.[.g.a.  XX-X.X          ",
"                            + + . . . . . . o O.c %.:.t.y.i.i.:.$.-.r.y.u.u.].}.|.u.|.|.|.u.;.vXsX;.vXf.t.p. X      .X          ",
"                          & . . O . . . . . +.pX*.-.r.t.y.t.:.$.=.r.t.y.i.u.A.].i.3.].}.u.;.cXbX^.l.bXzXe i.[.k.y.  k.XX        ",
"                      & O . . . . . . X X o.uXeXp.*.r.r.t.:.$.r.r.r.r.t.t.u.u.g.^.t.A.i.f.MXbXbXh.zXDXbXt z oX Xg.     X        ",
"                    ; . . . . . X . . . . X.zX&Xt.r.r.r.:.%.r.r.r.r.r.r.t.r./.^.t.t.&.(.MXNXNXXX4.bXDXnXl w A..Xk.              ",
"                  @ . O . . . X . X . . & @.xXk.:.r.r.:.%.r.r.:.r.r.r.r.z I h.r.*.f.iXmXNXNXsX&X&XmXDXDXx y p..X.X              ",
"                + . . . . . X . X . . . p f.iX}.%.r.r.%.:.r.r.r.r.:.h.eX(.-.=.;./.aXNXNXGXf.h.XXmXMXMXDXv t t.-X.X              ",
"              O O . . . . . . X . X . . N h./.3.-.r.%.%.r.r.:.:.3./.^.:.-.h.eXtXMXGXGXNXH 4.k.FXDXDXHXDXv d =.-X-X              ",
"            O . . . O . . . X . X . . . . N l.=.r.-.-.r.r.r.k.H ~.4.wXkXiXeXfXDXNXGXGXBXg.h.dXHXDXnXJX(.v v O..X-X              ",
"            O . . . . . . . . X . X X * . . =.%.:.-.-.r.=.I b.LXHXM.V ZXMXbXnXnXNXNXMX~.~.dXSXAXAXnXHXx x E ^ k.oX              ",
"            . . . . . . X X . X . . . X . n -.:.*.$.*.h.eXM wXx.3Xm.c.yXdXbXnXnXNXaXCXg.dXAX`.b.qXX = v x X.Q   .X              ",
"          . . . O . . . X X X . X X . X Q %.%.:.$.u p uX/./.ZXc.x.x.LXKXwXnXnXnXNXfXpXyXv.BX9X`.KX> y v X.Q     .X              ",
"          . . . . . . O . . . X . & u W o.#.-.$.% % e uXxXvXuXwXKXKXKXkXcXbXbXdXlXNXMXSXx.m.:Xb.T ^.b [          X              ",
"            . . . . . . . . X . X X o E E *.*.% % % u +.vXxXxXvXcXvXvXvXvXbXbXbXmXNXNXnXKXrXgXwXT v [            X              ",
"            . O . O . . . . . . X X W h #.%.t e w y f v aXxXxXvXvXxXvXvXvXvXvXbXbXNXnXNXDXMXMXGXmXb {                           ",
"            . . . . . . . . . . X . W $.Q %.l w v l u v E fXvXxXxXvXxXvXvXvXbXbXFXMXbXnXnXnXnXFXDXR *.                          ",
"              . . O . O . . . X . $ R E #.%.e g v v x x v o.zXxXvXxXxXvXvXvXxXvXcXbXbXbXbXbXbXDXeXx <.                          ",
"                . . . . . . # S F G k E ) %.t c v v v n R R +.zXcXvXvXxXvXxXxXz.z.bXbXvXvXbXvXbXz l 1.                          ",
"                  . O . . . O *X=X6X=X^ R $.k.%.W v v R b v [ @.zXfXxXxXxXvXl.z.z.sXxXvXvXbXbXf.v ) ^                           ",
"                    . . . . O {.+X*X=X=XE ! R c t u ( ( b W ( *.w F fXzXxXvXcXzXzXxXvXvXvXcXG c b [ v (                         ",
"                              {.{.+X$X*X*XE c t W a a r 4.r _ 4.l r <.^.iXzXzXxXxXxXzXiXG v x v ) ( R n ~ /                     ",
"                                {.{.{.$X+X>.R s W ! W d k r v n.O.K.H.~.sX^.s.a s w w w k v n R &.                              ",
"                                  {.{.OXOX+XE g E E h E w a y <.%.J.a.z &X(.w.H.( t e r s b / b ,.                              ",
"                                    d {.{.{.5.R E E E E a a r ( v N P 5 Y Y M ) a.s w t d b ) v <.                              ",
"                                  E a s C ~.P ~ E E Q E d f R u = Q.).).0 A Q.Q.i a r a g h R / o.                              ",
"                                h a a d a a C F ( E E / d M : e r p Q.!.A v.Y 2 4 t t a g E                                     ",
"                                s s s ! a a ) ^ F ` / ) L 1 % t a a Y ).)._.l : 8 N a a d c E                                   ",
"                  E         ~ s g s ! ! d s ) { +.F +.S 5 2 t g a s v.)._.).lXI 8 M a a E E E E                                 ",
"                  E E / ( x d R ! s E h s ! / [ +.o.f.lX> e ! h a H Q._.).I 7 8 8 M g a h E Q ( _ !       E                     ",
"                  d s k t E h Q ! / E d k E h h ' o.pX~.i a ^ g x !.).~.A q 5 5 4 K k a h E Q ( | n.,._ / /                     ",
"                      d R ! Q / ) E d u x E h g / h ' g 9.] H d (.f.#XZ 8 6 6 6 5 4 u s g E Q Q E ,.b ~ ~                       ",
"                        c / ) ( ( x f k W W W E ! B.N.B.V.P.H B.2.#X2X5 6 : 5 < 6 6 Z N k E ) { _ / ) c                         ",
"                      ^ / [ [ { ( k k g j g v ' B.B.C.C.C.P.H F.I.#X#Xq 5 : : 4 , 5 5 U 2 k { ,.,.{ ~ j                         ",
"                    !   ) [ { { ~ k g g s g f J.9.Y.U.C.U.E.%XN.H.G.H.F : : 8 < : , , pXsX5.) 1.1.{ )                           ",
"                        Q [ { &.c u R W s s ' N.BX2X<X1X>X2X1X1X9.n.n.n.: 6 m Z < : ; . X.vXvX( { ( /   c W h                   ",
"                        R ( ( / c p   R s a ] F.2XJX9X7X2X3X9XjXE. . .[ < m m K 3 < , O N.d.;XsXJ.a.Q                           ",
"                          E / / Q     h s a ] B.Y.8X7X8XBXjX7X1X1XV.6.7.6 5 6 Z 6 5 : : |  .T.8.} Q R                           ",
"                            E Q /   y   a a ] B.0.VX8X2X2XVXJX5X,XP.6.7.< : 6 9 8 6 5 : +  .0XT.Q E                             ",
"                              Q R       a a ' 7.6.U.jX7X,XT.,X,XU.B.6.C : : 6 6 8 4 4 O F 0XVX%X[                               ",
"                              Q             ! 7.8.P.1X1XP.B.G.G.P.w.6.< : : 6 6 6 : + kXjX5XT.P.                                ",
"                          E R                 7.A.@XE.E.P.w.B.B.B.q.2 : : < 5 6 6 : C K.E.VX@X0.                                ",
"                                                7.hXJXVX6X-X$XB.G 5 6 2 : : 4 6 6 : 7.w.P.E.C.7.  R                             ",
"                                                ] C.E.<XP.q.q.w.& ) 7.  : < 6 4 4 ] 8.A.6XVX|.6.                                ",
"                                                    0.V.N.7.7.q.6.        j.m : k 7.q.7.Z.L.'                                   ",
"                                                                          vXvX                                                  ",
"                                                                          l.oX                                                  ",
"                                                                          J.@X                                                  ",
"                                                                          e.                                                    ",
"                                                                                                                                "
};
